{
customParameters = (
{
name = "glyphOrder";
value = (
    Sunny
);
}
);
date = "2013-06-30 22:38:20 +0000";
familyName = "Weather Icons";
fontMaster = (
{
alignmentZones = (
"{1344, 27}",
"{0, -27}"
);
ascender = 1536;
capHeight = 1792;
customParameters = (
{
name = "typoAscender";
value = "1536";
},
{
name = "typoDescender";
value = "-256";
},
{
name = "typoLineGap";
value = "0";
},
{
name = "underlinePosition";
value = "-179";
}
);
descender = "-256";
horizontalStems = (
128,
256
);
id = "1E718338-5C3C-490C-A197-65E7F37A33B6";
verticalStems = (
128,
256
);
widthValue = 5;
xHeight = 1792;
}
);
glyphs = (
{
glyphname = ".notdef";
lastChange = "2013-07-01 01:00:04 -0700";
layers = (
{
layerId = "1E718338-5C3C-490C-A197-65E7F37A33B6";
name = "Regular";
paths = (
{
closed = 1;
nodes = (
"224 1424 LINE",
"672 1424 LINE",
"672 112 LINE",
"224 112 LINE"
);
},
{
closed = 1;
nodes = (
"784 0 LINE",
"784 1536 LINE",
"112 1536 LINE",
"112 0 LINE"
);
}
);
width = 896;
}
);
},
{
glyphname = "celcius";
lastChange = "2013-07-01 23:25:49 -0700";
layers = (
{
layerId = "1E718338-5C3C-490C-A197-65E7F37A33B6";
name = "Regular";
paths = (
{
closed = 1;
nodes = (
"18 1102 OFFCURVE",
"1 1062 OFFCURVE",
"1 1015 CURVE SMOOTH",
"1 922 OFFCURVE",
"78 845 OFFCURVE",
"171 845 CURVE SMOOTH",
"263 845 OFFCURVE",
"339 922 OFFCURVE",
"339 1015 CURVE SMOOTH",
"339 1108 OFFCURVE",
"263 1185 OFFCURVE",
"171 1185 CURVE SMOOTH",
"124 1185 OFFCURVE",
"84 1168 OFFCURVE",
"51 1135 CURVE SMOOTH"
);
},
{
closed = 1;
nodes = (
"92 970 OFFCURVE",
"83 990 OFFCURVE",
"83 1015 CURVE SMOOTH",
"83 1064 OFFCURVE",
"122 1103 OFFCURVE",
"171 1103 CURVE SMOOTH",
"219 1103 OFFCURVE",
"259 1063 OFFCURVE",
"259 1015 CURVE SMOOTH",
"259 967 OFFCURVE",
"219 927 OFFCURVE",
"171 927 CURVE SMOOTH",
"146 927 OFFCURVE",
"126 936 OFFCURVE",
"109 953 CURVE SMOOTH"
);
},
{
closed = 1;
nodes = (
"446 903 LINE SMOOTH",
"446 974 OFFCURVE",
"466 1039 OFFCURVE",
"507 1096 CURVE SMOOTH",
"547 1152 OFFCURVE",
"622 1189 OFFCURVE",
"718 1189 CURVE SMOOTH",
"797 1189 OFFCURVE",
"863 1165 OFFCURVE",
"898 1140 CURVE SMOOTH",
"933 1115 OFFCURVE",
"959 1075 OFFCURVE",
"966 1059 CURVE",
"969 1050 OFFCURVE",
"972 1043 OFFCURVE",
"974 1037 CURVE",
"974 1036 LINE",
"981 1009 OFFCURVE",
"964 982 OFFCURVE",
"937 977 CURVE SMOOTH",
"910 972 OFFCURVE",
"885 986 OFFCURVE",
"878 1011 CURVE",
"877 1014 OFFCURVE",
"876 1019 OFFCURVE",
"874 1024 CURVE",
"869 1034 OFFCURVE",
"854 1053 OFFCURVE",
"832 1066 CURVE SMOOTH",
"810 1079 OFFCURVE",
"767 1091 OFFCURVE",
"718 1091 CURVE SMOOTH",
"658 1091 OFFCURVE",
"612 1069 OFFCURVE",
"589 1042 CURVE SMOOTH",
"565 1014 OFFCURVE",
"550 972 OFFCURVE",
"547 945 CURVE SMOOTH",
"545 931 OFFCURVE",
"544 917 OFFCURVE",
"544 903 CURVE SMOOTH",
"544 602 LINE SMOOTH",
"544 574 OFFCURVE",
"545 548 OFFCURVE",
"560 511 CURVE SMOOTH",
"575 474 OFFCURVE",
"595 447 OFFCURVE",
"640 428 CURVE SMOOTH",
"662 418 OFFCURVE",
"688 413 OFFCURVE",
"718 413 CURVE SMOOTH",
"767 413 OFFCURVE",
"810 426 OFFCURVE",
"832 439 CURVE SMOOTH",
"854 452 OFFCURVE",
"869 472 OFFCURVE",
"874 481 CURVE",
"876 486 OFFCURVE",
"877 490 OFFCURVE",
"878 493 CURVE",
"883 520 OFFCURVE",
"910 537 OFFCURVE",
"937 530 CURVE",
"964 525 OFFCURVE",
"981 498 OFFCURVE",
"974 471 CURVE",
"930 338 OFFCURVE",
"807 315 OFFCURVE",
"718 315 CURVE SMOOTH",
"622 315 OFFCURVE",
"546 353 OFFCURVE",
"506 410 CURVE SMOOTH",
"466 467 OFFCURVE",
"446 533 OFFCURVE",
"446 602 CURVE SMOOTH"
);
}
);
width = 990;
}
);
unicode = F03C;
},
{
glyphname = "cloud-down";
lastChange = "2013-07-01 23:27:07 -0700";
layers = (
{
layerId = "1E718338-5C3C-490C-A197-65E7F37A33B6";
name = "Regular";
paths = (
{
closed = 1;
nodes = (
"3 681 OFFCURVE",
"154 867 OFFCURVE",
"359 914 CURVE",
"417 1169 OFFCURVE",
"643 1351 OFFCURVE",
"907 1351 CURVE SMOOTH",
"1165 1351 OFFCURVE",
"1388 1173 OFFCURVE",
"1448 924 CURVE",
"1478 924 LINE SMOOTH",
"1734 924 OFFCURVE",
"1942 721 OFFCURVE",
"1942 465 CURVE SMOOTH",
"1942 215 OFFCURVE",
"1745 9 OFFCURVE",
"1496 1 CURVE SMOOTH",
"1485 1 OFFCURVE",
"1478 5 OFFCURVE",
"1478 17 CURVE SMOOTH",
"1478 142 LINE SMOOTH",
"1478 153 OFFCURVE",
"1485 158 OFFCURVE",
"1496 158 CURVE",
"1655 166 OFFCURVE",
"1785 302 OFFCURVE",
"1785 465 CURVE SMOOTH",
"1785 629 OFFCURVE",
"1644 767 OFFCURVE",
"1478 767 CURVE SMOOTH",
"1327 767 LINE SMOOTH",
"1316 767 OFFCURVE",
"1311 772 OFFCURVE",
"1311 783 CURVE",
"1304 837 LINE SMOOTH",
"1283 1039 OFFCURVE",
"1109 1193 OFFCURVE",
"907 1193 CURVE SMOOTH",
"702 1193 OFFCURVE",
"531 1039 OFFCURVE",
"512 837 CURVE SMOOTH",
"505 786 LINE",
"505 775 OFFCURVE",
"499 770 OFFCURVE",
"487 770 CURVE",
"438 767 LINE",
"282 749 OFFCURVE",
"162 621 OFFCURVE",
"162 465 CURVE SMOOTH",
"162 302 OFFCURVE",
"292 166 OFFCURVE",
"451 158 CURVE",
"462 158 OFFCURVE",
"467 153 OFFCURVE",
"467 142 CURVE SMOOTH",
"467 17 LINE SMOOTH",
"467 5 OFFCURVE",
"462 1 OFFCURVE",
"451 1 CURVE",
"202 12 OFFCURVE",
"3 215 OFFCURVE",
"3 465 CURVE SMOOTH"
);
},
{
closed = 1;
nodes = (
"676 266 LINE SMOOTH",
"661 281 OFFCURVE",
"653 301 OFFCURVE",
"653 322 CURVE SMOOTH",
"653 366 OFFCURVE",
"687 398 OFFCURVE",
"733 398 CURVE SMOOTH",
"755 398 OFFCURVE",
"774 391 OFFCURVE",
"791 376 CURVE",
"894 273 LINE",
"894 645 LINE SMOOTH",
"894 690 OFFCURVE",
"927 722 OFFCURVE",
"971 722 CURVE SMOOTH",
"1015 722 OFFCURVE",
"1051 690 OFFCURVE",
"1051 645 CURVE SMOOTH",
"1051 273 LINE",
"1156 376 LINE",
"1173 391 OFFCURVE",
"1193 398 OFFCURVE",
"1214 398 CURVE SMOOTH",
"1258 398 OFFCURVE",
"1293 366 OFFCURVE",
"1293 322 CURVE SMOOTH",
"1293 301 OFFCURVE",
"1284 281 OFFCURVE",
"1270 266 CURVE SMOOTH",
"1028 23 LINE",
"1017 9 OFFCURVE",
"997 1 OFFCURVE",
"971 1 CURVE SMOOTH",
"946 1 OFFCURVE",
"928 9 OFFCURVE",
"917 23 CURVE"
);
}
);
width = 1940;
}
);
unicode = F03D;
},
{
glyphname = "cloud-refresh";
lastChange = "2013-07-01 23:27:51 -0700";
layers = (
{
layerId = "1E718338-5C3C-490C-A197-65E7F37A33B6";
name = "Regular";
paths = (
{
closed = 1;
nodes = (
"5 677 OFFCURVE",
"155 862 OFFCURVE",
"360 910 CURVE",
"418 1165 OFFCURVE",
"644 1349 OFFCURVE",
"907 1349 CURVE SMOOTH",
"1165 1349 OFFCURVE",
"1387 1170 OFFCURVE",
"1448 923 CURVE",
"1478 923 LINE SMOOTH",
"1733 923 OFFCURVE",
"1941 716 OFFCURVE",
"1941 461 CURVE SMOOTH",
"1941 212 OFFCURVE",
"1745 12 OFFCURVE",
"1496 1 CURVE",
"1484 1 OFFCURVE",
"1478 5 OFFCURVE",
"1478 17 CURVE SMOOTH",
"1478 141 LINE SMOOTH",
"1478 153 OFFCURVE",
"1484 158 OFFCURVE",
"1496 158 CURVE",
"1658 169 OFFCURVE",
"1784 302 OFFCURVE",
"1784 461 CURVE SMOOTH",
"1784 626 OFFCURVE",
"1646 766 OFFCURVE",
"1478 766 CURVE SMOOTH",
"1327 766 LINE SMOOTH",
"1315 766 OFFCURVE",
"1310 771 OFFCURVE",
"1310 782 CURVE",
"1304 836 LINE SMOOTH",
"1283 1038 OFFCURVE",
"1111 1188 OFFCURVE",
"907 1188 CURVE SMOOTH",
"703 1188 OFFCURVE",
"532 1036 OFFCURVE",
"513 833 CURVE",
"506 785 LINE",
"506 774 OFFCURVE",
"500 769 OFFCURVE",
"488 769 CURVE",
"439 762 LINE",
"283 749 OFFCURVE",
"164 618 OFFCURVE",
"164 461 CURVE SMOOTH",
"164 302 OFFCURVE",
"290 169 OFFCURVE",
"452 158 CURVE",
"463 158 OFFCURVE",
"468 153 OFFCURVE",
"468 141 CURVE SMOOTH",
"468 17 LINE SMOOTH",
"468 5 OFFCURVE",
"463 1 OFFCURVE",
"452 1 CURVE",
"203 12 OFFCURVE",
"5 212 OFFCURVE",
"5 461 CURVE SMOOTH"
);
},
{
closed = 1;
nodes = (
"586 538 OFFCURVE",
"726 694 OFFCURVE",
"911 725 CURVE",
"878 759 LINE SMOOTH",
"863 774 OFFCURVE",
"857 792 OFFCURVE",
"857 813 CURVE SMOOTH",
"857 857 OFFCURVE",
"891 893 OFFCURVE",
"935 893 CURVE SMOOTH",
"957 893 OFFCURVE",
"976 885 OFFCURVE",
"993 869 CURVE SMOOTH",
"1163 698 LINE SMOOTH",
"1178 684 OFFCURVE",
"1186 664 OFFCURVE",
"1186 641 CURVE SMOOTH",
"1186 620 OFFCURVE",
"1178 602 OFFCURVE",
"1163 587 CURVE SMOOTH",
"993 413 LINE",
"947 382 OFFCURVE",
"903 386 OFFCURVE",
"878 413 CURVE",
"863 431 OFFCURVE",
"857 453 OFFCURVE",
"857 474 CURVE SMOOTH",
"857 495 OFFCURVE",
"863 513 OFFCURVE",
"878 528 CURVE",
"917 564 LINE",
"819 556 OFFCURVE",
"744 453 OFFCURVE",
"744 343 CURVE SMOOTH",
"744 218 OFFCURVE",
"847 115 OFFCURVE",
"971 115 CURVE SMOOTH",
"1097 115 OFFCURVE",
"1199 218 OFFCURVE",
"1199 343 CURVE SMOOTH",
"1199 387 OFFCURVE",
"1237 423 OFFCURVE",
"1281 423 CURVE SMOOTH",
"1325 423 OFFCURVE",
"1361 387 OFFCURVE",
"1361 343 CURVE SMOOTH",
"1361 132 OFFCURVE",
"1186 -44 OFFCURVE",
"971 -44 CURVE SMOOTH",
"760 -44 OFFCURVE",
"586 132 OFFCURVE",
"586 343 CURVE SMOOTH"
);
}
);
width = 1940;
}
);
unicode = F03E;
},
{
glyphname = "cloud-up";
lastChange = "2013-07-01 23:28:16 -0700";
layers = (
{
layerId = "1E718338-5C3C-490C-A197-65E7F37A33B6";
name = "Regular";
paths = (
{
closed = 1;
nodes = (
"0 680 OFFCURVE",
"150 865 OFFCURVE",
"355 912 CURVE",
"412 1166 OFFCURVE",
"638 1348 OFFCURVE",
"902 1348 CURVE SMOOTH",
"1159 1348 OFFCURVE",
"1381 1171 OFFCURVE",
"1442 922 CURVE",
"1472 922 LINE SMOOTH",
"1727 922 OFFCURVE",
"1935 719 OFFCURVE",
"1935 464 CURVE SMOOTH",
"1935 215 OFFCURVE",
"1738 9 OFFCURVE",
"1490 1 CURVE SMOOTH",
"1478 1 OFFCURVE",
"1472 5 OFFCURVE",
"1472 17 CURVE SMOOTH",
"1472 141 LINE SMOOTH",
"1472 153 OFFCURVE",
"1478 158 OFFCURVE",
"1490 158 CURVE",
"1648 166 OFFCURVE",
"1778 302 OFFCURVE",
"1778 464 CURVE SMOOTH",
"1778 627 OFFCURVE",
"1637 765 OFFCURVE",
"1472 765 CURVE SMOOTH",
"1321 765 LINE SMOOTH",
"1309 765 OFFCURVE",
"1305 770 OFFCURVE",
"1305 781 CURVE",
"1298 835 LINE SMOOTH",
"1277 1037 OFFCURVE",
"1103 1191 OFFCURVE",
"902 1191 CURVE SMOOTH",
"697 1191 OFFCURVE",
"527 1037 OFFCURVE",
"507 835 CURVE SMOOTH",
"501 781 LINE",
"501 770 OFFCURVE",
"494 765 OFFCURVE",
"483 765 CURVE SMOOTH",
"434 765 LINE",
"278 747 OFFCURVE",
"159 619 OFFCURVE",
"159 464 CURVE SMOOTH",
"159 302 OFFCURVE",
"288 166 OFFCURVE",
"447 158 CURVE",
"458 158 OFFCURVE",
"463 153 OFFCURVE",
"463 141 CURVE SMOOTH",
"463 17 LINE SMOOTH",
"463 5 OFFCURVE",
"458 1 OFFCURVE",
"447 1 CURVE",
"198 12 OFFCURVE",
"0 215 OFFCURVE",
"0 464 CURVE SMOOTH"
);
},
{
closed = 1;
nodes = (
"656 362 OFFCURVE",
"648 382 OFFCURVE",
"648 405 CURVE SMOOTH",
"648 428 OFFCURVE",
"656 446 OFFCURVE",
"671 461 CURVE SMOOTH",
"912 701 LINE SMOOTH",
"926 716 OFFCURVE",
"944 724 OFFCURVE",
"967 724 CURVE SMOOTH",
"990 724 OFFCURVE",
"1008 716 OFFCURVE",
"1023 701 CURVE SMOOTH",
"1264 461 LINE SMOOTH",
"1278 446 OFFCURVE",
"1287 428 OFFCURVE",
"1287 403 CURVE SMOOTH",
"1287 379 OFFCURVE",
"1278 359 OFFCURVE",
"1264 346 CURVE",
"1226 318 OFFCURVE",
"1188 318 OFFCURVE",
"1151 346 CURVE",
"1046 449 LINE",
"1046 81 LINE SMOOTH",
"1046 37 OFFCURVE",
"1010 1 OFFCURVE",
"966 1 CURVE SMOOTH",
"921 1 OFFCURVE",
"889 37 OFFCURVE",
"889 81 CURVE SMOOTH",
"889 452 LINE",
"786 346 LINE",
"769 331 OFFCURVE",
"750 325 OFFCURVE",
"728 325 CURVE SMOOTH",
"705 325 OFFCURVE",
"686 331 OFFCURVE",
"671 346 CURVE"
);
}
);
width = 1940;
}
);
unicode = F040;
},
{
glyphname = "cloud-wi";
lastChange = "2013-07-01 23:29:22 -0700";
layers = (
{
layerId = "1E718338-5C3C-490C-A197-65E7F37A33B6";
name = "Regular";
paths = (
{
closed = 1;
nodes = (
"3 681 OFFCURVE",
"154 867 OFFCURVE",
"359 914 CURVE",
"417 1169 OFFCURVE",
"643 1351 OFFCURVE",
"907 1351 CURVE SMOOTH",
"1165 1351 OFFCURVE",
"1388 1173 OFFCURVE",
"1448 924 CURVE",
"1478 924 LINE SMOOTH",
"1734 924 OFFCURVE",
"1942 721 OFFCURVE",
"1942 465 CURVE SMOOTH",
"1942 215 OFFCURVE",
"1745 9 OFFCURVE",
"1496 1 CURVE SMOOTH",
"1485 1 OFFCURVE",
"1478 5 OFFCURVE",
"1478 17 CURVE SMOOTH",
"1478 142 LINE SMOOTH",
"1478 153 OFFCURVE",
"1485 158 OFFCURVE",
"1496 158 CURVE",
"1655 166 OFFCURVE",
"1785 302 OFFCURVE",
"1785 465 CURVE SMOOTH",
"1785 629 OFFCURVE",
"1644 767 OFFCURVE",
"1478 767 CURVE SMOOTH",
"1327 767 LINE SMOOTH",
"1316 767 OFFCURVE",
"1311 772 OFFCURVE",
"1311 783 CURVE",
"1304 837 LINE SMOOTH",
"1283 1039 OFFCURVE",
"1109 1193 OFFCURVE",
"907 1193 CURVE SMOOTH",
"702 1193 OFFCURVE",
"531 1039 OFFCURVE",
"512 837 CURVE SMOOTH",
"505 783 LINE",
"505 772 OFFCURVE",
"499 767 OFFCURVE",
"487 767 CURVE SMOOTH",
"438 767 LINE",
"282 749 OFFCURVE",
"162 621 OFFCURVE",
"162 465 CURVE SMOOTH",
"162 302 OFFCURVE",
"292 166 OFFCURVE",
"451 158 CURVE",
"462 158 OFFCURVE",
"467 153 OFFCURVE",
"467 142 CURVE SMOOTH",
"467 17 LINE SMOOTH",
"467 5 OFFCURVE",
"462 1 OFFCURVE",
"451 1 CURVE",
"202 12 OFFCURVE",
"3 215 OFFCURVE",
"3 465 CURVE SMOOTH"
);
}
);
width = 1940;
}
);
unicode = F041;
},
{
glyphname = "cloudy";
lastChange = "2013-07-01 02:27:13 -0700";
layers = (
{
layerId = "1E718338-5C3C-490C-A197-65E7F37A33B6";
name = "Regular";
paths = (
{
closed = 1;
nodes = (
"3 178 OFFCURVE",
"182 -1 OFFCURVE",
"401 -1 CURVE SMOOTH",
"1267 -1 LINE SMOOTH",
"1487 -1 OFFCURVE",
"1665 178 OFFCURVE",
"1665 397 CURVE SMOOTH",
"1665 617 OFFCURVE",
"1487 794 OFFCURVE",
"1267 794 CURVE SMOOTH",
"1242 794 LINE",
"1190 1006 OFFCURVE",
"999 1157 OFFCURVE",
"778 1157 CURVE SMOOTH",
"551 1157 OFFCURVE",
"359 1002 OFFCURVE",
"312 783 CURVE",
"132 742 OFFCURVE",
"3 583 OFFCURVE",
"3 397 CURVE SMOOTH"
);
},
{
closed = 1;
nodes = (
"139 532 OFFCURVE",
"242 645 OFFCURVE",
"376 656 CURVE",
"418 662 LINE",
"428 662 OFFCURVE",
"433 666 OFFCURVE",
"433 676 CURVE",
"439 716 LINE",
"456 891 OFFCURVE",
"602 1022 OFFCURVE",
"778 1022 CURVE SMOOTH",
"954 1022 OFFCURVE",
"1100 892 OFFCURVE",
"1118 716 CURVE SMOOTH",
"1124 670 LINE",
"1124 660 OFFCURVE",
"1128 656 OFFCURVE",
"1138 656 CURVE SMOOTH",
"1267 656 LINE SMOOTH",
"1412 656 OFFCURVE",
"1530 539 OFFCURVE",
"1530 397 CURVE SMOOTH",
"1530 255 OFFCURVE",
"1412 137 OFFCURVE",
"1267 137 CURVE SMOOTH",
"401 137 LINE SMOOTH",
"256 137 OFFCURVE",
"139 255 OFFCURVE",
"139 397 CURVE SMOOTH"
);
},
{
closed = 1;
nodes = (
"1051 1310 OFFCURVE",
"1159 1359 OFFCURVE",
"1291 1359 CURVE SMOOTH",
"1484 1359 OFFCURVE",
"1657 1224 OFFCURVE",
"1706 1038 CURVE",
"1720 1038 LINE SMOOTH",
"1917 1038 OFFCURVE",
"2077 878 OFFCURVE",
"2077 681 CURVE SMOOTH",
"2077 494 OFFCURVE",
"1929 338 OFFCURVE",
"1742 327 CURVE",
"1733 327 OFFCURVE",
"1728 333 OFFCURVE",
"1728 342 CURVE SMOOTH",
"1728 448 LINE SMOOTH",
"1728 458 OFFCURVE",
"1733 463 OFFCURVE",
"1742 463 CURVE",
"1855 475 OFFCURVE",
"1942 569 OFFCURVE",
"1942 681 CURVE SMOOTH",
"1942 801 OFFCURVE",
"1842 901 OFFCURVE",
"1720 901 CURVE SMOOTH",
"1588 901 LINE",
"1579 961 LINE",
"1567 1109 OFFCURVE",
"1442 1223 OFFCURVE",
"1291 1223 CURVE SMOOTH",
"1215 1223 OFFCURVE",
"1149 1196 OFFCURVE",
"1093 1143 CURVE SMOOTH",
"1089 1138 OFFCURVE",
"1082 1137 OFFCURVE",
"1072 1140 CURVE",
"1034 1164 OFFCURVE",
"1000 1180 OFFCURVE",
"972 1192 CURVE",
"958 1196 OFFCURVE",
"955 1202 OFFCURVE",
"965 1211 CURVE"
);
}
);
width = 2080;
}
);
unicode = F013;
},
{
glyphname = "cloudy-gusts";
lastChange = "2013-07-01 02:28:10 -0700";
layers = (
{
layerId = "1E718338-5C3C-490C-A197-65E7F37A33B6";
name = "Regular";
paths = (
{
closed = 1;
nodes = (
"-444 121 OFFCURVE",
"-452 100 OFFCURVE",
"-452 79 CURVE SMOOTH",
"-452 35 OFFCURVE",
"-416 -1 OFFCURVE",
"-372 -1 CURVE SMOOTH",
"383 -1 LINE SMOOTH",
"431 -1 OFFCURVE",
"474 -41 OFFCURVE",
"474 -91 CURVE SMOOTH",
"474 -143 OFFCURVE",
"431 -183 OFFCURVE",
"383 -183 CURVE SMOOTH",
"359 -183 OFFCURVE",
"338 -174 OFFCURVE",
"319 -156 CURVE",
"303 -141 OFFCURVE",
"283 -133 OFFCURVE",
"262 -133 CURVE SMOOTH",
"215 -133 OFFCURVE",
"184 -167 OFFCURVE",
"184 -212 CURVE SMOOTH",
"184 -233 OFFCURVE",
"191 -253 OFFCURVE",
"206 -268 CURVE SMOOTH",
"255 -317 OFFCURVE",
"315 -341 OFFCURVE",
"383 -341 CURVE SMOOTH",
"521 -341 OFFCURVE",
"633 -230 OFFCURVE",
"633 -91 CURVE SMOOTH",
"633 46 OFFCURVE",
"521 160 OFFCURVE",
"383 160 CURVE SMOOTH",
"-372 160 LINE SMOOTH",
"-393 160 OFFCURVE",
"-412 152 OFFCURVE",
"-428 137 CURVE SMOOTH"
);
},
{
closed = 1;
nodes = (
"-444 404 OFFCURVE",
"-452 383 OFFCURVE",
"-452 362 CURVE SMOOTH",
"-452 318 OFFCURVE",
"-416 285 OFFCURVE",
"-372 285 CURVE SMOOTH",
"862 285 LINE SMOOTH",
"1000 285 OFFCURVE",
"1112 397 OFFCURVE",
"1112 535 CURVE SMOOTH",
"1112 673 OFFCURVE",
"1000 783 OFFCURVE",
"862 783 CURVE SMOOTH",
"790 783 OFFCURVE",
"731 760 OFFCURVE",
"683 712 CURVE",
"668 696 OFFCURVE",
"662 677 OFFCURVE",
"662 655 CURVE SMOOTH",
"662 610 OFFCURVE",
"693 578 OFFCURVE",
"739 578 CURVE SMOOTH",
"762 578 OFFCURVE",
"781 585 OFFCURVE",
"798 599 CURVE",
"816 618 OFFCURVE",
"837 626 OFFCURVE",
"862 626 CURVE SMOOTH",
"910 626 OFFCURVE",
"953 586 OFFCURVE",
"953 535 CURVE SMOOTH",
"953 484 OFFCURVE",
"910 443 OFFCURVE",
"862 443 CURVE SMOOTH",
"-372 443 LINE SMOOTH",
"-393 443 OFFCURVE",
"-412 435 OFFCURVE",
"-428 420 CURVE SMOOTH"
);
},
{
closed = 1;
nodes = (
"0 594 LINE",
"48 752 OFFCURVE",
"181 877 OFFCURVE",
"341 915 CURVE",
"395 1170 OFFCURVE",
"621 1353 OFFCURVE",
"885 1353 CURVE SMOOTH",
"1147 1353 OFFCURVE",
"1370 1176 OFFCURVE",
"1428 928 CURVE",
"1457 928 LINE SMOOTH",
"1714 928 OFFCURVE",
"1923 721 OFFCURVE",
"1923 464 CURVE SMOOTH",
"1923 208 OFFCURVE",
"1714 -1 OFFCURVE",
"1457 -1 CURVE SMOOTH",
"812 -1 LINE SMOOTH",
"800 -1 OFFCURVE",
"795 4 OFFCURVE",
"795 15 CURVE SMOOTH",
"795 144 LINE SMOOTH",
"795 155 OFFCURVE",
"800 160 OFFCURVE",
"812 160 CURVE SMOOTH",
"1457 160 LINE SMOOTH",
"1627 160 OFFCURVE",
"1765 298 OFFCURVE",
"1765 464 CURVE SMOOTH",
"1765 631 OFFCURVE",
"1627 767 OFFCURVE",
"1457 767 CURVE SMOOTH",
"1306 767 LINE SMOOTH",
"1295 767 OFFCURVE",
"1290 772 OFFCURVE",
"1290 783 CURVE",
"1283 838 LINE SMOOTH",
"1262 1043 OFFCURVE",
"1091 1195 OFFCURVE",
"885 1195 CURVE SMOOTH",
"679 1195 OFFCURVE",
"508 1040 OFFCURVE",
"489 838 CURVE",
"482 790 LINE",
"482 779 OFFCURVE",
"475 774 OFFCURVE",
"464 774 CURVE",
"415 767 LINE",
"303 759 OFFCURVE",
"209 685 OFFCURVE",
"168 585 CURVE",
"163 576 OFFCURVE",
"157 571 OFFCURVE",
"148 571 CURVE SMOOTH",
"13 571 LINE SMOOTH",
"4 571 OFFCURVE",
"-2 575 OFFCURVE",
"-2 583 CURVE SMOOTH",
"-2 585 OFFCURVE",
"-2 587 OFFCURVE",
"0 591 CURVE"
);
}
);
width = 1920;
}
);
unicode = F011;
},
{
glyphname = "cloudy-windy";
lastChange = "2013-07-01 02:28:59 -0700";
layers = (
{
layerId = "1E718338-5C3C-490C-A197-65E7F37A33B6";
name = "Regular";
paths = (
{
closed = 1;
nodes = (
"-698 32 OFFCURVE",
"-662 -2 OFFCURVE",
"-616 -2 CURVE SMOOTH",
"612 -2 LINE SMOOTH",
"656 -2 OFFCURVE",
"689 32 OFFCURVE",
"689 76 CURVE SMOOTH",
"689 123 OFFCURVE",
"656 156 OFFCURVE",
"612 156 CURVE SMOOTH",
"-616 156 LINE SMOOTH",
"-662 156 OFFCURVE",
"-698 122 OFFCURVE",
"-698 76 CURVE SMOOTH"
);
},
{
closed = 1;
nodes = (
"-444 402 OFFCURVE",
"-452 382 OFFCURVE",
"-452 361 CURVE SMOOTH",
"-452 317 OFFCURVE",
"-416 281 OFFCURVE",
"-372 281 CURVE SMOOTH",
"858 281 LINE SMOOTH",
"902 281 OFFCURVE",
"934 317 OFFCURVE",
"934 361 CURVE SMOOTH",
"934 405 OFFCURVE",
"902 438 OFFCURVE",
"858 438 CURVE SMOOTH",
"-372 438 LINE SMOOTH",
"-393 438 OFFCURVE",
"-413 432 OFFCURVE",
"-427 417 CURVE"
);
},
{
closed = 1;
nodes = (
"-280 -172 OFFCURVE",
"-288 -191 OFFCURVE",
"-288 -213 CURVE SMOOTH",
"-288 -257 OFFCURVE",
"-252 -293 OFFCURVE",
"-208 -293 CURVE SMOOTH",
"1021 -293 LINE SMOOTH",
"1066 -293 OFFCURVE",
"1102 -257 OFFCURVE",
"1102 -213 CURVE SMOOTH",
"1102 -168 OFFCURVE",
"1066 -135 OFFCURVE",
"1021 -135 CURVE SMOOTH",
"-208 -135 LINE SMOOTH",
"-229 -135 OFFCURVE",
"-249 -142 OFFCURVE",
"-263 -157 CURVE"
);
},
{
closed = 1;
nodes = (
"-3 588 LINE",
"45 748 OFFCURVE",
"174 871 OFFCURVE",
"336 908 CURVE",
"390 1164 OFFCURVE",
"616 1348 OFFCURVE",
"881 1348 CURVE SMOOTH",
"1138 1348 OFFCURVE",
"1361 1171 OFFCURVE",
"1421 921 CURVE",
"1450 921 LINE SMOOTH",
"1707 921 OFFCURVE",
"1914 715 OFFCURVE",
"1914 459 CURVE SMOOTH",
"1914 204 OFFCURVE",
"1707 -2 OFFCURVE",
"1450 -2 CURVE SMOOTH",
"807 -2 LINE SMOOTH",
"795 -2 OFFCURVE",
"790 4 OFFCURVE",
"790 15 CURVE SMOOTH",
"790 140 LINE SMOOTH",
"790 152 OFFCURVE",
"795 156 OFFCURVE",
"807 156 CURVE SMOOTH",
"1450 156 LINE SMOOTH",
"1616 156 OFFCURVE",
"1756 295 OFFCURVE",
"1756 459 CURVE SMOOTH",
"1756 628 OFFCURVE",
"1619 765 OFFCURVE",
"1450 765 CURVE SMOOTH",
"1300 765 LINE SMOOTH",
"1288 765 OFFCURVE",
"1284 769 OFFCURVE",
"1284 780 CURVE",
"1277 835 LINE SMOOTH",
"1252 1037 OFFCURVE",
"1085 1187 OFFCURVE",
"881 1187 CURVE SMOOTH",
"675 1187 OFFCURVE",
"504 1035 OFFCURVE",
"483 832 CURVE",
"477 784 LINE",
"477 773 OFFCURVE",
"472 767 OFFCURVE",
"461 767 CURVE",
"410 761 LINE",
"300 753 OFFCURVE",
"207 679 OFFCURVE",
"166 579 CURVE",
"161 571 OFFCURVE",
"152 566 OFFCURVE",
"144 566 CURVE SMOOTH",
"11 566 LINE SMOOTH",
"0 566 OFFCURVE",
"-4 571 OFFCURVE",
"-4 579 CURVE SMOOTH",
"-4 581 OFFCURVE",
"-4 584 OFFCURVE",
"-3 586 CURVE"
);
}
);
width = 1920;
}
);
unicode = F012;
},
{
glyphname = "day-cloud-gusts";
lastChange = "2013-07-01 02:22:23 -0700";
layers = (
{
layerId = "1E718338-5C3C-490C-A197-65E7F37A33B6";
name = "Regular";
paths = (
{
closed = 1;
nodes = (
"-443 38 OFFCURVE",
"-451 58 OFFCURVE",
"-451 79 CURVE SMOOTH",
"-451 123 OFFCURVE",
"-413 159 OFFCURVE",
"-369 159 CURVE SMOOTH",
"380 159 LINE SMOOTH",
"517 159 OFFCURVE",
"628 46 OFFCURVE",
"628 -91 CURVE SMOOTH",
"628 -228 OFFCURVE",
"517 -340 OFFCURVE",
"380 -340 CURVE SMOOTH",
"311 -340 OFFCURVE",
"252 -315 OFFCURVE",
"203 -266 CURVE SMOOTH",
"188 -251 OFFCURVE",
"180 -232 OFFCURVE",
"180 -210 CURVE SMOOTH",
"180 -166 OFFCURVE",
"214 -132 OFFCURVE",
"259 -132 CURVE SMOOTH",
"280 -132 OFFCURVE",
"299 -140 OFFCURVE",
"316 -155 CURVE",
"334 -173 OFFCURVE",
"355 -183 OFFCURVE",
"380 -183 CURVE SMOOTH",
"427 -183 OFFCURVE",
"471 -142 OFFCURVE",
"471 -91 CURVE SMOOTH",
"471 -40 OFFCURVE",
"427 -1 OFFCURVE",
"380 -1 CURVE SMOOTH",
"-369 -1 LINE SMOOTH",
"-390 -1 OFFCURVE",
"-410 7 OFFCURVE",
"-426 23 CURVE"
);
},
{
closed = 1;
nodes = (
"-443 321 OFFCURVE",
"-451 339 OFFCURVE",
"-451 360 CURVE SMOOTH",
"-451 404 OFFCURVE",
"-413 440 OFFCURVE",
"-369 440 CURVE SMOOTH",
"855 440 LINE SMOOTH",
"903 440 OFFCURVE",
"945 481 OFFCURVE",
"945 532 CURVE SMOOTH",
"945 583 OFFCURVE",
"903 622 OFFCURVE",
"855 622 CURVE SMOOTH",
"831 622 OFFCURVE",
"810 614 OFFCURVE",
"792 596 CURVE",
"775 581 OFFCURVE",
"756 574 OFFCURVE",
"734 574 CURVE SMOOTH",
"689 574 OFFCURVE",
"657 605 OFFCURVE",
"657 651 CURVE SMOOTH",
"657 672 OFFCURVE",
"664 692 OFFCURVE",
"679 708 CURVE",
"726 756 OFFCURVE",
"785 779 OFFCURVE",
"855 779 CURVE SMOOTH",
"993 779 OFFCURVE",
"1104 669 OFFCURVE",
"1104 532 CURVE SMOOTH",
"1104 395 OFFCURVE",
"993 283 OFFCURVE",
"855 283 CURVE SMOOTH",
"-369 283 LINE SMOOTH",
"-392 283 OFFCURVE",
"-412 292 OFFCURVE",
"-426 306 CURVE"
);
},
{
closed = 1;
nodes = (
"-1 591 LINE",
"46 748 OFFCURVE",
"178 872 OFFCURVE",
"337 910 CURVE",
"391 1163 OFFCURVE",
"615 1344 OFFCURVE",
"878 1344 CURVE SMOOTH",
"970 1344 OFFCURVE",
"1053 1325 OFFCURVE",
"1127 1287 CURVE",
"1223 1395 OFFCURVE",
"1344 1449 OFFCURVE",
"1488 1449 CURVE SMOOTH",
"1756 1449 OFFCURVE",
"1977 1228 OFFCURVE",
"1977 960 CURVE SMOOTH",
"1977 846 OFFCURVE",
"1941 743 OFFCURVE",
"1871 651 CURVE",
"1897 594 OFFCURVE",
"1910 532 OFFCURVE",
"1910 462 CURVE SMOOTH",
"1910 207 OFFCURVE",
"1704 -1 OFFCURVE",
"1449 -1 CURVE SMOOTH",
"805 -1 LINE SMOOTH",
"793 -1 OFFCURVE",
"788 4 OFFCURVE",
"788 15 CURVE SMOOTH",
"788 143 LINE SMOOTH",
"788 154 OFFCURVE",
"793 159 OFFCURVE",
"805 159 CURVE SMOOTH",
"1449 159 LINE SMOOTH",
"1617 159 OFFCURVE",
"1753 296 OFFCURVE",
"1753 462 CURVE SMOOTH",
"1753 627 OFFCURVE",
"1617 762 OFFCURVE",
"1449 762 CURVE SMOOTH",
"1297 762 LINE SMOOTH",
"1285 762 OFFCURVE",
"1280 767 OFFCURVE",
"1280 779 CURVE",
"1274 833 LINE SMOOTH",
"1253 1037 OFFCURVE",
"1083 1187 OFFCURVE",
"878 1187 CURVE SMOOTH",
"674 1187 OFFCURVE",
"504 1034 OFFCURVE",
"484 833 CURVE",
"478 785 LINE",
"478 774 OFFCURVE",
"471 769 OFFCURVE",
"460 769 CURVE",
"411 762 LINE",
"299 754 OFFCURVE",
"206 681 OFFCURVE",
"165 581 CURVE",
"160 573 OFFCURVE",
"154 568 OFFCURVE",
"146 568 CURVE SMOOTH",
"12 568 LINE SMOOTH",
"2 568 OFFCURVE",
"-3 571 OFFCURVE",
"-3 579 CURVE SMOOTH",
"-3 581 OFFCURVE",
"-3 584 OFFCURVE",
"-1 587 CURVE"
);
},
{
closed = 1;
nodes = (
"785 1552 LINE",
"769 1567 OFFCURVE",
"760 1586 OFFCURVE",
"760 1608 CURVE SMOOTH",
"760 1652 OFFCURVE",
"796 1688 OFFCURVE",
"841 1688 CURVE SMOOTH",
"862 1688 OFFCURVE",
"881 1680 OFFCURVE",
"896 1663 CURVE",
"957 1603 LINE SMOOTH",
"971 1588 OFFCURVE",
"978 1570 OFFCURVE",
"978 1547 CURVE SMOOTH",
"978 1501 OFFCURVE",
"945 1469 OFFCURVE",
"899 1469 CURVE SMOOTH",
"877 1469 OFFCURVE",
"857 1477 OFFCURVE",
"842 1492 CURVE SMOOTH"
);
},
{
closed = 1;
nodes = (
"1342 1116 OFFCURVE",
"1396 1024 OFFCURVE",
"1418 923 CURVE",
"1449 923 LINE SMOOTH",
"1575 923 OFFCURVE",
"1683 878 OFFCURVE",
"1772 789 CURVE",
"1804 842 OFFCURVE",
"1820 900 OFFCURVE",
"1820 960 CURVE SMOOTH",
"1820 1142 OFFCURVE",
"1669 1292 OFFCURVE",
"1488 1292 CURVE SMOOTH",
"1401 1292 OFFCURVE",
"1324 1261 OFFCURVE",
"1257 1197 CURVE"
);
},
{
closed = 1;
nodes = (
"1408 1877 LINE SMOOTH",
"1408 1922 OFFCURVE",
"1444 1957 OFFCURVE",
"1488 1957 CURVE SMOOTH",
"1532 1957 OFFCURVE",
"1568 1922 OFFCURVE",
"1568 1877 CURVE SMOOTH",
"1568 1686 LINE SMOOTH",
"1568 1642 OFFCURVE",
"1532 1609 OFFCURVE",
"1488 1609 CURVE SMOOTH",
"1444 1609 OFFCURVE",
"1408 1642 OFFCURVE",
"1408 1686 CURVE SMOOTH"
);
},
{
closed = 1;
nodes = (
"1933 1433 OFFCURVE",
"1926 1452 OFFCURVE",
"1926 1474 CURVE SMOOTH",
"1926 1495 OFFCURVE",
"1933 1514 OFFCURVE",
"1947 1529 CURVE SMOOTH",
"2081 1666 LINE SMOOTH",
"2096 1681 OFFCURVE",
"2114 1689 OFFCURVE",
"2137 1689 CURVE SMOOTH",
"2181 1689 OFFCURVE",
"2217 1653 OFFCURVE",
"2217 1609 CURVE SMOOTH",
"2217 1586 OFFCURVE",
"2209 1567 OFFCURVE",
"2194 1552 CURVE SMOOTH",
"2057 1418 LINE",
"2031 1385 OFFCURVE",
"1978 1387 OFFCURVE",
"1947 1418 CURVE SMOOTH"
);
},
{
closed = 1;
nodes = (
"2021 314 LINE SMOOTH",
"2006 329 OFFCURVE",
"1998 347 OFFCURVE",
"1998 370 CURVE SMOOTH",
"1998 414 OFFCURVE",
"2034 450 OFFCURVE",
"2080 450 CURVE SMOOTH",
"2101 450 OFFCURVE",
"2119 442 OFFCURVE",
"2134 427 CURVE SMOOTH",
"2194 367 LINE",
"2209 350 OFFCURVE",
"2217 331 OFFCURVE",
"2217 310 CURVE SMOOTH",
"2217 288 OFFCURVE",
"2209 269 OFFCURVE",
"2194 254 CURVE",
"2176 239 OFFCURVE",
"2157 231 OFFCURVE",
"2139 231 CURVE SMOOTH",
"2119 231 OFFCURVE",
"2099 239 OFFCURVE",
"2081 254 CURVE"
);
},
{
closed = 1;
nodes = (
"2147 919 OFFCURVE",
"2139 939 OFFCURVE",
"2139 960 CURVE SMOOTH",
"2139 1004 OFFCURVE",
"2171 1040 OFFCURVE",
"2216 1040 CURVE SMOOTH",
"2405 1040 LINE SMOOTH",
"2449 1040 OFFCURVE",
"2485 1004 OFFCURVE",
"2485 960 CURVE SMOOTH",
"2485 916 OFFCURVE",
"2449 880 OFFCURVE",
"2405 880 CURVE SMOOTH",
"2216 880 LINE SMOOTH",
"2194 880 OFFCURVE",
"2176 888 OFFCURVE",
"2162 905 CURVE"
);
}
);
width = 2230;
}
);
unicode = F000;
},
{
glyphname = "day-cloudy";
lastChange = "2013-07-01 02:05:34 -0700";
layers = (
{
layerId = "1E718338-5C3C-490C-A197-65E7F37A33B6";
name = "Regular";
paths = (
{
closed = 1;
nodes = (
"7 678 OFFCURVE",
"153 862 OFFCURVE",
"362 910 CURVE",
"419 1163 OFFCURVE",
"642 1345 OFFCURVE",
"905 1345 CURVE SMOOTH",
"1000 1345 OFFCURVE",
"1084 1325 OFFCURVE",
"1157 1284 CURVE",
"1259 1392 OFFCURVE",
"1380 1446 OFFCURVE",
"1519 1446 CURVE SMOOTH",
"1789 1446 OFFCURVE",
"2008 1227 OFFCURVE",
"2008 957 CURVE SMOOTH",
"2008 838 OFFCURVE",
"1972 735 OFFCURVE",
"1901 648 CURVE",
"1928 583 OFFCURVE",
"1941 521 OFFCURVE",
"1941 462 CURVE SMOOTH",
"1941 206 OFFCURVE",
"1733 -1 OFFCURVE",
"1478 -1 CURVE SMOOTH",
"467 -1 LINE SMOOTH",
"212 -1 OFFCURVE",
"7 206 OFFCURVE",
"7 462 CURVE SMOOTH"
);
},
{
closed = 1;
nodes = (
"166 296 OFFCURVE",
"303 156 OFFCURVE",
"467 156 CURVE SMOOTH",
"1478 156 LINE SMOOTH",
"1643 156 OFFCURVE",
"1780 293 OFFCURVE",
"1780 462 CURVE SMOOTH",
"1780 625 OFFCURVE",
"1643 763 OFFCURVE",
"1478 763 CURVE SMOOTH",
"1327 763 LINE SMOOTH",
"1317 763 OFFCURVE",
"1311 768 OFFCURVE",
"1308 779 CURVE",
"1301 833 LINE SMOOTH",
"1282 1034 OFFCURVE",
"1110 1188 OFFCURVE",
"905 1188 CURVE SMOOTH",
"704 1188 OFFCURVE",
"536 1034 OFFCURVE",
"511 833 CURVE SMOOTH",
"505 782 LINE",
"505 771 OFFCURVE",
"498 766 OFFCURVE",
"487 766 CURVE",
"441 763 LINE",
"284 745 OFFCURVE",
"166 619 OFFCURVE",
"166 462 CURVE SMOOTH"
);
},
{
closed = 1;
nodes = (
"815 1549 LINE SMOOTH",
"801 1564 OFFCURVE",
"792 1584 OFFCURVE",
"792 1607 CURVE SMOOTH",
"792 1651 OFFCURVE",
"827 1687 OFFCURVE",
"873 1687 CURVE SMOOTH",
"894 1687 OFFCURVE",
"913 1679 OFFCURVE",
"930 1664 CURVE",
"985 1603 LINE",
"1002 1589 OFFCURVE",
"1010 1571 OFFCURVE",
"1010 1548 CURVE SMOOTH",
"1010 1502 OFFCURVE",
"972 1466 OFFCURVE",
"935 1466 CURVE",
"917 1464 OFFCURVE",
"897 1473 OFFCURVE",
"876 1489 CURVE"
);
},
{
closed = 1;
nodes = (
"1371 1114 OFFCURVE",
"1424 1023 OFFCURVE",
"1448 920 CURVE",
"1478 920 LINE SMOOTH",
"1605 920 OFFCURVE",
"1713 875 OFFCURVE",
"1803 786 CURVE",
"1834 840 OFFCURVE",
"1851 897 OFFCURVE",
"1851 957 CURVE SMOOTH",
"1851 1142 OFFCURVE",
"1704 1288 OFFCURVE",
"1519 1288 CURVE SMOOTH",
"1432 1288 OFFCURVE",
"1357 1257 OFFCURVE",
"1291 1194 CURVE"
);
},
{
closed = 1;
nodes = (
"1442 1878 LINE SMOOTH",
"1442 1922 OFFCURVE",
"1475 1955 OFFCURVE",
"1519 1955 CURVE SMOOTH",
"1566 1955 OFFCURVE",
"1599 1922 OFFCURVE",
"1599 1878 CURVE SMOOTH",
"1599 1687 LINE SMOOTH",
"1599 1639 OFFCURVE",
"1566 1607 OFFCURVE",
"1519 1607 CURVE SMOOTH",
"1475 1607 OFFCURVE",
"1442 1639 OFFCURVE",
"1442 1687 CURVE SMOOTH"
);
},
{
closed = 1;
nodes = (
"1964 1430 OFFCURVE",
"1957 1450 OFFCURVE",
"1957 1473 CURVE SMOOTH",
"1957 1494 OFFCURVE",
"1964 1513 OFFCURVE",
"1978 1530 CURVE",
"2116 1664 LINE SMOOTH",
"2130 1679 OFFCURVE",
"2148 1687 OFFCURVE",
"2170 1687 CURVE SMOOTH",
"2214 1687 OFFCURVE",
"2248 1652 OFFCURVE",
"2248 1608 CURVE SMOOTH",
"2248 1585 OFFCURVE",
"2240 1566 OFFCURVE",
"2225 1549 CURVE",
"2091 1415 LINE",
"2073 1401 OFFCURVE",
"2054 1392 OFFCURVE",
"2036 1392 CURVE SMOOTH",
"2016 1392 OFFCURVE",
"1996 1401 OFFCURVE",
"1978 1415 CURVE"
);
},
{
closed = 1;
nodes = (
"2055 310 LINE",
"2040 326 OFFCURVE",
"2032 346 OFFCURVE",
"2032 368 CURVE SMOOTH",
"2032 413 OFFCURVE",
"2067 447 OFFCURVE",
"2111 447 CURVE SMOOTH",
"2132 447 OFFCURVE",
"2150 439 OFFCURVE",
"2165 424 CURVE SMOOTH",
"2225 364 LINE SMOOTH",
"2240 349 OFFCURVE",
"2248 331 OFFCURVE",
"2248 310 CURVE SMOOTH",
"2248 264 OFFCURVE",
"2214 228 OFFCURVE",
"2170 228 CURVE SMOOTH",
"2148 228 OFFCURVE",
"2130 236 OFFCURVE",
"2116 251 CURVE SMOOTH"
);
},
{
closed = 1;
nodes = (
"2176 918 OFFCURVE",
"2168 936 OFFCURVE",
"2168 957 CURVE SMOOTH",
"2168 1001 OFFCURVE",
"2206 1037 OFFCURVE",
"2250 1037 CURVE SMOOTH",
"2440 1037 LINE SMOOTH",
"2484 1037 OFFCURVE",
"2516 1001 OFFCURVE",
"2516 957 CURVE SMOOTH",
"2516 913 OFFCURVE",
"2484 880 OFFCURVE",
"2440 880 CURVE SMOOTH",
"2250 880 LINE SMOOTH",
"2227 880 OFFCURVE",
"2207 889 OFFCURVE",
"2193 903 CURVE"
);
}
);
width = 2230;
}
);
unicode = F002;
},
{
glyphname = "day-cloudy-windy";
lastChange = "2013-07-01 02:02:26 -0700";
layers = (
{
layerId = "1E718338-5C3C-490C-A197-65E7F37A33B6";
name = "Regular";
paths = (
{
closed = 1;
nodes = (
"-563 40 OFFCURVE",
"-571 60 OFFCURVE",
"-571 82 CURVE SMOOTH",
"-571 127 OFFCURVE",
"-511 158 OFFCURVE",
"-466 158 CURVE SMOOTH",
"619 158 LINE SMOOTH",
"664 158 OFFCURVE",
"699 125 OFFCURVE",
"699 81 CURVE SMOOTH",
"699 36 OFFCURVE",
"664 0 OFFCURVE",
"619 0 CURVE SMOOTH",
"-466 0 LINE SMOOTH",
"-488 0 OFFCURVE",
"-508 8 OFFCURVE",
"-548 25 CURVE"
);
},
{
closed = 1;
nodes = (
"-432 321 OFFCURVE",
"-441 341 OFFCURVE",
"-441 362 CURVE SMOOTH",
"-441 407 OFFCURVE",
"-407 443 OFFCURVE",
"-363 443 CURVE SMOOTH",
"865 443 LINE SMOOTH",
"910 443 OFFCURVE",
"945 407 OFFCURVE",
"945 362 CURVE SMOOTH",
"945 318 OFFCURVE",
"910 283 OFFCURVE",
"865 283 CURVE SMOOTH",
"-363 283 LINE SMOOTH",
"-385 283 OFFCURVE",
"-403 290 OFFCURVE",
"-417 307 CURVE"
);
},
{
closed = 1;
nodes = (
"-268 -256 OFFCURVE",
"-276 -235 OFFCURVE",
"-276 -215 CURVE SMOOTH",
"-276 -169 OFFCURVE",
"-241 -134 OFFCURVE",
"-197 -134 CURVE SMOOTH",
"1032 -134 LINE SMOOTH",
"1076 -134 OFFCURVE",
"1110 -169 OFFCURVE",
"1110 -215 CURVE SMOOTH",
"1110 -258 OFFCURVE",
"1076 -294 OFFCURVE",
"1032 -294 CURVE SMOOTH",
"-197 -294 LINE SMOOTH",
"-217 -294 OFFCURVE",
"-237 -286 OFFCURVE",
"-252 -270 CURVE"
);
},
{
closed = 1;
nodes = (
"56 748 OFFCURVE",
"186 874 OFFCURVE",
"345 913 CURVE",
"401 1167 OFFCURVE",
"627 1348 OFFCURVE",
"891 1348 CURVE SMOOTH",
"983 1348 OFFCURVE",
"1066 1328 OFFCURVE",
"1143 1288 CURVE",
"1234 1387 OFFCURVE",
"1364 1446 OFFCURVE",
"1501 1446 CURVE SMOOTH",
"1770 1446 OFFCURVE",
"1992 1225 OFFCURVE",
"1992 957 CURVE SMOOTH",
"1992 842 OFFCURVE",
"1955 740 OFFCURVE",
"1883 651 CURVE",
"1912 590 OFFCURVE",
"1924 528 OFFCURVE",
"1924 464 CURVE SMOOTH",
"1924 208 OFFCURVE",
"1716 0 OFFCURVE",
"1460 0 CURVE SMOOTH",
"817 0 LINE SMOOTH",
"806 0 OFFCURVE",
"801 6 OFFCURVE",
"801 17 CURVE SMOOTH",
"801 141 LINE SMOOTH",
"801 153 OFFCURVE",
"806 158 OFFCURVE",
"817 158 CURVE SMOOTH",
"1460 158 LINE SMOOTH",
"1626 158 OFFCURVE",
"1765 295 OFFCURVE",
"1765 464 CURVE SMOOTH",
"1765 627 OFFCURVE",
"1626 765 OFFCURVE",
"1460 765 CURVE SMOOTH",
"1310 765 LINE SMOOTH",
"1299 765 OFFCURVE",
"1294 770 OFFCURVE",
"1294 782 CURVE",
"1287 835 LINE SMOOTH",
"1266 1037 OFFCURVE",
"1093 1191 OFFCURVE",
"891 1191 CURVE SMOOTH",
"686 1191 OFFCURVE",
"514 1037 OFFCURVE",
"495 835 CURVE SMOOTH",
"488 782 LINE",
"488 770 OFFCURVE",
"484 765 OFFCURVE",
"473 765 CURVE SMOOTH",
"422 765 LINE",
"311 752 OFFCURVE",
"220 682 OFFCURVE",
"173 584 CURVE",
"170 575 OFFCURVE",
"161 571 OFFCURVE",
"153 571 CURVE SMOOTH",
"23 571 LINE SMOOTH",
"11 571 OFFCURVE",
"7 575 OFFCURVE",
"7 584 CURVE SMOOTH",
"7 585 OFFCURVE",
"7 588 OFFCURVE",
"9 590 CURVE"
);
},
{
closed = 1;
nodes = (
"795 1550 LINE SMOOTH",
"780 1564 OFFCURVE",
"772 1584 OFFCURVE",
"772 1606 CURVE SMOOTH",
"772 1649 OFFCURVE",
"807 1684 OFFCURVE",
"854 1684 CURVE SMOOTH",
"874 1684 OFFCURVE",
"893 1676 OFFCURVE",
"908 1661 CURVE SMOOTH",
"968 1600 LINE SMOOTH",
"983 1585 OFFCURVE",
"991 1567 OFFCURVE",
"991 1545 CURVE SMOOTH",
"991 1498 OFFCURVE",
"957 1466 OFFCURVE",
"910 1466 CURVE SMOOTH",
"887 1466 OFFCURVE",
"868 1474 OFFCURVE",
"854 1488 CURVE SMOOTH"
);
},
{
closed = 1;
nodes = (
"1353 1120 OFFCURVE",
"1405 1029 OFFCURVE",
"1432 921 CURVE",
"1460 921 LINE SMOOTH",
"1588 921 OFFCURVE",
"1697 878 OFFCURVE",
"1786 788 CURVE",
"1814 837 OFFCURVE",
"1829 893 OFFCURVE",
"1829 957 CURVE SMOOTH",
"1829 1138 OFFCURVE",
"1684 1285 OFFCURVE",
"1501 1285 CURVE SMOOTH",
"1411 1285 OFFCURVE",
"1333 1255 OFFCURVE",
"1273 1197 CURVE"
);
},
{
closed = 1;
nodes = (
"1422 1875 LINE SMOOTH",
"1422 1920 OFFCURVE",
"1458 1956 OFFCURVE",
"1501 1956 CURVE SMOOTH",
"1547 1956 OFFCURVE",
"1579 1920 OFFCURVE",
"1579 1875 CURVE SMOOTH",
"1579 1684 LINE SMOOTH",
"1579 1639 OFFCURVE",
"1547 1607 OFFCURVE",
"1501 1607 CURVE SMOOTH",
"1458 1607 OFFCURVE",
"1422 1639 OFFCURVE",
"1422 1684 CURVE SMOOTH"
);
},
{
closed = 1;
nodes = (
"1945 1430 OFFCURVE",
"1938 1449 OFFCURVE",
"1938 1471 CURVE SMOOTH",
"1938 1492 OFFCURVE",
"1945 1511 OFFCURVE",
"1961 1526 CURVE SMOOTH",
"2095 1664 LINE SMOOTH",
"2110 1678 OFFCURVE",
"2129 1686 OFFCURVE",
"2152 1686 CURVE SMOOTH",
"2196 1686 OFFCURVE",
"2232 1651 OFFCURVE",
"2232 1607 CURVE SMOOTH",
"2232 1584 OFFCURVE",
"2224 1564 OFFCURVE",
"2209 1550 CURVE SMOOTH",
"2072 1415 LINE",
"2061 1400 OFFCURVE",
"2042 1392 OFFCURVE",
"2017 1392 CURVE SMOOTH",
"1992 1392 OFFCURVE",
"1972 1400 OFFCURVE",
"1961 1415 CURVE"
);
},
{
closed = 1;
nodes = (
"2034 308 LINE SMOOTH",
"2019 323 OFFCURVE",
"2012 343 OFFCURVE",
"2012 364 CURVE SMOOTH",
"2012 409 OFFCURVE",
"2044 444 OFFCURVE",
"2089 444 CURVE SMOOTH",
"2112 444 OFFCURVE",
"2132 435 OFFCURVE",
"2149 419 CURVE SMOOTH",
"2209 362 LINE",
"2224 346 OFFCURVE",
"2232 326 OFFCURVE",
"2232 305 CURVE SMOOTH",
"2232 284 OFFCURVE",
"2224 264 OFFCURVE",
"2209 249 CURVE",
"2188 233 OFFCURVE",
"2170 224 OFFCURVE",
"2152 224 CURVE SMOOTH",
"2134 224 OFFCURVE",
"2116 233 OFFCURVE",
"2095 249 CURVE"
);
},
{
closed = 1;
nodes = (
"2418 1028 LINE SMOOTH",
"2460 1028 OFFCURVE",
"2496 997 OFFCURVE",
"2496 954 CURVE SMOOTH",
"2496 909 OFFCURVE",
"2460 873 OFFCURVE",
"2418 873 CURVE SMOOTH",
"2228 873 LINE SMOOTH",
"2208 873 OFFCURVE",
"2189 881 OFFCURVE",
"2172 897 CURVE SMOOTH",
"2155 912 OFFCURVE",
"2147 932 OFFCURVE",
"2147 954 CURVE SMOOTH",
"2147 997 OFFCURVE",
"2183 1028 OFFCURVE",
"2228 1028 CURVE SMOOTH"
);
}
);
width = 2230;
}
);
unicode = F001;
},
{
glyphname = "day-fog";
lastChange = "2013-07-01 02:07:41 -0700";
layers = (
{
layerId = "1E718338-5C3C-490C-A197-65E7F37A33B6";
name = "Regular";
paths = (
{
closed = 1;
nodes = (
"-254 119 OFFCURVE",
"-218 154 OFFCURVE",
"-172 154 CURVE SMOOTH",
"1575 154 LINE SMOOTH",
"1620 154 OFFCURVE",
"1655 119 OFFCURVE",
"1655 74 CURVE SMOOTH",
"1655 30 OFFCURVE",
"1619 -3 OFFCURVE",
"1575 -3 CURVE SMOOTH",
"-172 -3 LINE SMOOTH",
"-218 -3 OFFCURVE",
"-254 30 OFFCURVE",
"-254 74 CURVE SMOOTH"
);
},
{
closed = 1;
nodes = (
"-1 327 OFFCURVE",
"-9 346 OFFCURVE",
"-9 367 CURVE SMOOTH",
"-9 411 OFFCURVE",
"27 444 OFFCURVE",
"71 444 CURVE SMOOTH",
"1818 444 LINE SMOOTH",
"1862 444 OFFCURVE",
"1895 411 OFFCURVE",
"1895 367 CURVE SMOOTH",
"1895 323 OFFCURVE",
"1862 287 OFFCURVE",
"1818 287 CURVE SMOOTH",
"71 287 LINE SMOOTH",
"50 287 OFFCURVE",
"30 296 OFFCURVE",
"15 312 CURVE"
);
},
{
closed = 1;
nodes = (
"61 764 OFFCURVE",
"172 868 OFFCURVE",
"338 912 CURVE",
"395 1167 OFFCURVE",
"621 1349 OFFCURVE",
"883 1349 CURVE SMOOTH",
"970 1349 OFFCURVE",
"1053 1330 OFFCURVE",
"1133 1291 CURVE",
"1227 1395 OFFCURVE",
"1346 1447 OFFCURVE",
"1490 1447 CURVE SMOOTH",
"1762 1447 OFFCURVE",
"1978 1229 OFFCURVE",
"1978 960 CURVE SMOOTH",
"1978 840 OFFCURVE",
"1942 738 OFFCURVE",
"1872 651 CURVE",
"1891 599 LINE",
"1895 584 OFFCURVE",
"1890 578 OFFCURVE",
"1878 578 CURVE SMOOTH",
"1744 578 LINE SMOOTH",
"1738 578 OFFCURVE",
"1731 583 OFFCURVE",
"1725 593 CURVE",
"1678 697 OFFCURVE",
"1573 769 OFFCURVE",
"1451 769 CURVE SMOOTH",
"1301 769 LINE SMOOTH",
"1289 769 OFFCURVE",
"1283 774 OFFCURVE",
"1283 785 CURVE",
"1276 839 LINE SMOOTH",
"1255 1039 OFFCURVE",
"1084 1190 OFFCURVE",
"883 1190 CURVE SMOOTH",
"679 1190 OFFCURVE",
"508 1038 OFFCURVE",
"488 836 CURVE",
"482 788 LINE",
"482 777 OFFCURVE",
"477 772 OFFCURVE",
"466 772 CURVE",
"415 765 LINE",
"309 757 OFFCURVE",
"214 689 OFFCURVE",
"170 593 CURVE",
"164 583 OFFCURVE",
"157 578 OFFCURVE",
"151 578 CURVE SMOOTH",
"17 578 LINE SMOOTH",
"7 578 OFFCURVE",
"2 583 OFFCURVE",
"2 591 CURVE SMOOTH",
"2 593 OFFCURVE",
"2 596 OFFCURVE",
"4 599 CURVE"
);
},
{
closed = 1;
nodes = (
"162 -254 OFFCURVE",
"154 -234 OFFCURVE",
"154 -213 CURVE SMOOTH",
"154 -169 OFFCURVE",
"190 -137 OFFCURVE",
"234 -137 CURVE SMOOTH",
"1983 -137 LINE SMOOTH",
"2027 -137 OFFCURVE",
"2063 -169 OFFCURVE",
"2063 -213 CURVE SMOOTH",
"2063 -257 OFFCURVE",
"2027 -293 OFFCURVE",
"1983 -293 CURVE SMOOTH",
"234 -293 LINE SMOOTH",
"213 -293 OFFCURVE",
"193 -285 OFFCURVE",
"179 -269 CURVE"
);
},
{
closed = 1;
nodes = (
"789 1550 LINE SMOOTH",
"774 1565 OFFCURVE",
"767 1584 OFFCURVE",
"767 1605 CURVE SMOOTH",
"767 1650 OFFCURVE",
"798 1685 OFFCURVE",
"844 1685 CURVE SMOOTH",
"867 1685 OFFCURVE",
"885 1677 OFFCURVE",
"900 1661 CURVE",
"960 1604 LINE",
"975 1588 OFFCURVE",
"983 1568 OFFCURVE",
"983 1545 CURVE SMOOTH",
"983 1499 OFFCURVE",
"945 1465 OFFCURVE",
"904 1465 CURVE SMOOTH",
"883 1465 OFFCURVE",
"865 1473 OFFCURVE",
"849 1490 CURVE SMOOTH"
);
},
{
closed = 1;
nodes = (
"1342 1124 OFFCURVE",
"1394 1035 OFFCURVE",
"1420 925 CURVE",
"1451 925 LINE SMOOTH",
"1578 925 OFFCURVE",
"1686 881 OFFCURVE",
"1775 792 CURVE",
"1806 844 OFFCURVE",
"1821 899 OFFCURVE",
"1821 960 CURVE SMOOTH",
"1821 1142 OFFCURVE",
"1673 1291 OFFCURVE",
"1490 1291 CURVE SMOOTH",
"1402 1291 OFFCURVE",
"1327 1260 OFFCURVE",
"1263 1196 CURVE"
);
},
{
closed = 1;
nodes = (
"1413 1875 LINE SMOOTH",
"1413 1919 OFFCURVE",
"1446 1955 OFFCURVE",
"1490 1955 CURVE SMOOTH",
"1534 1955 OFFCURVE",
"1572 1919 OFFCURVE",
"1572 1875 CURVE SMOOTH",
"1572 1684 LINE SMOOTH",
"1572 1640 OFFCURVE",
"1536 1607 OFFCURVE",
"1490 1607 CURVE SMOOTH",
"1446 1607 OFFCURVE",
"1413 1640 OFFCURVE",
"1413 1684 CURVE SMOOTH"
);
},
{
closed = 1;
nodes = (
"1934 1431 OFFCURVE",
"1926 1451 OFFCURVE",
"1926 1472 CURVE SMOOTH",
"1926 1493 OFFCURVE",
"1934 1512 OFFCURVE",
"1948 1527 CURVE SMOOTH",
"2085 1664 LINE SMOOTH",
"2100 1679 OFFCURVE",
"2120 1687 OFFCURVE",
"2141 1687 CURVE SMOOTH",
"2185 1687 OFFCURVE",
"2219 1653 OFFCURVE",
"2219 1609 CURVE SMOOTH",
"2219 1586 OFFCURVE",
"2211 1566 OFFCURVE",
"2196 1550 CURVE",
"2063 1416 LINE",
"2017 1379 OFFCURVE",
"1976 1389 OFFCURVE",
"1948 1416 CURVE SMOOTH"
);
},
{
closed = 1;
nodes = (
"2025 315 LINE",
"2009 330 OFFCURVE",
"2001 349 OFFCURVE",
"2001 371 CURVE SMOOTH",
"2001 415 OFFCURVE",
"2035 451 OFFCURVE",
"2080 451 CURVE SMOOTH",
"2103 451 OFFCURVE",
"2121 442 OFFCURVE",
"2136 428 CURVE SMOOTH",
"2196 367 LINE SMOOTH",
"2211 353 OFFCURVE",
"2219 335 OFFCURVE",
"2219 314 CURVE SMOOTH",
"2219 291 OFFCURVE",
"2211 271 OFFCURVE",
"2196 255 CURVE",
"2178 240 OFFCURVE",
"2159 232 OFFCURVE",
"2139 232 CURVE SMOOTH",
"2118 232 OFFCURVE",
"2100 240 OFFCURVE",
"2085 255 CURVE SMOOTH"
);
},
{
closed = 1;
nodes = (
"2147 919 OFFCURVE",
"2139 938 OFFCURVE",
"2139 960 CURVE SMOOTH",
"2139 1004 OFFCURVE",
"2175 1039 OFFCURVE",
"2219 1039 CURVE SMOOTH",
"2410 1039 LINE SMOOTH",
"2454 1039 OFFCURVE",
"2487 1004 OFFCURVE",
"2487 960 CURVE SMOOTH",
"2487 915 OFFCURVE",
"2454 880 OFFCURVE",
"2410 880 CURVE SMOOTH",
"2219 880 LINE SMOOTH",
"2198 880 OFFCURVE",
"2178 888 OFFCURVE",
"2164 904 CURVE"
);
}
);
width = 2230;
}
);
unicode = F003;
},
{
glyphname = "day-hail";
lastChange = "2013-07-01 02:08:34 -0700";
layers = (
{
layerId = "1E718338-5C3C-490C-A197-65E7F37A33B6";
name = "Regular";
paths = (
{
closed = 1;
nodes = (
"1 681 OFFCURVE",
"152 866 OFFCURVE",
"357 914 CURVE",
"415 1169 OFFCURVE",
"642 1351 OFFCURVE",
"906 1351 CURVE SMOOTH",
"998 1351 OFFCURVE",
"1082 1332 OFFCURVE",
"1159 1290 CURVE",
"1256 1399 OFFCURVE",
"1378 1453 OFFCURVE",
"1523 1453 CURVE SMOOTH",
"1792 1453 OFFCURVE",
"2014 1231 OFFCURVE",
"2014 962 CURVE SMOOTH",
"2014 845 OFFCURVE",
"1978 742 OFFCURVE",
"1904 651 CURVE",
"1930 594 OFFCURVE",
"1943 531 OFFCURVE",
"1943 464 CURVE SMOOTH",
"1943 214 OFFCURVE",
"1746 7 OFFCURVE",
"1496 -1 CURVE SMOOTH",
"1485 -1 OFFCURVE",
"1478 4 OFFCURVE",
"1478 15 CURVE SMOOTH",
"1478 140 LINE SMOOTH",
"1478 152 OFFCURVE",
"1485 157 OFFCURVE",
"1496 157 CURVE",
"1656 165 OFFCURVE",
"1786 301 OFFCURVE",
"1786 464 CURVE SMOOTH",
"1786 628 OFFCURVE",
"1644 766 OFFCURVE",
"1478 766 CURVE SMOOTH",
"1327 766 LINE SMOOTH",
"1315 766 OFFCURVE",
"1311 771 OFFCURVE",
"1311 783 CURVE",
"1304 837 LINE SMOOTH",
"1283 1039 OFFCURVE",
"1108 1193 OFFCURVE",
"906 1193 CURVE SMOOTH",
"701 1193 OFFCURVE",
"530 1039 OFFCURVE",
"510 837 CURVE SMOOTH",
"504 786 LINE",
"504 774 OFFCURVE",
"497 769 OFFCURVE",
"486 769 CURVE",
"436 766 LINE",
"280 748 OFFCURVE",
"160 620 OFFCURVE",
"160 464 CURVE SMOOTH",
"160 301 OFFCURVE",
"290 165 OFFCURVE",
"449 157 CURVE",
"461 157 OFFCURVE",
"466 152 OFFCURVE",
"466 140 CURVE SMOOTH",
"466 15 LINE SMOOTH",
"466 4 OFFCURVE",
"461 -1 OFFCURVE",
"449 -1 CURVE",
"200 10 OFFCURVE",
"1 214 OFFCURVE",
"1 464 CURVE SMOOTH"
);
},
{
closed = 1;
nodes = (
"471 -314 OFFCURVE",
"468 -294 OFFCURVE",
"479 -274 CURVE",
"497 -233 OFFCURVE",
"543 -213 OFFCURVE",
"581 -233 CURVE",
"620 -248 OFFCURVE",
"638 -294 OFFCURVE",
"620 -335 CURVE",
"606 -374 OFFCURVE",
"558 -392 OFFCURVE",
"520 -374 CURVE",
"500 -366 OFFCURVE",
"486 -351 OFFCURVE",
"477 -332 CURVE"
);
},
{
closed = 1;
nodes = (
"658 396 LINE",
"671 438 OFFCURVE",
"714 462 OFFCURVE",
"755 449 CURVE",
"799 441 OFFCURVE",
"824 398 OFFCURVE",
"813 352 CURVE SMOOTH",
"694 -85 LINE SMOOTH",
"683 -126 OFFCURVE",
"661 -146 OFFCURVE",
"629 -146 CURVE SMOOTH",
"609 -146 OFFCURVE",
"568 -138 OFFCURVE",
"546 -103 CURVE",
"540 -92 OFFCURVE",
"537 -80 OFFCURVE",
"537 -67 CURVE SMOOTH",
"537 -59 OFFCURVE",
"538 -51 OFFCURVE",
"540 -42 CURVE"
);
},
{
closed = 1;
nodes = (
"712 -609 OFFCURVE",
"711 -599 OFFCURVE",
"711 -591 CURVE SMOOTH",
"711 -570 OFFCURVE",
"722 -532 OFFCURVE",
"762 -516 CURVE SMOOTH",
"801 -499 OFFCURVE",
"844 -517 OFFCURVE",
"862 -558 CURVE SMOOTH",
"880 -599 OFFCURVE",
"859 -647 OFFCURVE",
"818 -662 CURVE SMOOTH",
"808 -665 OFFCURVE",
"798 -667 OFFCURVE",
"790 -667 CURVE SMOOTH",
"778 -667 OFFCURVE",
"768 -665 OFFCURVE",
"758 -660 CURVE",
"737 -652 OFFCURVE",
"724 -637 OFFCURVE",
"716 -618 CURVE SMOOTH"
);
},
{
closed = 1;
nodes = (
"977 396 LINE SMOOTH",
"988 438 OFFCURVE",
"1031 462 OFFCURVE",
"1076 449 CURVE SMOOTH",
"1117 438 OFFCURVE",
"1141 396 OFFCURVE",
"1128 352 CURVE SMOOTH",
"938 -358 LINE SMOOTH",
"931 -386 OFFCURVE",
"918 -404 OFFCURVE",
"898 -412 CURVE SMOOTH",
"887 -417 OFFCURVE",
"875 -419 OFFCURVE",
"862 -419 CURVE SMOOTH",
"854 -419 OFFCURVE",
"847 -417 OFFCURVE",
"839 -415 CURVE",
"795 -402 OFFCURVE",
"780 -366 OFFCURVE",
"780 -340 CURVE SMOOTH",
"780 -333 OFFCURVE",
"781 -327 OFFCURVE",
"783 -318 CURVE"
);
},
{
closed = 1;
nodes = (
"813 1557 LINE SMOOTH",
"798 1571 OFFCURVE",
"790 1591 OFFCURVE",
"790 1613 CURVE SMOOTH",
"790 1657 OFFCURVE",
"824 1691 OFFCURVE",
"870 1691 CURVE SMOOTH",
"891 1691 OFFCURVE",
"911 1683 OFFCURVE",
"928 1668 CURVE",
"987 1608 LINE SMOOTH",
"1002 1593 OFFCURVE",
"1010 1575 OFFCURVE",
"1010 1552 CURVE SMOOTH",
"1010 1506 OFFCURVE",
"962 1466 OFFCURVE",
"924 1471 CURVE",
"905 1473 OFFCURVE",
"888 1481 OFFCURVE",
"873 1496 CURVE SMOOTH"
);
},
{
closed = 1;
nodes = (
"1103 -323 OFFCURVE",
"1102 -314 OFFCURVE",
"1102 -304 CURVE SMOOTH",
"1102 -294 OFFCURVE",
"1103 -284 OFFCURVE",
"1108 -274 CURVE",
"1127 -233 OFFCURVE",
"1173 -213 OFFCURVE",
"1214 -233 CURVE SMOOTH",
"1251 -251 OFFCURVE",
"1268 -294 OFFCURVE",
"1253 -335 CURVE",
"1245 -355 OFFCURVE",
"1230 -368 OFFCURVE",
"1210 -376 CURVE",
"1200 -379 OFFCURVE",
"1191 -381 OFFCURVE",
"1182 -381 CURVE SMOOTH",
"1171 -381 OFFCURVE",
"1161 -379 OFFCURVE",
"1150 -374 CURVE SMOOTH",
"1131 -366 OFFCURVE",
"1117 -353 OFFCURVE",
"1108 -333 CURVE"
);
},
{
closed = 1;
nodes = (
"1291 396 LINE SMOOTH",
"1302 438 OFFCURVE",
"1343 462 OFFCURVE",
"1388 449 CURVE SMOOTH",
"1429 438 OFFCURVE",
"1455 396 OFFCURVE",
"1442 352 CURVE SMOOTH",
"1324 -82 LINE SMOOTH",
"1312 -128 OFFCURVE",
"1276 -139 OFFCURVE",
"1250 -139 CURVE SMOOTH",
"1242 -139 OFFCURVE",
"1235 -138 OFFCURVE",
"1227 -136 CURVE",
"1186 -123 OFFCURVE",
"1169 -90 OFFCURVE",
"1169 -64 CURVE SMOOTH",
"1169 -55 OFFCURVE",
"1171 -47 OFFCURVE",
"1173 -39 CURVE"
);
},
{
closed = 1;
nodes = (
"1370 1124 OFFCURVE",
"1422 1032 OFFCURVE",
"1449 924 CURVE",
"1478 924 LINE SMOOTH",
"1606 924 OFFCURVE",
"1715 880 OFFCURVE",
"1805 789 CURVE",
"1836 843 OFFCURVE",
"1853 901 OFFCURVE",
"1853 962 CURVE SMOOTH",
"1853 1144 OFFCURVE",
"1705 1290 OFFCURVE",
"1523 1290 CURVE SMOOTH",
"1432 1290 OFFCURVE",
"1355 1261 OFFCURVE",
"1291 1200 CURVE"
);
},
{
closed = 1;
nodes = (
"1442 1884 LINE SMOOTH",
"1442 1928 OFFCURVE",
"1478 1964 OFFCURVE",
"1523 1964 CURVE SMOOTH",
"1567 1964 OFFCURVE",
"1600 1928 OFFCURVE",
"1600 1884 CURVE SMOOTH",
"1600 1691 LINE SMOOTH",
"1600 1647 OFFCURVE",
"1567 1611 OFFCURVE",
"1523 1611 CURVE SMOOTH",
"1478 1611 OFFCURVE",
"1442 1647 OFFCURVE",
"1442 1691 CURVE SMOOTH"
);
},
{
closed = 1;
nodes = (
"1968 1437 OFFCURVE",
"1960 1455 OFFCURVE",
"1960 1478 CURVE SMOOTH",
"1960 1499 OFFCURVE",
"1968 1519 OFFCURVE",
"1984 1534 CURVE",
"2119 1668 LINE",
"2134 1685 OFFCURVE",
"2152 1693 OFFCURVE",
"2173 1693 CURVE SMOOTH",
"2218 1693 OFFCURVE",
"2254 1657 OFFCURVE",
"2254 1613 CURVE SMOOTH",
"2254 1591 OFFCURVE",
"2246 1571 OFFCURVE",
"2229 1557 CURVE",
"2094 1422 LINE SMOOTH",
"2063 1391 OFFCURVE",
"2011 1389 OFFCURVE",
"1984 1422 CURVE"
);
},
{
closed = 1;
nodes = (
"2058 311 LINE SMOOTH",
"2044 326 OFFCURVE",
"2035 345 OFFCURVE",
"2035 367 CURVE SMOOTH",
"2035 411 OFFCURVE",
"2070 447 OFFCURVE",
"2114 447 CURVE SMOOTH",
"2136 447 OFFCURVE",
"2154 439 OFFCURVE",
"2168 423 CURVE",
"2229 365 LINE SMOOTH",
"2246 349 OFFCURVE",
"2254 329 OFFCURVE",
"2254 308 CURVE SMOOTH",
"2254 285 OFFCURVE",
"2246 267 OFFCURVE",
"2229 252 CURVE",
"2216 235 OFFCURVE",
"2198 227 OFFCURVE",
"2175 227 CURVE SMOOTH",
"2150 227 OFFCURVE",
"2132 235 OFFCURVE",
"2119 252 CURVE"
);
},
{
closed = 1;
nodes = (
"2180 921 OFFCURVE",
"2172 940 OFFCURVE",
"2172 962 CURVE SMOOTH",
"2172 1006 OFFCURVE",
"2208 1039 OFFCURVE",
"2254 1039 CURVE SMOOTH",
"2444 1039 LINE SMOOTH",
"2489 1039 OFFCURVE",
"2525 1006 OFFCURVE",
"2525 962 CURVE SMOOTH",
"2525 917 OFFCURVE",
"2489 881 OFFCURVE",
"2444 881 CURVE SMOOTH",
"2254 881 LINE SMOOTH",
"2233 881 OFFCURVE",
"2213 889 OFFCURVE",
"2196 906 CURVE"
);
}
);
width = 2230;
}
);
unicode = F004;
},
{
glyphname = "day-lightning";
lastChange = "2013-07-01 02:09:36 -0700";
layers = (
{
layerId = "1E718338-5C3C-490C-A197-65E7F37A33B6";
name = "Regular";
paths = (
{
closed = 1;
nodes = (
"4 678 OFFCURVE",
"155 863 OFFCURVE",
"359 910 CURVE",
"416 1166 OFFCURVE",
"642 1346 OFFCURVE",
"906 1346 CURVE SMOOTH",
"992 1346 OFFCURVE",
"1076 1326 OFFCURVE",
"1154 1288 CURVE",
"1251 1396 OFFCURVE",
"1372 1450 OFFCURVE",
"1516 1450 CURVE SMOOTH",
"1785 1450 OFFCURVE",
"2005 1231 OFFCURVE",
"2005 961 CURVE SMOOTH",
"2005 845 OFFCURVE",
"1968 743 OFFCURVE",
"1894 655 CURVE",
"1924 588 OFFCURVE",
"1938 522 OFFCURVE",
"1938 462 CURVE SMOOTH",
"1938 213 OFFCURVE",
"1742 7 OFFCURVE",
"1493 -1 CURVE SMOOTH",
"1482 -1 OFFCURVE",
"1475 4 OFFCURVE",
"1475 15 CURVE SMOOTH",
"1475 143 LINE SMOOTH",
"1475 154 OFFCURVE",
"1482 159 OFFCURVE",
"1493 159 CURVE",
"1655 171 OFFCURVE",
"1781 303 OFFCURVE",
"1781 462 CURVE SMOOTH",
"1781 627 OFFCURVE",
"1644 763 OFFCURVE",
"1475 763 CURVE SMOOTH",
"1325 763 LINE SMOOTH",
"1313 763 OFFCURVE",
"1308 768 OFFCURVE",
"1308 779 CURVE",
"1302 833 LINE SMOOTH",
"1280 1036 OFFCURVE",
"1109 1188 OFFCURVE",
"906 1188 CURVE SMOOTH",
"701 1188 OFFCURVE",
"531 1035 OFFCURVE",
"511 833 CURVE",
"505 786 LINE",
"505 774 OFFCURVE",
"498 770 OFFCURVE",
"487 770 CURVE",
"438 763 LINE",
"282 750 OFFCURVE",
"163 619 OFFCURVE",
"163 462 CURVE SMOOTH",
"163 303 OFFCURVE",
"289 171 OFFCURVE",
"451 159 CURVE",
"462 159 OFFCURVE",
"467 154 OFFCURVE",
"467 143 CURVE SMOOTH",
"467 15 LINE SMOOTH",
"467 4 OFFCURVE",
"462 -1 OFFCURVE",
"451 -1 CURVE",
"202 10 OFFCURVE",
"4 213 OFFCURVE",
"4 462 CURVE SMOOTH"
);
},
{
closed = 1;
nodes = (
"704 -590 LINE",
"934 9 LINE",
"732 9 LINE SMOOTH",
"721 9 OFFCURVE",
"716 15 OFFCURVE",
"719 28 CURVE",
"920 562 LINE",
"925 570 OFFCURVE",
"932 575 OFFCURVE",
"940 575 CURVE SMOOTH",
"1215 575 LINE SMOOTH",
"1230 575 OFFCURVE",
"1235 568 OFFCURVE",
"1228 555 CURVE",
"1014 162 LINE",
"1218 162 LINE SMOOTH",
"1231 162 OFFCURVE",
"1235 151 OFFCURVE",
"1228 143 CURVE",
"732 -590 LINE"
);
},
{
closed = 1;
nodes = (
"809 1553 LINE SMOOTH",
"794 1568 OFFCURVE",
"786 1588 OFFCURVE",
"786 1611 CURVE SMOOTH",
"786 1655 OFFCURVE",
"822 1691 OFFCURVE",
"866 1691 CURVE SMOOTH",
"888 1691 OFFCURVE",
"907 1683 OFFCURVE",
"924 1668 CURVE",
"983 1607 LINE SMOOTH",
"997 1593 OFFCURVE",
"1006 1575 OFFCURVE",
"1006 1552 CURVE SMOOTH",
"1006 1529 OFFCURVE",
"997 1509 OFFCURVE",
"983 1493 CURVE",
"945 1462 OFFCURVE",
"907 1465 OFFCURVE",
"870 1493 CURVE"
);
},
{
closed = 1;
nodes = (
"1367 1121 OFFCURVE",
"1421 1030 OFFCURVE",
"1446 923 CURVE",
"1475 923 LINE SMOOTH",
"1600 923 OFFCURVE",
"1708 879 OFFCURVE",
"1798 792 CURVE",
"1829 846 OFFCURVE",
"1845 904 OFFCURVE",
"1845 961 CURVE SMOOTH",
"1845 1146 OFFCURVE",
"1698 1293 OFFCURVE",
"1516 1293 CURVE SMOOTH",
"1426 1293 OFFCURVE",
"1349 1262 OFFCURVE",
"1285 1198 CURVE"
);
},
{
closed = 1;
nodes = (
"1436 1882 LINE SMOOTH",
"1436 1927 OFFCURVE",
"1472 1959 OFFCURVE",
"1516 1959 CURVE SMOOTH",
"1560 1959 OFFCURVE",
"1593 1927 OFFCURVE",
"1593 1882 CURVE SMOOTH",
"1593 1691 LINE SMOOTH",
"1593 1643 OFFCURVE",
"1560 1611 OFFCURVE",
"1516 1611 CURVE SMOOTH",
"1470 1611 OFFCURVE",
"1436 1645 OFFCURVE",
"1436 1691 CURVE SMOOTH"
);
},
{
closed = 1;
nodes = (
"1960 1434 OFFCURVE",
"1951 1452 OFFCURVE",
"1951 1475 CURVE SMOOTH",
"1951 1498 OFFCURVE",
"1960 1517 OFFCURVE",
"1976 1534 CURVE SMOOTH",
"2110 1668 LINE SMOOTH",
"2125 1683 OFFCURVE",
"2143 1691 OFFCURVE",
"2164 1691 CURVE SMOOTH",
"2208 1691 OFFCURVE",
"2244 1658 OFFCURVE",
"2244 1612 CURVE SMOOTH",
"2244 1589 OFFCURVE",
"2236 1570 OFFCURVE",
"2220 1553 CURVE SMOOTH",
"2086 1419 LINE",
"2064 1404 OFFCURVE",
"2046 1396 OFFCURVE",
"2028 1396 CURVE SMOOTH",
"2010 1396 OFFCURVE",
"1992 1404 OFFCURVE",
"1976 1419 CURVE SMOOTH"
);
},
{
closed = 1;
nodes = (
"2050 315 LINE",
"2035 331 OFFCURVE",
"2027 351 OFFCURVE",
"2027 372 CURVE SMOOTH",
"2027 416 OFFCURVE",
"2061 450 OFFCURVE",
"2105 450 CURVE SMOOTH",
"2127 450 OFFCURVE",
"2146 442 OFFCURVE",
"2163 428 CURVE",
"2220 367 LINE",
"2236 352 OFFCURVE",
"2244 334 OFFCURVE",
"2244 313 CURVE SMOOTH",
"2244 267 OFFCURVE",
"2208 231 OFFCURVE",
"2164 231 CURVE SMOOTH",
"2143 231 OFFCURVE",
"2125 239 OFFCURVE",
"2110 254 CURVE SMOOTH"
);
},
{
closed = 1;
nodes = (
"2171 922 OFFCURVE",
"2163 940 OFFCURVE",
"2163 961 CURVE SMOOTH",
"2163 1005 OFFCURVE",
"2199 1041 OFFCURVE",
"2243 1041 CURVE SMOOTH",
"2434 1041 LINE SMOOTH",
"2478 1041 OFFCURVE",
"2514 1005 OFFCURVE",
"2514 961 CURVE SMOOTH",
"2514 917 OFFCURVE",
"2478 884 OFFCURVE",
"2434 884 CURVE SMOOTH",
"2243 884 LINE SMOOTH",
"2221 884 OFFCURVE",
"2202 892 OFFCURVE",
"2187 907 CURVE"
);
}
);
width = 2230;
}
);
unicode = F005;
},
{
glyphname = "day-rain";
lastChange = "2013-07-01 02:13:45 -0700";
layers = (
{
layerId = "1E718338-5C3C-490C-A197-65E7F37A33B6";
name = "Regular";
paths = (
{
closed = 1;
nodes = (
"4 679 OFFCURVE",
"155 864 OFFCURVE",
"360 912 CURVE",
"417 1166 OFFCURVE",
"643 1348 OFFCURVE",
"907 1348 CURVE SMOOTH",
"999 1348 OFFCURVE",
"1083 1328 OFFCURVE",
"1160 1287 CURVE",
"1257 1396 OFFCURVE",
"1378 1450 OFFCURVE",
"1522 1450 CURVE SMOOTH",
"1791 1450 OFFCURVE",
"2012 1230 OFFCURVE",
"2012 959 CURVE SMOOTH",
"2012 843 OFFCURVE",
"1976 740 OFFCURVE",
"1903 650 CURVE",
"1929 592 OFFCURVE",
"1942 530 OFFCURVE",
"1942 463 CURVE SMOOTH",
"1942 214 OFFCURVE",
"1745 7 OFFCURVE",
"1496 -1 CURVE SMOOTH",
"1484 -1 OFFCURVE",
"1478 4 OFFCURVE",
"1478 15 CURVE SMOOTH",
"1478 140 LINE SMOOTH",
"1478 151 OFFCURVE",
"1484 156 OFFCURVE",
"1496 156 CURVE",
"1655 164 OFFCURVE",
"1784 300 OFFCURVE",
"1784 463 CURVE SMOOTH",
"1784 627 OFFCURVE",
"1643 764 OFFCURVE",
"1478 764 CURVE SMOOTH",
"1327 764 LINE SMOOTH",
"1316 764 OFFCURVE",
"1311 769 OFFCURVE",
"1311 781 CURVE",
"1304 835 LINE SMOOTH",
"1283 1037 OFFCURVE",
"1109 1191 OFFCURVE",
"907 1191 CURVE SMOOTH",
"702 1191 OFFCURVE",
"532 1037 OFFCURVE",
"512 835 CURVE SMOOTH",
"506 784 LINE",
"506 773 OFFCURVE",
"499 768 OFFCURVE",
"488 768 CURVE",
"439 764 LINE",
"283 746 OFFCURVE",
"163 618 OFFCURVE",
"163 463 CURVE SMOOTH",
"163 300 OFFCURVE",
"293 164 OFFCURVE",
"452 156 CURVE",
"463 156 OFFCURVE",
"468 151 OFFCURVE",
"468 140 CURVE SMOOTH",
"468 15 LINE SMOOTH",
"468 4 OFFCURVE",
"463 -1 OFFCURVE",
"452 -1 CURVE",
"202 10 OFFCURVE",
"4 214 OFFCURVE",
"4 463 CURVE SMOOTH"
);
},
{
closed = 1;
nodes = (
"660 395 LINE",
"673 436 OFFCURVE",
"716 461 OFFCURVE",
"757 448 CURVE",
"801 440 OFFCURVE",
"825 397 OFFCURVE",
"814 351 CURVE SMOOTH",
"629 -324 LINE SMOOTH",
"619 -364 OFFCURVE",
"596 -383 OFFCURVE",
"558 -383 CURVE SMOOTH",
"550 -383 OFFCURVE",
"540 -382 OFFCURVE",
"532 -380 CURVE",
"488 -367 OFFCURVE",
"471 -331 OFFCURVE",
"471 -303 CURVE SMOOTH",
"471 -296 OFFCURVE",
"473 -290 OFFCURVE",
"475 -283 CURVE SMOOTH"
);
},
{
closed = 1;
nodes = (
"978 395 LINE SMOOTH",
"989 436 OFFCURVE",
"1032 461 OFFCURVE",
"1076 448 CURVE SMOOTH",
"1117 436 OFFCURVE",
"1142 395 OFFCURVE",
"1129 351 CURVE SMOOTH",
"868 -609 LINE",
"861 -650 OFFCURVE",
"827 -670 OFFCURVE",
"801 -670 CURVE SMOOTH",
"793 -670 OFFCURVE",
"784 -669 OFFCURVE",
"776 -667 CURVE",
"725 -659 OFFCURVE",
"714 -618 OFFCURVE",
"714 -591 CURVE SMOOTH",
"714 -583 OFFCURVE",
"716 -573 OFFCURVE",
"717 -565 CURVE"
);
},
{
closed = 1;
nodes = (
"814 1553 LINE SMOOTH",
"799 1568 OFFCURVE",
"791 1587 OFFCURVE",
"791 1610 CURVE SMOOTH",
"791 1655 OFFCURVE",
"827 1691 OFFCURVE",
"873 1691 CURVE SMOOTH",
"894 1691 OFFCURVE",
"914 1682 OFFCURVE",
"929 1668 CURVE SMOOTH",
"988 1607 LINE",
"1002 1591 OFFCURVE",
"1011 1571 OFFCURVE",
"1011 1548 CURVE SMOOTH",
"1011 1502 OFFCURVE",
"970 1471 OFFCURVE",
"932 1471 CURVE SMOOTH",
"912 1471 OFFCURVE",
"893 1478 OFFCURVE",
"875 1492 CURVE"
);
},
{
closed = 1;
nodes = (
"1291 395 LINE SMOOTH",
"1302 436 OFFCURVE",
"1343 461 OFFCURVE",
"1388 448 CURVE SMOOTH",
"1429 436 OFFCURVE",
"1455 395 OFFCURVE",
"1442 351 CURVE SMOOTH",
"1257 -324 LINE",
"1248 -372 OFFCURVE",
"1209 -383 OFFCURVE",
"1183 -383 CURVE SMOOTH",
"1175 -383 OFFCURVE",
"1168 -382 OFFCURVE",
"1160 -380 CURVE",
"1119 -367 OFFCURVE",
"1102 -331 OFFCURVE",
"1102 -305 CURVE SMOOTH",
"1102 -298 OFFCURVE",
"1104 -291 OFFCURVE",
"1106 -283 CURVE"
);
},
{
closed = 1;
nodes = (
"1370 1122 OFFCURVE",
"1422 1030 OFFCURVE",
"1448 922 CURVE",
"1478 922 LINE SMOOTH",
"1606 922 OFFCURVE",
"1714 877 OFFCURVE",
"1804 787 CURVE",
"1835 841 OFFCURVE",
"1852 899 OFFCURVE",
"1852 959 CURVE SMOOTH",
"1852 1143 OFFCURVE",
"1706 1291 OFFCURVE",
"1522 1291 CURVE SMOOTH",
"1434 1291 OFFCURVE",
"1357 1259 OFFCURVE",
"1291 1197 CURVE"
);
},
{
closed = 1;
nodes = (
"1442 1879 LINE SMOOTH",
"1442 1925 OFFCURVE",
"1476 1960 OFFCURVE",
"1522 1960 CURVE SMOOTH",
"1566 1960 OFFCURVE",
"1599 1927 OFFCURVE",
"1599 1879 CURVE SMOOTH",
"1599 1687 LINE SMOOTH",
"1599 1643 OFFCURVE",
"1566 1610 OFFCURVE",
"1522 1610 CURVE SMOOTH",
"1478 1610 OFFCURVE",
"1442 1643 OFFCURVE",
"1442 1687 CURVE SMOOTH"
);
},
{
closed = 1;
nodes = (
"1966 1433 OFFCURVE",
"1958 1451 OFFCURVE",
"1958 1474 CURVE SMOOTH",
"1958 1497 OFFCURVE",
"1966 1517 OFFCURVE",
"1983 1533 CURVE SMOOTH",
"2117 1668 LINE SMOOTH",
"2132 1682 OFFCURVE",
"2150 1691 OFFCURVE",
"2171 1691 CURVE SMOOTH",
"2216 1691 OFFCURVE",
"2252 1658 OFFCURVE",
"2252 1612 CURVE SMOOTH",
"2252 1589 OFFCURVE",
"2244 1569 OFFCURVE",
"2227 1553 CURVE SMOOTH",
"2093 1419 LINE",
"2060 1381 OFFCURVE",
"2007 1392 OFFCURVE",
"1983 1419 CURVE"
);
},
{
closed = 1;
nodes = (
"2057 310 LINE",
"2042 327 OFFCURVE",
"2034 346 OFFCURVE",
"2034 368 CURVE SMOOTH",
"2034 412 OFFCURVE",
"2068 448 OFFCURVE",
"2112 448 CURVE SMOOTH",
"2134 448 OFFCURVE",
"2153 440 OFFCURVE",
"2170 425 CURVE",
"2227 364 LINE",
"2244 350 OFFCURVE",
"2252 332 OFFCURVE",
"2252 310 CURVE SMOOTH",
"2252 264 OFFCURVE",
"2216 230 OFFCURVE",
"2175 230 CURVE SMOOTH",
"2175 230 OFFCURVE",
"2175 230 OFFCURVE",
"2173 232 CURVE",
"2152 232 OFFCURVE",
"2134 238 OFFCURVE",
"2117 251 CURVE"
);
},
{
closed = 1;
nodes = (
"2178 918 OFFCURVE",
"2170 938 OFFCURVE",
"2170 959 CURVE SMOOTH",
"2170 1004 OFFCURVE",
"2207 1040 OFFCURVE",
"2252 1040 CURVE SMOOTH",
"2442 1040 LINE SMOOTH",
"2486 1040 OFFCURVE",
"2522 1004 OFFCURVE",
"2522 959 CURVE SMOOTH",
"2522 915 OFFCURVE",
"2486 879 OFFCURVE",
"2442 879 CURVE SMOOTH",
"2252 879 LINE SMOOTH",
"2230 879 OFFCURVE",
"2211 887 OFFCURVE",
"2194 904 CURVE"
);
}
);
width = 2230;
}
);
unicode = F008;
},
{
glyphname = "day-rain-mix";
lastChange = "2013-07-01 02:10:35 -0700";
layers = (
{
layerId = "1E718338-5C3C-490C-A197-65E7F37A33B6";
name = "Regular";
paths = (
{
closed = 1;
nodes = (
"1 674 OFFCURVE",
"146 859 OFFCURVE",
"356 907 CURVE",
"413 1163 OFFCURVE",
"635 1345 OFFCURVE",
"899 1345 CURVE SMOOTH",
"985 1345 OFFCURVE",
"1070 1325 OFFCURVE",
"1154 1284 CURVE",
"1250 1392 OFFCURVE",
"1371 1446 OFFCURVE",
"1515 1446 CURVE SMOOTH",
"1785 1446 OFFCURVE",
"2004 1226 OFFCURVE",
"2004 957 CURVE SMOOTH",
"2004 839 OFFCURVE",
"1968 735 OFFCURVE",
"1895 645 CURVE",
"1919 584 OFFCURVE",
"1931 522 OFFCURVE",
"1931 458 CURVE SMOOTH",
"1931 210 OFFCURVE",
"1738 7 OFFCURVE",
"1489 -1 CURVE SMOOTH",
"1478 -1 OFFCURVE",
"1471 4 OFFCURVE",
"1471 15 CURVE SMOOTH",
"1471 139 LINE SMOOTH",
"1471 151 OFFCURVE",
"1478 156 OFFCURVE",
"1489 156 CURVE",
"1648 164 OFFCURVE",
"1774 296 OFFCURVE",
"1774 458 CURVE SMOOTH",
"1774 627 OFFCURVE",
"1636 763 OFFCURVE",
"1471 763 CURVE SMOOTH",
"1321 763 LINE SMOOTH",
"1311 763 OFFCURVE",
"1304 768 OFFCURVE",
"1301 779 CURVE",
"1295 833 LINE SMOOTH",
"1275 1034 OFFCURVE",
"1103 1185 OFFCURVE",
"899 1185 CURVE SMOOTH",
"694 1185 OFFCURVE",
"529 1034 OFFCURVE",
"505 830 CURVE SMOOTH",
"498 779 LINE",
"498 771 OFFCURVE",
"493 766 OFFCURVE",
"483 766 CURVE",
"434 759 LINE",
"277 746 OFFCURVE",
"159 615 OFFCURVE",
"159 458 CURVE SMOOTH",
"159 296 OFFCURVE",
"285 164 OFFCURVE",
"444 156 CURVE",
"455 156 OFFCURVE",
"460 151 OFFCURVE",
"460 139 CURVE SMOOTH",
"460 15 LINE SMOOTH",
"460 4 OFFCURVE",
"455 -1 OFFCURVE",
"444 -1 CURVE",
"195 10 OFFCURVE",
"1 210 OFFCURVE",
"1 458 CURVE SMOOTH"
);
},
{
closed = 1;
nodes = (
"498 -199 LINE SMOOTH",
"511 -155 OFFCURVE",
"554 -130 OFFCURVE",
"595 -142 CURVE SMOOTH",
"639 -155 OFFCURVE",
"663 -198 OFFCURVE",
"652 -238 CURVE SMOOTH",
"608 -397 LINE SMOOTH",
"593 -451 OFFCURVE",
"550 -464 OFFCURVE",
"511 -453 CURVE SMOOTH",
"470 -440 OFFCURVE",
"452 -402 OFFCURVE",
"452 -374 CURVE SMOOTH",
"452 -368 OFFCURVE",
"452 -361 OFFCURVE",
"454 -356 CURVE"
);
},
{
closed = 1;
nodes = (
"562 -40 OFFCURVE",
"554 -23 OFFCURVE",
"554 -1 CURVE SMOOTH",
"554 43 OFFCURVE",
"586 76 OFFCURVE",
"630 76 CURVE SMOOTH",
"675 76 OFFCURVE",
"709 43 OFFCURVE",
"709 -1 CURVE SMOOTH",
"709 -45 OFFCURVE",
"675 -78 OFFCURVE",
"630 -78 CURVE SMOOTH",
"609 -78 OFFCURVE",
"591 -70 OFFCURVE",
"577 -55 CURVE SMOOTH"
);
},
{
closed = 1;
nodes = (
"655 395 LINE",
"668 435 OFFCURVE",
"711 460 OFFCURVE",
"752 447 CURVE",
"796 435 OFFCURVE",
"822 395 OFFCURVE",
"809 350 CURVE SMOOTH",
"765 193 LINE SMOOTH",
"752 149 OFFCURVE",
"706 128 OFFCURVE",
"668 139 CURVE SMOOTH",
"624 153 OFFCURVE",
"609 185 OFFCURVE",
"611 211 CURVE",
"611 220 OFFCURVE",
"613 228 OFFCURVE",
"614 236 CURVE"
);
},
{
closed = 1;
nodes = (
"735 -487 LINE",
"748 -446 OFFCURVE",
"792 -420 OFFCURVE",
"832 -433 CURVE",
"876 -441 OFFCURVE",
"900 -485 OFFCURVE",
"889 -531 CURVE SMOOTH",
"845 -688 LINE SMOOTH",
"832 -736 OFFCURVE",
"796 -745 OFFCURVE",
"771 -745 CURVE SMOOTH",
"763 -745 OFFCURVE",
"756 -744 OFFCURVE",
"748 -742 CURVE",
"704 -729 OFFCURVE",
"688 -693 OFFCURVE",
"688 -665 CURVE SMOOTH",
"688 -659 OFFCURVE",
"689 -652 OFFCURVE",
"691 -644 CURVE"
);
},
{
closed = 1;
nodes = (
"812 1549 LINE SMOOTH",
"797 1564 OFFCURVE",
"789 1584 OFFCURVE",
"789 1605 CURVE SMOOTH",
"789 1649 OFFCURVE",
"824 1685 OFFCURVE",
"868 1685 CURVE",
"889 1683 OFFCURVE",
"909 1675 OFFCURVE",
"923 1661 CURVE SMOOTH",
"982 1600 LINE SMOOTH",
"997 1585 OFFCURVE",
"1005 1567 OFFCURVE",
"1005 1544 CURVE SMOOTH",
"1005 1522 OFFCURVE",
"997 1504 OFFCURVE",
"982 1489 CURVE",
"949 1451 OFFCURVE",
"897 1463 OFFCURVE",
"873 1489 CURVE SMOOTH"
);
},
{
closed = 1;
nodes = (
"801 -332 OFFCURVE",
"792 -314 OFFCURVE",
"792 -292 CURVE SMOOTH",
"792 -248 OFFCURVE",
"825 -216 OFFCURVE",
"869 -216 CURVE SMOOTH",
"913 -216 OFFCURVE",
"946 -248 OFFCURVE",
"946 -292 CURVE SMOOTH",
"946 -337 OFFCURVE",
"913 -369 OFFCURVE",
"869 -369 CURVE SMOOTH",
"848 -369 OFFCURVE",
"830 -361 OFFCURVE",
"815 -346 CURVE SMOOTH"
);
},
{
closed = 1;
nodes = (
"892 102 LINE",
"905 146 OFFCURVE",
"949 171 OFFCURVE",
"990 159 CURVE SMOOTH",
"1035 146 OFFCURVE",
"1059 103 OFFCURVE",
"1046 63 CURVE",
"1003 -94 LINE SMOOTH",
"989 -148 OFFCURVE",
"945 -163 OFFCURVE",
"905 -152 CURVE",
"864 -144 OFFCURVE",
"848 -104 OFFCURVE",
"850 -80 CURVE",
"850 -72 OFFCURVE",
"851 -63 OFFCURVE",
"853 -55 CURVE"
);
},
{
closed = 1;
nodes = (
"1120 -202 LINE",
"1133 -158 OFFCURVE",
"1175 -134 OFFCURVE",
"1221 -145 CURVE",
"1262 -158 OFFCURVE",
"1288 -202 OFFCURVE",
"1275 -242 CURVE",
"1231 -400 LINE SMOOTH",
"1219 -441 OFFCURVE",
"1195 -461 OFFCURVE",
"1160 -461 CURVE SMOOTH",
"1152 -461 OFFCURVE",
"1144 -459 OFFCURVE",
"1134 -458 CURVE",
"1093 -446 OFFCURVE",
"1077 -409 OFFCURVE",
"1077 -382 CURVE SMOOTH",
"1077 -374 OFFCURVE",
"1079 -368 OFFCURVE",
"1080 -359 CURVE"
);
},
{
closed = 1;
nodes = (
"1185 -44 OFFCURVE",
"1177 -26 OFFCURVE",
"1177 -5 CURVE SMOOTH",
"1177 40 OFFCURVE",
"1210 72 OFFCURVE",
"1254 72 CURVE SMOOTH",
"1298 72 OFFCURVE",
"1331 40 OFFCURVE",
"1331 -5 CURVE SMOOTH",
"1331 -49 OFFCURVE",
"1298 -81 OFFCURVE",
"1254 -81 CURVE SMOOTH",
"1232 -81 OFFCURVE",
"1214 -73 OFFCURVE",
"1200 -58 CURVE SMOOTH"
);
},
{
closed = 1;
nodes = (
"1281 391 LINE SMOOTH",
"1293 432 OFFCURVE",
"1334 457 OFFCURVE",
"1378 444 CURVE SMOOTH",
"1419 432 OFFCURVE",
"1445 391 OFFCURVE",
"1432 347 CURVE SMOOTH",
"1391 190 LINE SMOOTH",
"1385 167 OFFCURVE",
"1371 151 OFFCURVE",
"1353 141 CURVE",
"1342 136 OFFCURVE",
"1331 133 OFFCURVE",
"1319 133 CURVE SMOOTH",
"1311 133 OFFCURVE",
"1303 135 OFFCURVE",
"1295 136 CURVE",
"1250 149 OFFCURVE",
"1234 184 OFFCURVE",
"1234 211 CURVE SMOOTH",
"1234 218 OFFCURVE",
"1236 224 OFFCURVE",
"1237 233 CURVE"
);
},
{
closed = 1;
nodes = (
"1365 1111 OFFCURVE",
"1417 1019 OFFCURVE",
"1442 920 CURVE",
"1471 920 LINE SMOOTH",
"1597 920 OFFCURVE",
"1705 874 OFFCURVE",
"1797 782 CURVE",
"1831 838 OFFCURVE",
"1847 897 OFFCURVE",
"1847 957 CURVE SMOOTH",
"1847 1139 OFFCURVE",
"1700 1284 OFFCURVE",
"1515 1284 CURVE SMOOTH",
"1424 1284 OFFCURVE",
"1347 1253 OFFCURVE",
"1285 1191 CURVE"
);
},
{
closed = 1;
nodes = (
"1439 1875 LINE SMOOTH",
"1439 1919 OFFCURVE",
"1471 1955 OFFCURVE",
"1515 1955 CURVE SMOOTH",
"1560 1955 OFFCURVE",
"1596 1919 OFFCURVE",
"1596 1875 CURVE SMOOTH",
"1596 1683 LINE SMOOTH",
"1596 1639 OFFCURVE",
"1560 1607 OFFCURVE",
"1515 1607 CURVE SMOOTH",
"1471 1607 OFFCURVE",
"1439 1639 OFFCURVE",
"1439 1683 CURVE SMOOTH"
);
},
{
closed = 1;
nodes = (
"1960 1430 OFFCURVE",
"1954 1450 OFFCURVE",
"1954 1471 CURVE SMOOTH",
"1954 1492 OFFCURVE",
"1960 1512 OFFCURVE",
"1975 1526 CURVE SMOOTH",
"2109 1664 LINE",
"2125 1679 OFFCURVE",
"2145 1687 OFFCURVE",
"2166 1687 CURVE SMOOTH",
"2211 1687 OFFCURVE",
"2245 1651 OFFCURVE",
"2245 1607 CURVE SMOOTH",
"2245 1584 OFFCURVE",
"2237 1564 OFFCURVE",
"2222 1549 CURVE SMOOTH",
"2088 1415 LINE",
"2042 1378 OFFCURVE",
"2003 1387 OFFCURVE",
"1975 1415 CURVE SMOOTH"
);
},
{
closed = 1;
nodes = (
"2052 310 LINE",
"2036 324 OFFCURVE",
"2027 342 OFFCURVE",
"2027 365 CURVE SMOOTH",
"2027 388 OFFCURVE",
"2036 406 OFFCURVE",
"2052 421 CURVE",
"2083 453 OFFCURVE",
"2134 452 OFFCURVE",
"2161 421 CURVE",
"2222 364 LINE",
"2237 347 OFFCURVE",
"2245 328 OFFCURVE",
"2245 306 CURVE SMOOTH",
"2245 285 OFFCURVE",
"2237 265 OFFCURVE",
"2222 251 CURVE",
"2204 236 OFFCURVE",
"2184 228 OFFCURVE",
"2166 228 CURVE SMOOTH",
"2147 228 OFFCURVE",
"2127 236 OFFCURVE",
"2109 251 CURVE"
);
},
{
closed = 1;
nodes = (
"2173 916 OFFCURVE",
"2165 936 OFFCURVE",
"2165 957 CURVE SMOOTH",
"2165 1001 OFFCURVE",
"2202 1037 OFFCURVE",
"2247 1037 CURVE SMOOTH",
"2436 1037 LINE SMOOTH",
"2480 1037 OFFCURVE",
"2513 1001 OFFCURVE",
"2513 957 CURVE SMOOTH",
"2513 913 OFFCURVE",
"2480 877 OFFCURVE",
"2436 877 CURVE SMOOTH",
"2247 877 LINE SMOOTH",
"2225 877 OFFCURVE",
"2206 885 OFFCURVE",
"2189 902 CURVE"
);
}
);
width = 2230;
}
);
unicode = F006;
},
{
glyphname = "day-rain-wind";
lastChange = "2013-07-01 02:12:44 -0700";
layers = (
{
layerId = "1E718338-5C3C-490C-A197-65E7F37A33B6";
name = "Regular";
paths = (
{
closed = 1;
nodes = (
"-3 678 OFFCURVE",
"149 863 OFFCURVE",
"359 911 CURVE",
"413 1166 OFFCURVE",
"639 1348 OFFCURVE",
"903 1348 CURVE SMOOTH",
"998 1348 OFFCURVE",
"1082 1328 OFFCURVE",
"1156 1287 CURVE",
"1258 1396 OFFCURVE",
"1380 1450 OFFCURVE",
"1519 1450 CURVE SMOOTH",
"1789 1450 OFFCURVE",
"2011 1228 OFFCURVE",
"2011 959 CURVE SMOOTH",
"2011 842 OFFCURVE",
"1975 738 OFFCURVE",
"1901 648 CURVE",
"1927 590 OFFCURVE",
"1940 528 OFFCURVE",
"1940 461 CURVE SMOOTH",
"1940 224 OFFCURVE",
"1758 23 OFFCURVE",
"1526 -1 CURVE",
"1109 -516 LINE",
"1081 -554 OFFCURVE",
"1026 -562 OFFCURVE",
"998 -530 CURVE",
"966 -504 OFFCURVE",
"957 -452 OFFCURVE",
"984 -419 CURVE SMOOTH",
"1426 130 LINE",
"1437 143 OFFCURVE",
"1465 152 OFFCURVE",
"1510 157 CURVE SMOOTH",
"1661 170 OFFCURVE",
"1782 303 OFFCURVE",
"1782 461 CURVE SMOOTH",
"1782 627 OFFCURVE",
"1644 763 OFFCURVE",
"1480 763 CURVE SMOOTH",
"1327 763 LINE SMOOTH",
"1317 763 OFFCURVE",
"1311 768 OFFCURVE",
"1307 779 CURVE",
"1301 834 LINE SMOOTH",
"1281 1036 OFFCURVE",
"1109 1190 OFFCURVE",
"903 1190 CURVE SMOOTH",
"698 1190 OFFCURVE",
"527 1036 OFFCURVE",
"507 834 CURVE SMOOTH",
"500 783 LINE",
"500 771 OFFCURVE",
"494 766 OFFCURVE",
"482 766 CURVE",
"436 763 LINE",
"279 745 OFFCURVE",
"160 618 OFFCURVE",
"160 461 CURVE SMOOTH",
"160 291 OFFCURVE",
"297 153 OFFCURVE",
"463 153 CURVE",
"354 22 LINE",
"346 15 OFFCURVE",
"339 14 OFFCURVE",
"331 15 CURVE",
"136 69 OFFCURVE",
"-3 250 OFFCURVE",
"-3 461 CURVE SMOOTH"
);
},
{
closed = 1;
nodes = (
"214 -453 OFFCURVE",
"216 -437 OFFCURVE",
"224 -412 CURVE SMOOTH",
"239 -371 OFFCURVE",
"287 -353 OFFCURVE",
"328 -371 CURVE SMOOTH",
"366 -389 OFFCURVE",
"387 -435 OFFCURVE",
"369 -473 CURVE",
"354 -514 OFFCURVE",
"305 -534 OFFCURVE",
"264 -516 CURVE SMOOTH",
"242 -506 OFFCURVE",
"228 -491 OFFCURVE",
"221 -471 CURVE SMOOTH"
);
},
{
closed = 1;
nodes = (
"343 -810 OFFCURVE",
"341 -800 OFFCURVE",
"341 -792 CURVE SMOOTH",
"341 -780 OFFCURVE",
"343 -770 OFFCURVE",
"348 -759 CURVE",
"362 -720 OFFCURVE",
"412 -700 OFFCURVE",
"453 -718 CURVE",
"492 -733 OFFCURVE",
"510 -782 OFFCURVE",
"492 -823 CURVE SMOOTH",
"484 -843 OFFCURVE",
"471 -856 OFFCURVE",
"451 -864 CURVE",
"441 -867 OFFCURVE",
"431 -869 OFFCURVE",
"422 -869 CURVE SMOOTH",
"410 -869 OFFCURVE",
"400 -867 OFFCURVE",
"389 -863 CURVE",
"367 -854 OFFCURVE",
"354 -839 OFFCURVE",
"346 -820 CURVE"
);
},
{
closed = 1;
nodes = (
"390 -222 OFFCURVE",
"390 -218 OFFCURVE",
"390 -215 CURVE SMOOTH",
"390 -197 OFFCURVE",
"397 -180 OFFCURVE",
"408 -166 CURVE SMOOTH",
"846 382 LINE",
"877 415 OFFCURVE",
"928 421 OFFCURVE",
"961 393 CURVE SMOOTH",
"994 367 OFFCURVE",
"997 314 OFFCURVE",
"971 281 CURVE SMOOTH",
"530 -268 LINE SMOOTH",
"504 -300 OFFCURVE",
"451 -304 OFFCURVE",
"418 -277 CURVE SMOOTH",
"402 -264 OFFCURVE",
"392 -246 OFFCURVE",
"390 -225 CURVE"
);
},
{
closed = 1;
nodes = (
"497 -575 OFFCURVE",
"497 -572 OFFCURVE",
"497 -570 CURVE SMOOTH",
"497 -552 OFFCURVE",
"502 -537 OFFCURVE",
"514 -522 CURVE SMOOTH",
"1140 255 LINE SMOOTH",
"1166 288 OFFCURVE",
"1217 295 OFFCURVE",
"1250 268 CURVE",
"1283 237 OFFCURVE",
"1289 191 OFFCURVE",
"1263 153 CURVE",
"639 -621 LINE",
"611 -659 OFFCURVE",
"555 -665 OFFCURVE",
"527 -634 CURVE",
"509 -619 OFFCURVE",
"499 -601 OFFCURVE",
"497 -580 CURVE"
);
},
{
closed = 1;
nodes = (
"813 1554 LINE",
"796 1568 OFFCURVE",
"788 1586 OFFCURVE",
"788 1609 CURVE SMOOTH",
"788 1654 OFFCURVE",
"824 1688 OFFCURVE",
"869 1688 CURVE SMOOTH",
"890 1688 OFFCURVE",
"910 1680 OFFCURVE",
"924 1665 CURVE SMOOTH",
"984 1605 LINE SMOOTH",
"998 1590 OFFCURVE",
"1007 1572 OFFCURVE",
"1007 1549 CURVE SMOOTH",
"1007 1503 OFFCURVE",
"959 1463 OFFCURVE",
"921 1468 CURVE",
"901 1470 OFFCURVE",
"885 1478 OFFCURVE",
"870 1493 CURVE SMOOTH"
);
},
{
closed = 1;
nodes = (
"828 -697 OFFCURVE",
"826 -687 OFFCURVE",
"826 -677 CURVE SMOOTH",
"826 -665 OFFCURVE",
"828 -655 OFFCURVE",
"832 -644 CURVE",
"847 -604 OFFCURVE",
"897 -586 OFFCURVE",
"938 -604 CURVE",
"977 -619 OFFCURVE",
"995 -667 OFFCURVE",
"977 -708 CURVE",
"969 -729 OFFCURVE",
"954 -743 OFFCURVE",
"934 -751 CURVE",
"924 -754 OFFCURVE",
"915 -756 OFFCURVE",
"906 -756 CURVE SMOOTH",
"895 -756 OFFCURVE",
"885 -754 OFFCURVE",
"874 -749 CURVE SMOOTH",
"855 -741 OFFCURVE",
"841 -728 OFFCURVE",
"832 -706 CURVE"
);
},
{
closed = 1;
nodes = (
"1370 1120 OFFCURVE",
"1424 1028 OFFCURVE",
"1449 921 CURVE",
"1480 921 LINE SMOOTH",
"1607 921 OFFCURVE",
"1715 876 OFFCURVE",
"1805 786 CURVE",
"1837 840 OFFCURVE",
"1853 898 OFFCURVE",
"1853 959 CURVE SMOOTH",
"1853 1141 OFFCURVE",
"1704 1287 OFFCURVE",
"1519 1287 CURVE SMOOTH",
"1432 1287 OFFCURVE",
"1355 1258 OFFCURVE",
"1288 1197 CURVE"
);
},
{
closed = 1;
nodes = (
"1439 1881 LINE SMOOTH",
"1439 1925 OFFCURVE",
"1475 1961 OFFCURVE",
"1519 1961 CURVE SMOOTH",
"1564 1961 OFFCURVE",
"1600 1925 OFFCURVE",
"1600 1881 CURVE SMOOTH",
"1600 1688 LINE SMOOTH",
"1600 1644 OFFCURVE",
"1564 1611 OFFCURVE",
"1519 1611 CURVE SMOOTH",
"1475 1611 OFFCURVE",
"1439 1644 OFFCURVE",
"1439 1688 CURVE SMOOTH"
);
},
{
closed = 1;
nodes = (
"1967 1434 OFFCURVE",
"1960 1453 OFFCURVE",
"1960 1475 CURVE SMOOTH",
"1960 1496 OFFCURVE",
"1967 1516 OFFCURVE",
"1981 1531 CURVE SMOOTH",
"2116 1669 LINE SMOOTH",
"2131 1683 OFFCURVE",
"2149 1692 OFFCURVE",
"2172 1692 CURVE SMOOTH",
"2216 1692 OFFCURVE",
"2253 1655 OFFCURVE",
"2253 1611 CURVE SMOOTH",
"2253 1588 OFFCURVE",
"2244 1568 OFFCURVE",
"2230 1554 CURVE SMOOTH",
"2091 1419 LINE",
"2065 1386 OFFCURVE",
"2013 1388 OFFCURVE",
"1981 1419 CURVE SMOOTH"
);
},
{
closed = 1;
nodes = (
"2055 308 LINE SMOOTH",
"2040 323 OFFCURVE",
"2032 342 OFFCURVE",
"2032 364 CURVE SMOOTH",
"2032 408 OFFCURVE",
"2068 444 OFFCURVE",
"2114 444 CURVE SMOOTH",
"2136 444 OFFCURVE",
"2154 436 OFFCURVE",
"2169 420 CURVE",
"2230 362 LINE",
"2244 346 OFFCURVE",
"2253 326 OFFCURVE",
"2253 304 CURVE SMOOTH",
"2253 283 OFFCURVE",
"2244 263 OFFCURVE",
"2230 249 CURVE",
"2208 232 OFFCURVE",
"2190 224 OFFCURVE",
"2172 224 CURVE SMOOTH",
"2170 224 OFFCURVE",
"2169 224 OFFCURVE",
"2167 224 CURVE",
"2147 226 OFFCURVE",
"2131 234 OFFCURVE",
"2116 249 CURVE SMOOTH"
);
},
{
closed = 1;
nodes = (
"2180 918 OFFCURVE",
"2172 937 OFFCURVE",
"2172 959 CURVE SMOOTH",
"2172 1003 OFFCURVE",
"2207 1036 OFFCURVE",
"2251 1036 CURVE SMOOTH",
"2442 1036 LINE SMOOTH",
"2486 1036 OFFCURVE",
"2522 1003 OFFCURVE",
"2522 959 CURVE SMOOTH",
"2522 914 OFFCURVE",
"2486 878 OFFCURVE",
"2442 878 CURVE SMOOTH",
"2251 878 LINE SMOOTH",
"2230 878 OFFCURVE",
"2210 886 OFFCURVE",
"2195 903 CURVE"
);
}
);
width = 2230;
}
);
unicode = F007;
},
{
glyphname = "day-showers";
lastChange = "2013-07-01 02:13:39 -0700";
layers = (
{
layerId = "1E718338-5C3C-490C-A197-65E7F37A33B6";
name = "Regular";
paths = (
{
closed = 1;
nodes = (
"1 680 OFFCURVE",
"152 865 OFFCURVE",
"361 912 CURVE",
"415 1166 OFFCURVE",
"639 1347 OFFCURVE",
"903 1347 CURVE SMOOTH",
"996 1347 OFFCURVE",
"1081 1328 OFFCURVE",
"1158 1287 CURVE",
"1254 1390 OFFCURVE",
"1374 1442 OFFCURVE",
"1513 1442 CURVE SMOOTH",
"1783 1442 OFFCURVE",
"2002 1223 OFFCURVE",
"2002 953 CURVE SMOOTH",
"2002 837 OFFCURVE",
"1966 734 OFFCURVE",
"1896 647 CURVE",
"1922 590 OFFCURVE",
"1935 528 OFFCURVE",
"1935 464 CURVE SMOOTH",
"1935 215 OFFCURVE",
"1742 9 OFFCURVE",
"1493 1 CURVE SMOOTH",
"1482 1 OFFCURVE",
"1477 6 OFFCURVE",
"1477 17 CURVE SMOOTH",
"1477 142 LINE SMOOTH",
"1477 153 OFFCURVE",
"1482 158 OFFCURVE",
"1493 158 CURVE",
"1650 170 OFFCURVE",
"1778 305 OFFCURVE",
"1778 464 CURVE SMOOTH",
"1778 628 OFFCURVE",
"1640 765 OFFCURVE",
"1477 765 CURVE SMOOTH",
"1321 765 LINE SMOOTH",
"1310 765 OFFCURVE",
"1305 770 OFFCURVE",
"1305 781 CURVE",
"1298 835 LINE SMOOTH",
"1279 1037 OFFCURVE",
"1107 1190 OFFCURVE",
"903 1190 CURVE SMOOTH",
"698 1190 OFFCURVE",
"528 1037 OFFCURVE",
"508 835 CURVE SMOOTH",
"502 785 LINE",
"502 773 OFFCURVE",
"495 768 OFFCURVE",
"484 768 CURVE",
"438 765 LINE",
"281 747 OFFCURVE",
"163 621 OFFCURVE",
"163 464 CURVE SMOOTH",
"163 302 OFFCURVE",
"289 166 OFFCURVE",
"448 158 CURVE",
"459 158 OFFCURVE",
"464 153 OFFCURVE",
"464 142 CURVE SMOOTH",
"464 17 LINE SMOOTH",
"464 6 OFFCURVE",
"459 1 OFFCURVE",
"448 1 CURVE",
"199 13 OFFCURVE",
"1 215 OFFCURVE",
"1 464 CURVE SMOOTH"
);
},
{
closed = 1;
nodes = (
"534 -50 LINE",
"543 -5 OFFCURVE",
"585 19 OFFCURVE",
"631 8 CURVE",
"672 -5 OFFCURVE",
"698 -50 OFFCURVE",
"685 -89 CURVE",
"662 -187 LINE",
"647 -238 OFFCURVE",
"598 -256 OFFCURVE",
"564 -244 CURVE SMOOTH",
"525 -231 OFFCURVE",
"507 -192 OFFCURVE",
"507 -161 CURVE SMOOTH",
"507 -156 OFFCURVE",
"507 -149 OFFCURVE",
"508 -143 CURVE SMOOTH"
);
},
{
closed = 1;
nodes = (
"659 397 LINE",
"667 441 OFFCURVE",
"710 464 OFFCURVE",
"755 453 CURVE",
"796 439 OFFCURVE",
"822 395 OFFCURVE",
"809 356 CURVE",
"786 260 LINE",
"773 214 OFFCURVE",
"728 192 OFFCURVE",
"688 206 CURVE SMOOTH",
"647 220 OFFCURVE",
"628 245 OFFCURVE",
"628 279 CURVE SMOOTH",
"628 287 OFFCURVE",
"629 294 OFFCURVE",
"631 302 CURVE"
);
},
{
closed = 1;
nodes = (
"772 -341 LINE SMOOTH",
"783 -300 OFFCURVE",
"826 -274 OFFCURVE",
"870 -287 CURVE SMOOTH",
"911 -298 OFFCURVE",
"937 -341 OFFCURVE",
"924 -385 CURVE SMOOTH",
"899 -478 LINE SMOOTH",
"891 -506 OFFCURVE",
"878 -524 OFFCURVE",
"860 -532 CURVE SMOOTH",
"849 -537 OFFCURVE",
"837 -539 OFFCURVE",
"826 -539 CURVE SMOOTH",
"817 -539 OFFCURVE",
"811 -537 OFFCURVE",
"803 -536 CURVE",
"759 -522 OFFCURVE",
"742 -483 OFFCURVE",
"742 -457 CURVE SMOOTH",
"742 -450 OFFCURVE",
"744 -444 OFFCURVE",
"746 -437 CURVE SMOOTH"
);
},
{
closed = 1;
nodes = (
"809 1545 LINE",
"793 1560 OFFCURVE",
"785 1580 OFFCURVE",
"785 1603 CURVE SMOOTH",
"785 1647 OFFCURVE",
"821 1683 OFFCURVE",
"865 1683 CURVE SMOOTH",
"886 1683 OFFCURVE",
"906 1675 OFFCURVE",
"921 1660 CURVE SMOOTH",
"979 1599 LINE",
"994 1583 OFFCURVE",
"1002 1563 OFFCURVE",
"1002 1542 CURVE SMOOTH",
"1002 1521 OFFCURVE",
"994 1501 OFFCURVE",
"979 1485 CURVE",
"939 1454 OFFCURVE",
"903 1452 OFFCURVE",
"870 1485 CURVE SMOOTH"
);
},
{
closed = 1;
nodes = (
"896 104 LINE",
"904 148 OFFCURVE",
"948 173 OFFCURVE",
"994 161 CURVE",
"1035 148 OFFCURVE",
"1060 106 OFFCURVE",
"1047 62 CURVE",
"1024 -32 LINE SMOOTH",
"1009 -86 OFFCURVE",
"966 -100 OFFCURVE",
"927 -89 CURVE SMOOTH",
"886 -76 OFFCURVE",
"868 -38 OFFCURVE",
"868 -10 CURVE SMOOTH",
"868 -4 OFFCURVE",
"868 3 OFFCURVE",
"870 8 CURVE"
);
},
{
closed = 1;
nodes = (
"1158 -53 LINE",
"1171 -12 OFFCURVE",
"1215 14 OFFCURVE",
"1254 1 CURVE",
"1298 -7 OFFCURVE",
"1323 -50 OFFCURVE",
"1312 -95 CURVE SMOOTH",
"1285 -190 LINE SMOOTH",
"1272 -236 OFFCURVE",
"1235 -251 OFFCURVE",
"1210 -251 CURVE",
"1187 -248 LINE",
"1146 -230 OFFCURVE",
"1130 -197 OFFCURVE",
"1128 -171 CURVE",
"1128 -164 OFFCURVE",
"1130 -158 OFFCURVE",
"1132 -149 CURVE"
);
},
{
closed = 1;
nodes = (
"1289 394 LINE SMOOTH",
"1300 435 OFFCURVE",
"1341 459 OFFCURVE",
"1385 446 CURVE SMOOTH",
"1426 435 OFFCURVE",
"1452 394 OFFCURVE",
"1439 349 CURVE SMOOTH",
"1413 256 LINE",
"1406 219 OFFCURVE",
"1374 196 OFFCURVE",
"1339 196 CURVE",
"1315 199 LINE",
"1274 210 OFFCURVE",
"1258 248 OFFCURVE",
"1258 274 CURVE SMOOTH",
"1258 281 OFFCURVE",
"1259 287 OFFCURVE",
"1261 295 CURVE"
);
},
{
closed = 1;
nodes = (
"1369 1118 OFFCURVE",
"1421 1028 OFFCURVE",
"1446 922 CURVE",
"1477 922 LINE SMOOTH",
"1603 922 OFFCURVE",
"1711 878 OFFCURVE",
"1801 788 CURVE",
"1830 845 OFFCURVE",
"1845 899 OFFCURVE",
"1845 953 CURVE SMOOTH",
"1845 1136 OFFCURVE",
"1696 1284 OFFCURVE",
"1513 1284 CURVE SMOOTH",
"1426 1284 OFFCURVE",
"1352 1254 OFFCURVE",
"1289 1194 CURVE"
);
},
{
closed = 1;
nodes = (
"1433 1871 LINE SMOOTH",
"1433 1917 OFFCURVE",
"1467 1951 OFFCURVE",
"1513 1951 CURVE SMOOTH",
"1559 1951 OFFCURVE",
"1593 1917 OFFCURVE",
"1593 1871 CURVE SMOOTH",
"1593 1683 LINE SMOOTH",
"1593 1637 OFFCURVE",
"1559 1603 OFFCURVE",
"1513 1603 CURVE SMOOTH",
"1467 1603 OFFCURVE",
"1433 1637 OFFCURVE",
"1433 1683 CURVE SMOOTH"
);
},
{
closed = 1;
nodes = (
"1958 1426 OFFCURVE",
"1951 1445 OFFCURVE",
"1951 1468 CURVE SMOOTH",
"1951 1490 OFFCURVE",
"1958 1509 OFFCURVE",
"1972 1526 CURVE",
"2107 1660 LINE",
"2123 1675 OFFCURVE",
"2143 1683 OFFCURVE",
"2164 1683 CURVE SMOOTH",
"2208 1683 OFFCURVE",
"2242 1648 OFFCURVE",
"2242 1604 CURVE SMOOTH",
"2242 1581 OFFCURVE",
"2234 1562 OFFCURVE",
"2219 1545 CURVE",
"2085 1411 LINE",
"2067 1396 OFFCURVE",
"2048 1388 OFFCURVE",
"2030 1388 CURVE SMOOTH",
"2010 1388 OFFCURVE",
"1990 1396 OFFCURVE",
"1972 1411 CURVE"
);
},
{
closed = 1;
nodes = (
"2049 305 LINE SMOOTH",
"2033 322 OFFCURVE",
"2025 341 OFFCURVE",
"2025 364 CURVE SMOOTH",
"2025 408 OFFCURVE",
"2061 443 OFFCURVE",
"2105 443 CURVE SMOOTH",
"2126 443 OFFCURVE",
"2144 435 OFFCURVE",
"2159 420 CURVE SMOOTH",
"2219 359 LINE SMOOTH",
"2250 328 OFFCURVE",
"2254 279 OFFCURVE",
"2219 246 CURVE",
"2201 227 OFFCURVE",
"2183 217 OFFCURVE",
"2165 217 CURVE SMOOTH",
"2146 217 OFFCURVE",
"2126 227 OFFCURVE",
"2107 246 CURVE SMOOTH"
);
},
{
closed = 1;
nodes = (
"2170 914 OFFCURVE",
"2162 932 OFFCURVE",
"2162 953 CURVE SMOOTH",
"2162 997 OFFCURVE",
"2195 1033 OFFCURVE",
"2239 1033 CURVE SMOOTH",
"2430 1033 LINE SMOOTH",
"2476 1033 OFFCURVE",
"2511 999 OFFCURVE",
"2511 953 CURVE SMOOTH",
"2511 909 OFFCURVE",
"2478 876 OFFCURVE",
"2430 876 CURVE SMOOTH",
"2239 876 LINE SMOOTH",
"2218 876 OFFCURVE",
"2200 884 OFFCURVE",
"2185 899 CURVE SMOOTH"
);
}
);
width = 2230;
}
);
unicode = F009;
},
{
glyphname = "day-snow";
lastChange = "2013-07-01 02:14:25 -0700";
layers = (
{
layerId = "1E718338-5C3C-490C-A197-65E7F37A33B6";
name = "Regular";
paths = (
{
closed = 1;
nodes = (
"1 676 OFFCURVE",
"148 858 OFFCURVE",
"355 910 CURVE",
"412 1163 OFFCURVE",
"637 1344 OFFCURVE",
"900 1344 CURVE SMOOTH",
"992 1344 OFFCURVE",
"1075 1324 OFFCURVE",
"1151 1283 CURVE",
"1248 1391 OFFCURVE",
"1368 1445 OFFCURVE",
"1512 1445 CURVE SMOOTH",
"1780 1445 OFFCURVE",
"2000 1225 OFFCURVE",
"2000 957 CURVE SMOOTH",
"2000 841 OFFCURVE",
"1964 738 OFFCURVE",
"1890 649 CURVE",
"1917 592 OFFCURVE",
"1930 528 OFFCURVE",
"1930 459 CURVE SMOOTH",
"1930 213 OFFCURVE",
"1734 9 OFFCURVE",
"1486 1 CURVE SMOOTH",
"1474 1 OFFCURVE",
"1468 6 OFFCURVE",
"1468 17 CURVE SMOOTH",
"1468 141 LINE SMOOTH",
"1468 153 OFFCURVE",
"1474 158 OFFCURVE",
"1486 158 CURVE",
"1644 166 OFFCURVE",
"1773 303 OFFCURVE",
"1773 459 CURVE SMOOTH",
"1773 624 OFFCURVE",
"1636 763 OFFCURVE",
"1468 763 CURVE SMOOTH",
"1318 763 LINE SMOOTH",
"1306 763 OFFCURVE",
"1302 768 OFFCURVE",
"1302 779 CURVE",
"1295 833 LINE SMOOTH",
"1275 1034 OFFCURVE",
"1102 1187 OFFCURVE",
"900 1187 CURVE SMOOTH",
"696 1187 OFFCURVE",
"527 1034 OFFCURVE",
"507 830 CURVE",
"500 783 LINE",
"500 771 OFFCURVE",
"494 766 OFFCURVE",
"483 766 CURVE",
"434 760 LINE SMOOTH",
"279 742 OFFCURVE",
"159 614 OFFCURVE",
"159 459 CURVE SMOOTH",
"159 303 OFFCURVE",
"288 166 OFFCURVE",
"447 158 CURVE",
"458 158 OFFCURVE",
"463 153 OFFCURVE",
"463 141 CURVE SMOOTH",
"463 17 LINE SMOOTH",
"463 6 OFFCURVE",
"458 1 OFFCURVE",
"447 1 CURVE SMOOTH",
"199 9 OFFCURVE",
"1 213 OFFCURVE",
"1 459 CURVE SMOOTH"
);
},
{
closed = 1;
nodes = (
"593 122 OFFCURVE",
"626 158 OFFCURVE",
"670 158 CURVE SMOOTH",
"714 158 OFFCURVE",
"747 122 OFFCURVE",
"747 81 CURVE SMOOTH",
"747 37 OFFCURVE",
"714 1 OFFCURVE",
"670 1 CURVE SMOOTH",
"626 1 OFFCURVE",
"593 37 OFFCURVE",
"593 81 CURVE SMOOTH"
);
},
{
closed = 1;
nodes = (
"602 -296 OFFCURVE",
"593 -278 OFFCURVE",
"593 -257 CURVE SMOOTH",
"593 -213 OFFCURVE",
"626 -180 OFFCURVE",
"670 -180 CURVE SMOOTH",
"714 -180 OFFCURVE",
"747 -213 OFFCURVE",
"747 -257 CURVE SMOOTH",
"747 -301 OFFCURVE",
"714 -333 OFFCURVE",
"670 -333 CURVE SMOOTH",
"649 -333 OFFCURVE",
"631 -325 OFFCURVE",
"616 -311 CURVE SMOOTH"
);
},
{
closed = 1;
nodes = (
"807 1548 LINE SMOOTH",
"792 1562 OFFCURVE",
"784 1582 OFFCURVE",
"784 1603 CURVE SMOOTH",
"784 1647 OFFCURVE",
"820 1683 OFFCURVE",
"866 1683 CURVE SMOOTH",
"887 1683 OFFCURVE",
"907 1675 OFFCURVE",
"921 1659 CURVE",
"980 1602 LINE",
"995 1585 OFFCURVE",
"1003 1566 OFFCURVE",
"1003 1543 CURVE SMOOTH",
"1003 1497 OFFCURVE",
"956 1458 OFFCURVE",
"918 1463 CURVE",
"899 1464 OFFCURVE",
"882 1473 OFFCURVE",
"868 1487 CURVE SMOOTH"
);
},
{
closed = 1;
nodes = (
"899 -139 OFFCURVE",
"890 -120 OFFCURVE",
"890 -98 CURVE SMOOTH",
"890 -54 OFFCURVE",
"926 -19 OFFCURVE",
"967 -19 CURVE SMOOTH",
"1011 -19 OFFCURVE",
"1047 -54 OFFCURVE",
"1047 -98 CURVE SMOOTH",
"1047 -143 OFFCURVE",
"1011 -177 OFFCURVE",
"967 -177 CURVE SMOOTH",
"946 -177 OFFCURVE",
"928 -169 OFFCURVE",
"913 -154 CURVE SMOOTH"
);
},
{
closed = 1;
nodes = (
"899 198 OFFCURVE",
"890 216 OFFCURVE",
"890 238 CURVE SMOOTH",
"890 282 OFFCURVE",
"926 316 OFFCURVE",
"967 316 CURVE SMOOTH",
"1011 316 OFFCURVE",
"1047 282 OFFCURVE",
"1047 238 CURVE SMOOTH",
"1047 194 OFFCURVE",
"1011 161 OFFCURVE",
"967 161 CURVE SMOOTH",
"946 161 OFFCURVE",
"928 169 OFFCURVE",
"913 184 CURVE SMOOTH"
);
},
{
closed = 1;
nodes = (
"899 -479 OFFCURVE",
"890 -461 OFFCURVE",
"890 -439 CURVE SMOOTH",
"890 -395 OFFCURVE",
"926 -360 OFFCURVE",
"967 -360 CURVE SMOOTH",
"1011 -360 OFFCURVE",
"1047 -395 OFFCURVE",
"1047 -439 CURVE SMOOTH",
"1047 -484 OFFCURVE",
"1011 -516 OFFCURVE",
"967 -516 CURVE SMOOTH",
"946 -516 OFFCURVE",
"928 -508 OFFCURVE",
"913 -493 CURVE SMOOTH"
);
},
{
closed = 1;
nodes = (
"1191 122 OFFCURVE",
"1225 158 OFFCURVE",
"1269 158 CURVE SMOOTH",
"1313 158 OFFCURVE",
"1346 122 OFFCURVE",
"1346 81 CURVE SMOOTH",
"1346 37 OFFCURVE",
"1313 1 OFFCURVE",
"1269 1 CURVE SMOOTH",
"1225 1 OFFCURVE",
"1191 37 OFFCURVE",
"1191 81 CURVE SMOOTH"
);
},
{
closed = 1;
nodes = (
"1199 -296 OFFCURVE",
"1191 -278 OFFCURVE",
"1191 -257 CURVE SMOOTH",
"1191 -213 OFFCURVE",
"1225 -180 OFFCURVE",
"1269 -180 CURVE SMOOTH",
"1313 -180 OFFCURVE",
"1346 -213 OFFCURVE",
"1346 -257 CURVE SMOOTH",
"1346 -301 OFFCURVE",
"1313 -333 OFFCURVE",
"1269 -333 CURVE SMOOTH",
"1248 -333 OFFCURVE",
"1228 -325 OFFCURVE",
"1213 -311 CURVE SMOOTH"
);
},
{
closed = 1;
nodes = (
"1360 1119 OFFCURVE",
"1412 1027 OFFCURVE",
"1439 920 CURVE",
"1468 920 LINE SMOOTH",
"1595 920 OFFCURVE",
"1703 876 OFFCURVE",
"1793 786 CURVE",
"1824 840 OFFCURVE",
"1840 897 OFFCURVE",
"1840 957 CURVE SMOOTH",
"1840 1138 OFFCURVE",
"1693 1287 OFFCURVE",
"1512 1287 CURVE SMOOTH",
"1424 1287 OFFCURVE",
"1347 1256 OFFCURVE",
"1282 1194 CURVE"
);
},
{
closed = 1;
nodes = (
"1432 1872 LINE SMOOTH",
"1432 1916 OFFCURVE",
"1468 1952 OFFCURVE",
"1512 1952 CURVE SMOOTH",
"1556 1952 OFFCURVE",
"1589 1916 OFFCURVE",
"1589 1872 CURVE SMOOTH",
"1589 1681 LINE SMOOTH",
"1589 1637 OFFCURVE",
"1556 1605 OFFCURVE",
"1512 1605 CURVE SMOOTH",
"1468 1605 OFFCURVE",
"1432 1637 OFFCURVE",
"1432 1681 CURVE SMOOTH"
);
},
{
closed = 1;
nodes = (
"1954 1429 OFFCURVE",
"1946 1447 OFFCURVE",
"1946 1469 CURVE SMOOTH",
"1946 1491 OFFCURVE",
"1954 1510 OFFCURVE",
"1970 1525 CURVE",
"2104 1662 LINE SMOOTH",
"2119 1677 OFFCURVE",
"2137 1685 OFFCURVE",
"2158 1685 CURVE SMOOTH",
"2202 1685 OFFCURVE",
"2238 1649 OFFCURVE",
"2238 1605 CURVE SMOOTH",
"2238 1584 OFFCURVE",
"2230 1564 OFFCURVE",
"2214 1548 CURVE SMOOTH",
"2080 1414 LINE",
"2047 1376 OFFCURVE",
"1995 1388 OFFCURVE",
"1970 1414 CURVE"
);
},
{
closed = 1;
nodes = (
"2044 311 LINE SMOOTH",
"2029 326 OFFCURVE",
"2021 345 OFFCURVE",
"2021 368 CURVE SMOOTH",
"2021 412 OFFCURVE",
"2055 448 OFFCURVE",
"2099 448 CURVE SMOOTH",
"2121 448 OFFCURVE",
"2140 440 OFFCURVE",
"2156 425 CURVE",
"2214 365 LINE",
"2230 350 OFFCURVE",
"2238 332 OFFCURVE",
"2238 311 CURVE SMOOTH",
"2238 265 OFFCURVE",
"2200 229 OFFCURVE",
"2163 229 CURVE SMOOTH",
"2145 229 OFFCURVE",
"2125 238 OFFCURVE",
"2104 252 CURVE"
);
},
{
closed = 1;
nodes = (
"2165 916 OFFCURVE",
"2156 936 OFFCURVE",
"2156 957 CURVE SMOOTH",
"2156 1001 OFFCURVE",
"2194 1037 OFFCURVE",
"2238 1037 CURVE SMOOTH",
"2427 1037 LINE SMOOTH",
"2471 1037 OFFCURVE",
"2507 1001 OFFCURVE",
"2507 957 CURVE SMOOTH",
"2507 913 OFFCURVE",
"2471 877 OFFCURVE",
"2427 877 CURVE SMOOTH",
"2238 877 LINE SMOOTH",
"2217 877 OFFCURVE",
"2197 885 OFFCURVE",
"2181 902 CURVE"
);
}
);
width = 2230;
}
);
unicode = F00A;
},
{
glyphname = "day-sprinkle";
lastChange = "2013-07-01 02:15:07 -0700";
layers = (
{
layerId = "1E718338-5C3C-490C-A197-65E7F37A33B6";
name = "Regular";
paths = (
{
closed = 1;
nodes = (
"-2 678 OFFCURVE",
"148 862 OFFCURVE",
"352 910 CURVE",
"409 1163 OFFCURVE",
"634 1344 OFFCURVE",
"897 1344 CURVE SMOOTH",
"988 1344 OFFCURVE",
"1071 1324 OFFCURVE",
"1148 1283 CURVE",
"1244 1391 OFFCURVE",
"1365 1445 OFFCURVE",
"1509 1445 CURVE SMOOTH",
"1776 1445 OFFCURVE",
"1996 1226 OFFCURVE",
"1996 957 CURVE SMOOTH",
"1996 841 OFFCURVE",
"1960 738 OFFCURVE",
"1887 649 CURVE",
"1913 592 OFFCURVE",
"1926 530 OFFCURVE",
"1926 463 CURVE SMOOTH",
"1926 215 OFFCURVE",
"1730 9 OFFCURVE",
"1482 1 CURVE SMOOTH",
"1471 1 OFFCURVE",
"1465 6 OFFCURVE",
"1465 17 CURVE SMOOTH",
"1465 141 LINE SMOOTH",
"1465 153 OFFCURVE",
"1471 158 OFFCURVE",
"1482 158 CURVE",
"1641 166 OFFCURVE",
"1770 301 OFFCURVE",
"1770 463 CURVE SMOOTH",
"1770 626 OFFCURVE",
"1629 763 OFFCURVE",
"1465 763 CURVE SMOOTH",
"1314 763 LINE SMOOTH",
"1303 763 OFFCURVE",
"1298 768 OFFCURVE",
"1298 779 CURVE",
"1292 833 LINE SMOOTH",
"1270 1034 OFFCURVE",
"1097 1187 OFFCURVE",
"897 1187 CURVE SMOOTH",
"693 1187 OFFCURVE",
"523 1034 OFFCURVE",
"504 833 CURVE SMOOTH",
"497 782 LINE",
"497 771 OFFCURVE",
"491 766 OFFCURVE",
"479 766 CURVE",
"430 763 LINE",
"275 745 OFFCURVE",
"156 618 OFFCURVE",
"156 463 CURVE SMOOTH",
"156 301 OFFCURVE",
"285 166 OFFCURVE",
"443 158 CURVE",
"455 158 OFFCURVE",
"460 153 OFFCURVE",
"460 141 CURVE SMOOTH",
"460 17 LINE SMOOTH",
"460 6 OFFCURVE",
"455 1 OFFCURVE",
"443 1 CURVE",
"195 12 OFFCURVE",
"-2 215 OFFCURVE",
"-2 463 CURVE SMOOTH"
);
},
{
closed = 1;
nodes = (
"549 433 OFFCURVE",
"605 521 OFFCURVE",
"650 569 CURVE",
"683 606 LINE",
"693 596 OFFCURVE",
"706 583 OFFCURVE",
"721 567 CURVE SMOOTH",
"750 533 OFFCURVE",
"814 433 OFFCURVE",
"814 381 CURVE SMOOTH",
"814 308 OFFCURVE",
"757 252 OFFCURVE",
"683 252 CURVE SMOOTH",
"610 252 OFFCURVE",
"549 309 OFFCURVE",
"549 381 CURVE SMOOTH"
);
},
{
closed = 1;
nodes = (
"804 1548 LINE SMOOTH",
"789 1562 OFFCURVE",
"781 1582 OFFCURVE",
"781 1605 CURVE SMOOTH",
"781 1649 OFFCURVE",
"815 1685 OFFCURVE",
"861 1685 CURVE SMOOTH",
"882 1685 OFFCURVE",
"902 1676 OFFCURVE",
"918 1662 CURVE",
"977 1601 LINE SMOOTH",
"991 1587 OFFCURVE",
"1000 1569 OFFCURVE",
"1000 1546 CURVE SMOOTH",
"1000 1523 OFFCURVE",
"991 1504 OFFCURVE",
"977 1487 CURVE",
"939 1456 OFFCURVE",
"902 1459 OFFCURVE",
"864 1487 CURVE"
);
},
{
closed = 1;
nodes = (
"827 65 OFFCURVE",
"861 138 OFFCURVE",
"903 197 CURVE SMOOTH",
"946 254 OFFCURVE",
"991 306 OFFCURVE",
"1022 334 CURVE",
"1044 355 LINE",
"1049 350 OFFCURVE",
"1057 342 OFFCURVE",
"1068 334 CURVE",
"1088 314 OFFCURVE",
"1148 247 OFFCURVE",
"1187 195 CURVE SMOOTH",
"1225 141 OFFCURVE",
"1262 65 OFFCURVE",
"1262 11 CURVE SMOOTH",
"1262 -108 OFFCURVE",
"1166 -206 OFFCURVE",
"1044 -206 CURVE SMOOTH",
"925 -206 OFFCURVE",
"827 -112 OFFCURVE",
"827 11 CURVE SMOOTH"
);
},
{
closed = 1;
nodes = (
"964 663 OFFCURVE",
"1001 722 OFFCURVE",
"1032 755 CURVE SMOOTH",
"1055 779 LINE",
"1112 719 OFFCURVE",
"1142 670 OFFCURVE",
"1142 629 CURVE SMOOTH",
"1142 582 OFFCURVE",
"1102 543 OFFCURVE",
"1055 543 CURVE SMOOTH",
"1005 543 OFFCURVE",
"964 582 OFFCURVE",
"964 629 CURVE SMOOTH"
);
},
{
closed = 1;
nodes = (
"1357 1119 OFFCURVE",
"1409 1027 OFFCURVE",
"1435 920 CURVE",
"1465 920 LINE SMOOTH",
"1592 920 OFFCURVE",
"1699 875 OFFCURVE",
"1789 786 CURVE",
"1820 843 OFFCURVE",
"1837 900 OFFCURVE",
"1837 957 CURVE SMOOTH",
"1837 1140 OFFCURVE",
"1691 1287 OFFCURVE",
"1509 1287 CURVE SMOOTH",
"1417 1287 OFFCURVE",
"1341 1256 OFFCURVE",
"1279 1194 CURVE"
);
},
{
closed = 1;
nodes = (
"1429 1875 LINE SMOOTH",
"1429 1920 OFFCURVE",
"1465 1952 OFFCURVE",
"1509 1952 CURVE SMOOTH",
"1553 1952 OFFCURVE",
"1585 1920 OFFCURVE",
"1585 1875 CURVE SMOOTH",
"1585 1685 LINE SMOOTH",
"1585 1641 OFFCURVE",
"1553 1605 OFFCURVE",
"1509 1605 CURVE SMOOTH",
"1465 1605 OFFCURVE",
"1429 1641 OFFCURVE",
"1429 1685 CURVE SMOOTH"
);
},
{
closed = 1;
nodes = (
"1951 1428 OFFCURVE",
"1943 1446 OFFCURVE",
"1943 1469 CURVE SMOOTH",
"1943 1492 OFFCURVE",
"1951 1512 OFFCURVE",
"1967 1528 CURVE SMOOTH",
"2101 1662 LINE SMOOTH",
"2115 1676 OFFCURVE",
"2133 1685 OFFCURVE",
"2155 1685 CURVE SMOOTH",
"2199 1685 OFFCURVE",
"2235 1652 OFFCURVE",
"2235 1606 CURVE SMOOTH",
"2235 1583 OFFCURVE",
"2226 1564 OFFCURVE",
"2210 1548 CURVE SMOOTH",
"2076 1414 LINE",
"2055 1399 OFFCURVE",
"2037 1391 OFFCURVE",
"2019 1391 CURVE SMOOTH",
"2001 1391 OFFCURVE",
"1983 1399 OFFCURVE",
"1967 1414 CURVE SMOOTH"
);
},
{
closed = 1;
nodes = (
"2040 311 LINE",
"2026 327 OFFCURVE",
"2018 347 OFFCURVE",
"2018 370 CURVE SMOOTH",
"2018 414 OFFCURVE",
"2052 448 OFFCURVE",
"2096 448 CURVE SMOOTH",
"2117 448 OFFCURVE",
"2137 440 OFFCURVE",
"2153 425 CURVE",
"2210 365 LINE",
"2226 350 OFFCURVE",
"2235 332 OFFCURVE",
"2235 311 CURVE SMOOTH",
"2235 288 OFFCURVE",
"2226 270 OFFCURVE",
"2210 256 CURVE",
"2197 239 OFFCURVE",
"2179 231 OFFCURVE",
"2156 231 CURVE SMOOTH",
"2132 231 OFFCURVE",
"2114 239 OFFCURVE",
"2101 256 CURVE"
);
},
{
closed = 1;
nodes = (
"2161 918 OFFCURVE",
"2153 936 OFFCURVE",
"2153 957 CURVE SMOOTH",
"2153 1001 OFFCURVE",
"2191 1037 OFFCURVE",
"2235 1037 CURVE SMOOTH",
"2424 1037 LINE SMOOTH",
"2468 1037 OFFCURVE",
"2504 1001 OFFCURVE",
"2504 957 CURVE SMOOTH",
"2504 913 OFFCURVE",
"2468 880 OFFCURVE",
"2424 880 CURVE SMOOTH",
"2235 880 LINE SMOOTH",
"2212 880 OFFCURVE",
"2192 889 OFFCURVE",
"2177 903 CURVE"
);
}
);
width = 2230;
}
);
unicode = F00B;
},
{
glyphname = "day-storm-showers";
lastChange = "2013-07-01 02:20:50 -0700";
layers = (
{
layerId = "1E718338-5C3C-490C-A197-65E7F37A33B6";
name = "Regular";
paths = (
{
closed = 1;
nodes = (
"-1 681 OFFCURVE",
"150 867 OFFCURVE",
"356 915 CURVE",
"413 1170 OFFCURVE",
"640 1353 OFFCURVE",
"905 1353 CURVE SMOOTH",
"997 1353 OFFCURVE",
"1081 1333 OFFCURVE",
"1158 1292 CURVE",
"1250 1390 OFFCURVE",
"1382 1451 OFFCURVE",
"1518 1451 CURVE SMOOTH",
"1788 1451 OFFCURVE",
"2010 1229 OFFCURVE",
"2010 959 CURVE SMOOTH",
"2010 843 OFFCURVE",
"1974 741 OFFCURVE",
"1903 652 CURVE",
"1930 594 OFFCURVE",
"1943 532 OFFCURVE",
"1943 464 CURVE SMOOTH",
"1943 214 OFFCURVE",
"1745 7 OFFCURVE",
"1495 -1 CURVE SMOOTH",
"1484 -1 OFFCURVE",
"1477 4 OFFCURVE",
"1477 15 CURVE SMOOTH",
"1477 140 LINE SMOOTH",
"1477 152 OFFCURVE",
"1484 157 OFFCURVE",
"1495 157 CURVE",
"1655 165 OFFCURVE",
"1782 302 OFFCURVE",
"1782 464 CURVE SMOOTH",
"1782 629 OFFCURVE",
"1643 767 OFFCURVE",
"1477 767 CURVE SMOOTH",
"1326 767 LINE SMOOTH",
"1315 767 OFFCURVE",
"1310 772 OFFCURVE",
"1310 783 CURVE",
"1303 838 LINE SMOOTH",
"1282 1040 OFFCURVE",
"1107 1195 OFFCURVE",
"905 1195 CURVE SMOOTH",
"699 1195 OFFCURVE",
"528 1040 OFFCURVE",
"509 838 CURVE SMOOTH",
"502 783 LINE",
"499 775 OFFCURVE",
"492 770 OFFCURVE",
"481 770 CURVE",
"434 767 LINE",
"277 749 OFFCURVE",
"158 622 OFFCURVE",
"158 464 CURVE SMOOTH",
"158 321 OFFCURVE",
"257 200 OFFCURVE",
"390 167 CURVE",
"490 436 LINE",
"495 445 OFFCURVE",
"504 450 OFFCURVE",
"512 450 CURVE SMOOTH",
"788 450 LINE SMOOTH",
"803 450 OFFCURVE",
"808 443 OFFCURVE",
"801 430 CURVE SMOOTH",
"569 -4 LINE",
"773 -4 LINE SMOOTH",
"787 -4 OFFCURVE",
"791 -16 OFFCURVE",
"785 -24 CURVE",
"285 -763 LINE",
"258 -763 LINE",
"484 -159 LINE",
"285 -159 LINE SMOOTH",
"273 -159 OFFCURVE",
"268 -152 OFFCURVE",
"272 -139 CURVE",
"333 19 LINE",
"137 73 OFFCURVE",
"-1 254 OFFCURVE",
"-1 464 CURVE SMOOTH"
);
},
{
closed = 1;
nodes = (
"791 -342 LINE",
"805 -300 OFFCURVE",
"849 -274 OFFCURVE",
"888 -287 CURVE",
"933 -296 OFFCURVE",
"958 -338 OFFCURVE",
"946 -384 CURVE SMOOTH",
"920 -480 LINE",
"913 -508 OFFCURVE",
"900 -526 OFFCURVE",
"880 -534 CURVE SMOOTH",
"869 -539 OFFCURVE",
"857 -541 OFFCURVE",
"844 -541 CURVE SMOOTH",
"836 -541 OFFCURVE",
"829 -539 OFFCURVE",
"821 -537 CURVE",
"780 -524 OFFCURVE",
"763 -486 OFFCURVE",
"763 -462 CURVE SMOOTH",
"763 -453 OFFCURVE",
"765 -447 OFFCURVE",
"767 -439 CURVE"
);
},
{
closed = 1;
nodes = (
"808 1555 LINE SMOOTH",
"793 1570 OFFCURVE",
"785 1589 OFFCURVE",
"785 1611 CURVE SMOOTH",
"785 1655 OFFCURVE",
"821 1690 OFFCURVE",
"867 1690 CURVE SMOOTH",
"888 1690 OFFCURVE",
"908 1682 OFFCURVE",
"923 1667 CURVE SMOOTH",
"982 1606 LINE SMOOTH",
"997 1591 OFFCURVE",
"1005 1573 OFFCURVE",
"1005 1550 CURVE SMOOTH",
"1005 1504 OFFCURVE",
"958 1464 OFFCURVE",
"920 1469 CURVE",
"900 1471 OFFCURVE",
"884 1479 OFFCURVE",
"869 1494 CURVE SMOOTH"
);
},
{
closed = 1;
nodes = (
"915 107 LINE",
"928 152 OFFCURVE",
"972 175 OFFCURVE",
"1013 163 CURVE SMOOTH",
"1058 150 OFFCURVE",
"1083 107 OFFCURVE",
"1071 66 CURVE SMOOTH",
"1043 -31 LINE SMOOTH",
"1028 -83 OFFCURVE",
"984 -100 OFFCURVE",
"946 -88 CURVE SMOOTH",
"902 -75 OFFCURVE",
"887 -41 OFFCURVE",
"888 -14 CURVE",
"888 -6 OFFCURVE",
"890 1 OFFCURVE",
"892 9 CURVE SMOOTH"
);
},
{
closed = 1;
nodes = (
"1181 -52 LINE SMOOTH",
"1193 -11 OFFCURVE",
"1236 15 OFFCURVE",
"1280 2 CURVE SMOOTH",
"1321 -9 OFFCURVE",
"1346 -50 OFFCURVE",
"1333 -95 CURVE",
"1310 -190 LINE",
"1301 -218 OFFCURVE",
"1288 -238 OFFCURVE",
"1268 -246 CURVE",
"1259 -251 OFFCURVE",
"1249 -253 OFFCURVE",
"1239 -253 CURVE SMOOTH",
"1231 -253 OFFCURVE",
"1221 -251 OFFCURVE",
"1213 -248 CURVE",
"1189 -240 OFFCURVE",
"1173 -225 OFFCURVE",
"1162 -207 CURVE",
"1155 -195 OFFCURVE",
"1152 -182 OFFCURVE",
"1152 -171 CURVE SMOOTH",
"1152 -164 OFFCURVE",
"1153 -157 OFFCURVE",
"1155 -149 CURVE"
);
},
{
closed = 1;
nodes = (
"1310 397 LINE",
"1323 438 OFFCURVE",
"1365 463 OFFCURVE",
"1407 450 CURVE",
"1451 441 OFFCURVE",
"1476 399 OFFCURVE",
"1464 353 CURVE SMOOTH",
"1438 259 LINE SMOOTH",
"1430 232 OFFCURVE",
"1416 214 OFFCURVE",
"1398 206 CURVE",
"1377 198 OFFCURVE",
"1356 196 OFFCURVE",
"1341 201 CURVE SMOOTH",
"1296 214 OFFCURVE",
"1280 251 OFFCURVE",
"1280 279 CURVE SMOOTH",
"1280 285 OFFCURVE",
"1282 292 OFFCURVE",
"1283 298 CURVE SMOOTH"
);
},
{
closed = 1;
nodes = (
"1369 1126 OFFCURVE",
"1421 1035 OFFCURVE",
"1448 925 CURVE",
"1477 925 LINE SMOOTH",
"1606 925 OFFCURVE",
"1714 881 OFFCURVE",
"1805 790 CURVE",
"1834 841 OFFCURVE",
"1849 897 OFFCURVE",
"1849 959 CURVE SMOOTH",
"1849 1142 OFFCURVE",
"1701 1288 OFFCURVE",
"1518 1288 CURVE SMOOTH",
"1430 1288 OFFCURVE",
"1354 1259 OFFCURVE",
"1290 1198 CURVE"
);
},
{
closed = 1;
nodes = (
"1438 1882 LINE SMOOTH",
"1438 1927 OFFCURVE",
"1474 1963 OFFCURVE",
"1518 1963 CURVE SMOOTH",
"1563 1963 OFFCURVE",
"1596 1927 OFFCURVE",
"1596 1882 CURVE SMOOTH",
"1596 1690 LINE SMOOTH",
"1596 1645 OFFCURVE",
"1563 1609 OFFCURVE",
"1518 1609 CURVE SMOOTH",
"1474 1609 OFFCURVE",
"1438 1645 OFFCURVE",
"1438 1690 CURVE SMOOTH"
);
},
{
closed = 1;
nodes = (
"1966 1435 OFFCURVE",
"1959 1455 OFFCURVE",
"1959 1476 CURVE SMOOTH",
"1959 1497 OFFCURVE",
"1966 1517 OFFCURVE",
"1981 1532 CURVE SMOOTH",
"2116 1667 LINE",
"2130 1683 OFFCURVE",
"2148 1691 OFFCURVE",
"2170 1691 CURVE SMOOTH",
"2191 1691 OFFCURVE",
"2211 1683 OFFCURVE",
"2226 1667 CURVE",
"2242 1652 OFFCURVE",
"2250 1634 OFFCURVE",
"2250 1611 CURVE SMOOTH",
"2250 1588 OFFCURVE",
"2242 1570 OFFCURVE",
"2226 1555 CURVE",
"2091 1420 LINE",
"2058 1382 OFFCURVE",
"2005 1394 OFFCURVE",
"1981 1420 CURVE SMOOTH"
);
},
{
closed = 1;
nodes = (
"2055 308 LINE SMOOTH",
"2040 323 OFFCURVE",
"2032 343 OFFCURVE",
"2032 364 CURVE SMOOTH",
"2032 408 OFFCURVE",
"2066 445 OFFCURVE",
"2111 445 CURVE SMOOTH",
"2132 445 OFFCURVE",
"2152 436 OFFCURVE",
"2168 420 CURVE SMOOTH",
"2226 362 LINE SMOOTH",
"2242 346 OFFCURVE",
"2250 326 OFFCURVE",
"2250 305 CURVE SMOOTH",
"2250 283 OFFCURVE",
"2242 264 OFFCURVE",
"2226 249 CURVE",
"2213 232 OFFCURVE",
"2196 224 OFFCURVE",
"2175 224 CURVE SMOOTH",
"2175 224 OFFCURVE",
"2175 224 OFFCURVE",
"2173 226 CURVE",
"2152 226 OFFCURVE",
"2132 234 OFFCURVE",
"2116 249 CURVE"
);
},
{
closed = 1;
nodes = (
"2176 918 OFFCURVE",
"2168 938 OFFCURVE",
"2168 959 CURVE SMOOTH",
"2168 1004 OFFCURVE",
"2204 1037 OFFCURVE",
"2249 1037 CURVE SMOOTH",
"2441 1037 LINE SMOOTH",
"2486 1037 OFFCURVE",
"2522 1004 OFFCURVE",
"2522 959 CURVE SMOOTH",
"2522 915 OFFCURVE",
"2486 879 OFFCURVE",
"2441 879 CURVE SMOOTH",
"2249 879 LINE SMOOTH",
"2227 879 OFFCURVE",
"2208 887 OFFCURVE",
"2193 904 CURVE"
);
}
);
width = 2230;
}
);
unicode = F00E;
},
{
glyphname = "day-sunny";
lastChange = "2013-07-01 02:19:38 -0700";
layers = (
{
layerId = "1E718338-5C3C-490C-A197-65E7F37A33B6";
name = "Regular";
paths = (
{
closed = 1;
nodes = (
"-209 716 OFFCURVE",
"-217 696 OFFCURVE",
"-217 675 CURVE SMOOTH",
"-217 631 OFFCURVE",
"-181 595 OFFCURVE",
"-137 595 CURVE SMOOTH",
"53 595 LINE SMOOTH",
"97 595 OFFCURVE",
"129 631 OFFCURVE",
"129 675 CURVE SMOOTH",
"129 719 OFFCURVE",
"97 755 OFFCURVE",
"53 755 CURVE SMOOTH",
"-137 755 LINE SMOOTH",
"-158 755 OFFCURVE",
"-178 746 OFFCURVE",
"-193 732 CURVE SMOOTH"
);
},
{
closed = 1;
nodes = (
"72 85 LINE",
"58 69 OFFCURVE",
"50 49 OFFCURVE",
"50 28 CURVE SMOOTH",
"50 7 OFFCURVE",
"58 -12 OFFCURVE",
"72 -27 CURVE",
"110 -56 OFFCURVE",
"149 -56 OFFCURVE",
"186 -27 CURVE",
"319 106 LINE",
"334 123 OFFCURVE",
"342 142 OFFCURVE",
"342 165 CURVE SMOOTH",
"342 209 OFFCURVE",
"308 240 OFFCURVE",
"264 240 CURVE SMOOTH",
"243 240 OFFCURVE",
"223 233 OFFCURVE",
"209 218 CURVE SMOOTH"
);
},
{
closed = 1;
nodes = (
"58 1361 OFFCURVE",
"50 1341 OFFCURVE",
"50 1320 CURVE SMOOTH",
"50 1297 OFFCURVE",
"58 1278 OFFCURVE",
"72 1263 CURVE SMOOTH",
"209 1130 LINE SMOOTH",
"223 1115 OFFCURVE",
"243 1107 OFFCURVE",
"264 1107 CURVE SMOOTH",
"308 1107 OFFCURVE",
"342 1141 OFFCURVE",
"342 1185 CURVE SMOOTH",
"342 1206 OFFCURVE",
"334 1226 OFFCURVE",
"319 1240 CURVE SMOOTH",
"186 1377 LINE SMOOTH",
"171 1391 OFFCURVE",
"152 1400 OFFCURVE",
"131 1400 CURVE SMOOTH",
"108 1400 OFFCURVE",
"89 1391 OFFCURVE",
"72 1377 CURVE"
);
},
{
closed = 1;
nodes = (
"288 407 OFFCURVE",
"508 189 OFFCURVE",
"774 189 CURVE SMOOTH",
"1041 189 OFFCURVE",
"1260 407 OFFCURVE",
"1260 675 CURVE SMOOTH",
"1260 941 OFFCURVE",
"1041 1161 OFFCURVE",
"774 1161 CURVE SMOOTH",
"508 1161 OFFCURVE",
"288 941 OFFCURVE",
"288 675 CURVE SMOOTH"
);
},
{
closed = 1;
nodes = (
"446 855 OFFCURVE",
"594 1000 OFFCURVE",
"774 1000 CURVE SMOOTH",
"956 1000 OFFCURVE",
"1104 855 OFFCURVE",
"1104 675 CURVE SMOOTH",
"1104 493 OFFCURVE",
"956 345 OFFCURVE",
"774 345 CURVE SMOOTH",
"592 345 OFFCURVE",
"446 493 OFFCURVE",
"446 675 CURVE SMOOTH"
);
},
{
closed = 1;
nodes = (
"695 -236 LINE SMOOTH",
"695 -282 OFFCURVE",
"730 -318 OFFCURVE",
"774 -318 CURVE SMOOTH",
"818 -318 OFFCURVE",
"854 -282 OFFCURVE",
"854 -236 CURVE SMOOTH",
"854 -51 LINE SMOOTH",
"854 -6 OFFCURVE",
"820 28 OFFCURVE",
"774 28 CURVE SMOOTH",
"729 28 OFFCURVE",
"695 -6 OFFCURVE",
"695 -51 CURVE SMOOTH"
);
},
{
closed = 1;
nodes = (
"695 1396 LINE SMOOTH",
"695 1352 OFFCURVE",
"730 1320 OFFCURVE",
"774 1320 CURVE SMOOTH",
"818 1320 OFFCURVE",
"854 1352 OFFCURVE",
"854 1396 CURVE SMOOTH",
"854 1586 LINE SMOOTH",
"854 1630 OFFCURVE",
"818 1666 OFFCURVE",
"774 1666 CURVE SMOOTH",
"730 1666 OFFCURVE",
"695 1630 OFFCURVE",
"695 1586 CURVE SMOOTH"
);
},
{
closed = 1;
nodes = (
"1216 204 OFFCURVE",
"1210 186 OFFCURVE",
"1210 165 CURVE SMOOTH",
"1210 142 OFFCURVE",
"1216 123 OFFCURVE",
"1231 106 CURVE",
"1364 -27 LINE",
"1401 -56 OFFCURVE",
"1439 -56 OFFCURVE",
"1476 -27 CURVE",
"1491 -12 OFFCURVE",
"1499 7 OFFCURVE",
"1499 28 CURVE SMOOTH",
"1499 49 OFFCURVE",
"1491 69 OFFCURVE",
"1476 85 CURVE",
"1340 218 LINE SMOOTH",
"1325 233 OFFCURVE",
"1305 240 OFFCURVE",
"1284 240 CURVE SMOOTH",
"1263 240 OFFCURVE",
"1245 233 OFFCURVE",
"1231 218 CURVE SMOOTH"
);
},
{
closed = 1;
nodes = (
"1231 1240 LINE SMOOTH",
"1216 1226 OFFCURVE",
"1210 1206 OFFCURVE",
"1210 1185 CURVE SMOOTH",
"1210 1141 OFFCURVE",
"1242 1107 OFFCURVE",
"1284 1107 CURVE SMOOTH",
"1305 1107 OFFCURVE",
"1323 1115 OFFCURVE",
"1340 1130 CURVE",
"1476 1263 LINE SMOOTH",
"1491 1278 OFFCURVE",
"1499 1297 OFFCURVE",
"1499 1320 CURVE SMOOTH",
"1499 1364 OFFCURVE",
"1463 1400 OFFCURVE",
"1419 1400 CURVE SMOOTH",
"1396 1400 OFFCURVE",
"1379 1391 OFFCURVE",
"1364 1377 CURVE SMOOTH"
);
},
{
closed = 1;
nodes = (
"1429 716 OFFCURVE",
"1421 696 OFFCURVE",
"1421 675 CURVE SMOOTH",
"1421 631 OFFCURVE",
"1453 595 OFFCURVE",
"1497 595 CURVE SMOOTH",
"1686 595 LINE SMOOTH",
"1729 595 OFFCURVE",
"1767 631 OFFCURVE",
"1767 675 CURVE SMOOTH",
"1767 719 OFFCURVE",
"1729 755 OFFCURVE",
"1686 755 CURVE SMOOTH",
"1497 755 LINE SMOOTH",
"1476 755 OFFCURVE",
"1458 746 OFFCURVE",
"1444 732 CURVE"
);
}
);
width = 1600;
}
);
unicode = F00D;
},
{
glyphname = "day-sunny-overcast";
lastChange = "2013-07-01 02:17:53 -0700";
layers = (
{
layerId = "1E718338-5C3C-490C-A197-65E7F37A33B6";
name = "Regular";
paths = (
{
closed = 1;
nodes = (
"-247 841 OFFCURVE",
"-208 879 OFFCURVE",
"-153 879 CURVE SMOOTH",
"4 879 LINE SMOOTH",
"56 879 OFFCURVE",
"95 840 OFFCURVE",
"95 787 CURVE SMOOTH",
"95 737 OFFCURVE",
"54 700 OFFCURVE",
"4 700 CURVE SMOOTH",
"-153 700 LINE SMOOTH",
"-208 700 OFFCURVE",
"-247 737 OFFCURVE",
"-247 787 CURVE SMOOTH"
);
},
{
closed = 1;
nodes = (
"-82 357 OFFCURVE",
"11 478 OFFCURVE",
"151 522 CURVE",
"181 624 OFFCURVE",
"242 702 OFFCURVE",
"336 755 CURVE",
"336 787 LINE SMOOTH",
"336 1096 OFFCURVE",
"583 1347 OFFCURVE",
"895 1347 CURVE SMOOTH",
"1202 1347 OFFCURVE",
"1454 1096 OFFCURVE",
"1454 787 CURVE SMOOTH",
"1454 598 OFFCURVE",
"1357 423 OFFCURVE",
"1202 324 CURVE",
"1215 292 OFFCURVE",
"1221 254 OFFCURVE",
"1221 209 CURVE SMOOTH",
"1221 24 OFFCURVE",
"1073 -125 OFFCURVE",
"892 -125 CURVE SMOOTH",
"252 -125 LINE SMOOTH",
"71 -125 OFFCURVE",
"-82 28 OFFCURVE",
"-82 209 CURVE SMOOTH"
);
},
{
closed = 1;
nodes = (
"88 1468 LINE SMOOTH",
"71 1484 OFFCURVE",
"64 1507 OFFCURVE",
"64 1531 CURVE SMOOTH",
"64 1582 OFFCURVE",
"98 1622 OFFCURVE",
"151 1622 CURVE SMOOTH",
"176 1622 OFFCURVE",
"198 1612 OFFCURVE",
"216 1595 CURVE",
"370 1442 LINE SMOOTH",
"386 1425 OFFCURVE",
"396 1402 OFFCURVE",
"396 1376 CURVE SMOOTH",
"396 1350 OFFCURVE",
"386 1327 OFFCURVE",
"370 1311 CURVE",
"327 1279 OFFCURVE",
"282 1279 OFFCURVE",
"239 1311 CURVE"
);
},
{
closed = 1;
nodes = (
"103 125 OFFCURVE",
"168 57 OFFCURVE",
"252 57 CURVE SMOOTH",
"892 57 LINE SMOOTH",
"972 57 OFFCURVE",
"1041 125 OFFCURVE",
"1041 209 CURVE SMOOTH",
"1041 290 OFFCURVE",
"972 357 OFFCURVE",
"892 357 CURVE SMOOTH",
"769 357 LINE SMOOTH",
"759 357 OFFCURVE",
"751 365 OFFCURVE",
"746 378 CURVE",
"738 438 LINE SMOOTH",
"725 544 OFFCURVE",
"637 627 OFFCURVE",
"527 627 CURVE SMOOTH",
"420 627 OFFCURVE",
"334 544 OFFCURVE",
"321 438 CURVE",
"312 386 LINE",
"312 373 OFFCURVE",
"307 365 OFFCURVE",
"294 365 CURVE",
"236 357 LINE SMOOTH",
"158 350 OFFCURVE",
"103 287 OFFCURVE",
"103 209 CURVE SMOOTH"
);
},
{
closed = 1;
nodes = (
"527 806 LINE SMOOTH",
"699 806 OFFCURVE",
"848 702 OFFCURVE",
"903 538 CURVE",
"972 538 OFFCURVE",
"1036 517 OFFCURVE",
"1093 470 CURVE",
"1200 537 OFFCURVE",
"1269 655 OFFCURVE",
"1269 787 CURVE SMOOTH",
"1269 998 OFFCURVE",
"1103 1167 OFFCURVE",
"895 1167 CURVE SMOOTH",
"691 1167 OFFCURVE",
"529 1010 OFFCURVE",
"516 806 CURVE"
);
},
{
closed = 1;
nodes = (
"804 1841 LINE SMOOTH",
"804 1891 OFFCURVE",
"845 1928 OFFCURVE",
"895 1928 CURVE SMOOTH",
"946 1928 OFFCURVE",
"987 1891 OFFCURVE",
"987 1841 CURVE SMOOTH",
"987 1622 LINE SMOOTH",
"987 1570 OFFCURVE",
"946 1530 OFFCURVE",
"895 1530 CURVE SMOOTH",
"845 1530 OFFCURVE",
"804 1570 OFFCURVE",
"804 1622 CURVE SMOOTH"
);
},
{
closed = 1;
nodes = (
"1419 136 LINE SMOOTH",
"1402 154 OFFCURVE",
"1394 175 OFFCURVE",
"1394 201 CURVE SMOOTH",
"1394 251 OFFCURVE",
"1430 290 OFFCURVE",
"1482 290 CURVE SMOOTH",
"1509 290 OFFCURVE",
"1529 282 OFFCURVE",
"1546 266 CURVE SMOOTH",
"1703 109 LINE SMOOTH",
"1720 92 OFFCURVE",
"1728 71 OFFCURVE",
"1728 47 CURVE SMOOTH",
"1728 23 OFFCURVE",
"1720 0 OFFCURVE",
"1703 -16 CURVE",
"1650 -60 OFFCURVE",
"1604 -49 OFFCURVE",
"1572 -16 CURVE SMOOTH"
);
},
{
closed = 1;
nodes = (
"1402 1329 OFFCURVE",
"1394 1352 OFFCURVE",
"1394 1378 CURVE SMOOTH",
"1394 1402 OFFCURVE",
"1402 1425 OFFCURVE",
"1419 1442 CURVE SMOOTH",
"1572 1595 LINE SMOOTH",
"1589 1612 OFFCURVE",
"1610 1622 OFFCURVE",
"1636 1622 CURVE SMOOTH",
"1688 1622 OFFCURVE",
"1728 1582 OFFCURVE",
"1728 1531 CURVE SMOOTH",
"1728 1507 OFFCURVE",
"1720 1484 OFFCURVE",
"1703 1468 CURVE SMOOTH",
"1546 1311 LINE SMOOTH",
"1529 1294 OFFCURVE",
"1509 1285 OFFCURVE",
"1482 1285 CURVE SMOOTH",
"1456 1285 OFFCURVE",
"1436 1294 OFFCURVE",
"1419 1311 CURVE"
);
},
{
closed = 1;
nodes = (
"1635 841 OFFCURVE",
"1674 879 OFFCURVE",
"1729 879 CURVE SMOOTH",
"1886 879 LINE SMOOTH",
"1938 879 OFFCURVE",
"1977 840 OFFCURVE",
"1977 787 CURVE SMOOTH",
"1977 737 OFFCURVE",
"1936 700 OFFCURVE",
"1886 700 CURVE SMOOTH",
"1729 700 LINE SMOOTH",
"1674 700 OFFCURVE",
"1635 737 OFFCURVE",
"1635 787 CURVE SMOOTH"
);
}
);
width = 1725;
}
);
unicode = F00C;
},
{
glyphname = "day-thunderstorms";
lastChange = "2013-07-01 02:21:58 -0700";
layers = (
{
layerId = "1E718338-5C3C-490C-A197-65E7F37A33B6";
name = "Regular";
paths = (
{
closed = 1;
nodes = (
"-1 679 OFFCURVE",
"149 864 OFFCURVE",
"354 911 CURVE",
"411 1165 OFFCURVE",
"637 1347 OFFCURVE",
"901 1347 CURVE SMOOTH",
"993 1347 OFFCURVE",
"1076 1327 OFFCURVE",
"1153 1286 CURVE",
"1250 1394 OFFCURVE",
"1371 1448 OFFCURVE",
"1515 1448 CURVE SMOOTH",
"1784 1448 OFFCURVE",
"2005 1227 OFFCURVE",
"2005 959 CURVE SMOOTH",
"2005 842 OFFCURVE",
"1969 739 OFFCURVE",
"1895 649 CURVE",
"1922 592 OFFCURVE",
"1935 530 OFFCURVE",
"1935 462 CURVE SMOOTH",
"1935 213 OFFCURVE",
"1738 7 OFFCURVE",
"1489 -1 CURVE SMOOTH",
"1478 -1 OFFCURVE",
"1471 4 OFFCURVE",
"1471 15 CURVE SMOOTH",
"1471 143 LINE SMOOTH",
"1471 154 OFFCURVE",
"1478 159 OFFCURVE",
"1489 159 CURVE",
"1651 171 OFFCURVE",
"1777 304 OFFCURVE",
"1777 462 CURVE SMOOTH",
"1777 628 OFFCURVE",
"1640 764 OFFCURVE",
"1471 764 CURVE SMOOTH",
"1320 764 LINE SMOOTH",
"1309 764 OFFCURVE",
"1304 769 OFFCURVE",
"1304 780 CURVE",
"1298 834 LINE SMOOTH",
"1276 1036 OFFCURVE",
"1103 1190 OFFCURVE",
"901 1190 CURVE SMOOTH",
"696 1190 OFFCURVE",
"526 1036 OFFCURVE",
"506 834 CURVE",
"500 787 LINE",
"500 775 OFFCURVE",
"493 770 OFFCURVE",
"482 770 CURVE",
"433 764 LINE SMOOTH",
"277 746 OFFCURVE",
"157 618 OFFCURVE",
"157 462 CURVE SMOOTH",
"157 323 OFFCURVE",
"256 199 OFFCURVE",
"388 166 CURVE",
"488 435 LINE",
"493 443 OFFCURVE",
"501 448 OFFCURVE",
"510 448 CURVE SMOOTH",
"785 448 LINE SMOOTH",
"800 448 OFFCURVE",
"804 441 OFFCURVE",
"798 428 CURVE SMOOTH",
"567 -4 LINE",
"770 -4 LINE SMOOTH",
"783 -4 OFFCURVE",
"788 -16 OFFCURVE",
"782 -24 CURVE",
"284 -759 LINE",
"257 -759 LINE",
"482 -158 LINE",
"284 -158 LINE SMOOTH",
"272 -158 OFFCURVE",
"267 -152 OFFCURVE",
"271 -139 CURVE",
"331 19 LINE",
"136 78 OFFCURVE",
"-1 254 OFFCURVE",
"-1 462 CURVE SMOOTH"
);
},
{
closed = 1;
nodes = (
"972 395 LINE SMOOTH",
"983 436 OFFCURVE",
"1026 461 OFFCURVE",
"1070 448 CURVE SMOOTH",
"1111 436 OFFCURVE",
"1135 395 OFFCURVE",
"1122 351 CURVE SMOOTH",
"862 -606 LINE SMOOTH",
"849 -651 OFFCURVE",
"808 -664 OFFCURVE",
"783 -664 CURVE SMOOTH",
"777 -664 OFFCURVE",
"770 -663 OFFCURVE",
"764 -661 CURVE",
"723 -646 OFFCURVE",
"706 -614 OFFCURVE",
"708 -589 CURVE",
"708 -581 OFFCURVE",
"709 -573 OFFCURVE",
"711 -565 CURVE"
);
},
{
closed = 1;
nodes = (
"808 1552 LINE SMOOTH",
"793 1566 OFFCURVE",
"785 1586 OFFCURVE",
"785 1607 CURVE SMOOTH",
"785 1652 OFFCURVE",
"819 1686 OFFCURVE",
"865 1686 CURVE SMOOTH",
"886 1686 OFFCURVE",
"906 1678 OFFCURVE",
"922 1663 CURVE",
"981 1602 LINE SMOOTH",
"996 1588 OFFCURVE",
"1004 1570 OFFCURVE",
"1004 1547 CURVE SMOOTH",
"1004 1524 OFFCURVE",
"996 1506 OFFCURVE",
"978 1491 CURVE",
"952 1458 OFFCURVE",
"899 1460 OFFCURVE",
"868 1491 CURVE SMOOTH"
);
},
{
closed = 1;
nodes = (
"1284 395 LINE SMOOTH",
"1296 436 OFFCURVE",
"1337 461 OFFCURVE",
"1381 448 CURVE SMOOTH",
"1422 436 OFFCURVE",
"1448 395 OFFCURVE",
"1435 351 CURVE SMOOTH",
"1250 -324 LINE",
"1243 -352 OFFCURVE",
"1230 -370 OFFCURVE",
"1211 -378 CURVE",
"1201 -383 OFFCURVE",
"1191 -384 OFFCURVE",
"1181 -384 CURVE SMOOTH",
"1173 -384 OFFCURVE",
"1163 -383 OFFCURVE",
"1153 -379 CURVE",
"1132 -370 OFFCURVE",
"1117 -357 OFFCURVE",
"1106 -339 CURVE",
"1099 -327 OFFCURVE",
"1096 -316 OFFCURVE",
"1096 -304 CURVE SMOOTH",
"1096 -298 OFFCURVE",
"1098 -291 OFFCURVE",
"1099 -283 CURVE"
);
},
{
closed = 1;
nodes = (
"1361 1123 OFFCURVE",
"1414 1031 OFFCURVE",
"1442 924 CURVE",
"1471 924 LINE SMOOTH",
"1597 924 OFFCURVE",
"1705 878 OFFCURVE",
"1797 787 CURVE",
"1828 841 OFFCURVE",
"1845 898 OFFCURVE",
"1845 959 CURVE SMOOTH",
"1845 1141 OFFCURVE",
"1697 1286 OFFCURVE",
"1515 1286 CURVE SMOOTH",
"1425 1286 OFFCURVE",
"1348 1257 OFFCURVE",
"1284 1196 CURVE"
);
},
{
closed = 1;
nodes = (
"1435 1878 LINE SMOOTH",
"1435 1922 OFFCURVE",
"1471 1958 OFFCURVE",
"1515 1958 CURVE SMOOTH",
"1560 1958 OFFCURVE",
"1592 1922 OFFCURVE",
"1592 1878 CURVE SMOOTH",
"1592 1686 LINE SMOOTH",
"1592 1642 OFFCURVE",
"1560 1606 OFFCURVE",
"1515 1606 CURVE SMOOTH",
"1471 1606 OFFCURVE",
"1435 1642 OFFCURVE",
"1435 1686 CURVE SMOOTH"
);
},
{
closed = 1;
nodes = (
"1959 1432 OFFCURVE",
"1951 1450 OFFCURVE",
"1951 1473 CURVE SMOOTH",
"1951 1494 OFFCURVE",
"1959 1514 OFFCURVE",
"1976 1529 CURVE",
"2110 1663 LINE",
"2125 1679 OFFCURVE",
"2143 1688 OFFCURVE",
"2164 1688 CURVE SMOOTH",
"2208 1688 OFFCURVE",
"2244 1652 OFFCURVE",
"2244 1607 CURVE SMOOTH",
"2244 1586 OFFCURVE",
"2236 1566 OFFCURVE",
"2220 1552 CURVE",
"2085 1417 LINE SMOOTH",
"2054 1386 OFFCURVE",
"2002 1385 OFFCURVE",
"1976 1417 CURVE"
);
},
{
closed = 1;
nodes = (
"2049 310 LINE SMOOTH",
"2035 325 OFFCURVE",
"2026 344 OFFCURVE",
"2026 366 CURVE SMOOTH",
"2026 410 OFFCURVE",
"2061 446 OFFCURVE",
"2105 446 CURVE SMOOTH",
"2126 446 OFFCURVE",
"2144 438 OFFCURVE",
"2159 421 CURVE",
"2220 364 LINE SMOOTH",
"2236 348 OFFCURVE",
"2244 328 OFFCURVE",
"2244 307 CURVE SMOOTH",
"2244 284 OFFCURVE",
"2236 266 OFFCURVE",
"2220 251 CURVE",
"2205 235 OFFCURVE",
"2189 227 OFFCURVE",
"2171 227 CURVE",
"2166 228 OFFCURVE",
"2162 228 OFFCURVE",
"2161 228 CURVE",
"2139 230 OFFCURVE",
"2121 238 OFFCURVE",
"2110 251 CURVE"
);
},
{
closed = 1;
nodes = (
"2171 918 OFFCURVE",
"2162 937 OFFCURVE",
"2162 959 CURVE SMOOTH",
"2162 1003 OFFCURVE",
"2198 1036 OFFCURVE",
"2244 1036 CURVE SMOOTH",
"2434 1036 LINE SMOOTH",
"2478 1036 OFFCURVE",
"2515 1003 OFFCURVE",
"2515 959 CURVE SMOOTH",
"2515 915 OFFCURVE",
"2478 878 OFFCURVE",
"2434 878 CURVE SMOOTH",
"2244 878 LINE SMOOTH",
"2223 878 OFFCURVE",
"2203 887 OFFCURVE",
"2187 903 CURVE"
);
}
);
width = 2230;
}
);
unicode = F010;
},
{
glyphname = "degrees";
lastChange = "2013-07-01 23:30:02 -0700";
layers = (
{
layerId = "1E718338-5C3C-490C-A197-65E7F37A33B6";
name = "Regular";
paths = (
{
closed = 1;
nodes = (
"14 1267 OFFCURVE",
"-3 1227 OFFCURVE",
"-3 1180 CURVE SMOOTH",
"-3 1087 OFFCURVE",
"74 1010 OFFCURVE",
"167 1010 CURVE SMOOTH",
"259 1010 OFFCURVE",
"335 1087 OFFCURVE",
"335 1180 CURVE SMOOTH",
"335 1273 OFFCURVE",
"259 1350 OFFCURVE",
"167 1350 CURVE SMOOTH",
"120 1350 OFFCURVE",
"80 1333 OFFCURVE",
"47 1300 CURVE SMOOTH"
);
},
{
closed = 1;
nodes = (
"88 1135 OFFCURVE",
"79 1155 OFFCURVE",
"79 1180 CURVE SMOOTH",
"79 1229 OFFCURVE",
"118 1268 OFFCURVE",
"167 1268 CURVE SMOOTH",
"215 1268 OFFCURVE",
"255 1228 OFFCURVE",
"255 1180 CURVE SMOOTH",
"255 1132 OFFCURVE",
"215 1092 OFFCURVE",
"167 1092 CURVE SMOOTH",
"142 1092 OFFCURVE",
"122 1101 OFFCURVE",
"105 1118 CURVE SMOOTH"
);
}
);
width = 330;
}
);
unicode = F042;
},
{
glyphname = "down";
lastChange = "2013-07-01 23:31:14 -0700";
layers = (
{
layerId = "1E718338-5C3C-490C-A197-65E7F37A33B6";
name = "Regular";
paths = (
{
closed = 1;
nodes = (
"19 451 LINE",
"3 465 OFFCURVE",
"-5 482 OFFCURVE",
"-5 502 CURVE SMOOTH",
"-5 544 OFFCURVE",
"28 577 OFFCURVE",
"70 577 CURVE SMOOTH",
"90 577 OFFCURVE",
"108 569 OFFCURVE",
"122 555 CURVE SMOOTH",
"221 457 LINE",
"221 1072 LINE SMOOTH",
"221 1114 OFFCURVE",
"256 1145 OFFCURVE",
"297 1145 CURVE SMOOTH",
"339 1145 OFFCURVE",
"373 1114 OFFCURVE",
"373 1072 CURVE SMOOTH",
"373 457 LINE",
"472 555 LINE SMOOTH",
"486 569 OFFCURVE",
"505 577 OFFCURVE",
"525 577 CURVE SMOOTH",
"567 577 OFFCURVE",
"599 544 OFFCURVE",
"599 502 CURVE SMOOTH",
"599 482 OFFCURVE",
"592 465 OFFCURVE",
"576 451 CURVE",
"352 222 LINE SMOOTH",
"338 208 OFFCURVE",
"319 200 OFFCURVE",
"297 200 CURVE SMOOTH",
"276 200 OFFCURVE",
"257 208 OFFCURVE",
"243 222 CURVE SMOOTH"
);
}
);
width = 600;
}
);
unicode = F044;
},
{
glyphname = "down-left";
lastChange = "2013-07-01 23:30:31 -0700";
layers = (
{
layerId = "1E718338-5C3C-490C-A197-65E7F37A33B6";
name = "Regular";
paths = (
{
closed = 1;
nodes = (
"5 741 LINE SMOOTH",
"5 776 OFFCURVE",
"32 804 OFFCURVE",
"67 804 CURVE SMOOTH",
"103 804 OFFCURVE",
"130 777 OFFCURVE",
"130 741 CURVE SMOOTH",
"130 625 LINE",
"491 986 LINE SMOOTH",
"503 998 OFFCURVE",
"517 1003 OFFCURVE",
"535 1003 CURVE SMOOTH",
"553 1003 OFFCURVE",
"569 998 OFFCURVE",
"582 986 CURVE",
"593 974 OFFCURVE",
"598 959 OFFCURVE",
"598 943 CURVE SMOOTH",
"598 926 OFFCURVE",
"593 910 OFFCURVE",
"582 897 CURVE",
"219 535 LINE",
"335 535 LINE SMOOTH",
"370 535 OFFCURVE",
"397 509 OFFCURVE",
"397 474 CURVE SMOOTH",
"397 437 OFFCURVE",
"370 411 OFFCURVE",
"335 411 CURVE SMOOTH",
"67 411 LINE SMOOTH",
"32 411 OFFCURVE",
"5 437 OFFCURVE",
"5 474 CURVE SMOOTH"
);
}
);
width = 600;
}
);
unicode = F043;
},
{
glyphname = "fahrenheit-wi";
lastChange = "2013-07-01 23:32:21 -0700";
layers = (
{
layerId = "1E718338-5C3C-490C-A197-65E7F37A33B6";
name = "Regular";
paths = (
{
closed = 1;
nodes = (
"20 1099 OFFCURVE",
"3 1059 OFFCURVE",
"3 1012 CURVE SMOOTH",
"3 919 OFFCURVE",
"80 842 OFFCURVE",
"173 842 CURVE SMOOTH",
"265 842 OFFCURVE",
"341 919 OFFCURVE",
"341 1012 CURVE SMOOTH",
"341 1105 OFFCURVE",
"265 1182 OFFCURVE",
"173 1182 CURVE SMOOTH",
"126 1182 OFFCURVE",
"86 1165 OFFCURVE",
"53 1132 CURVE SMOOTH"
);
},
{
closed = 1;
nodes = (
"94 967 OFFCURVE",
"85 987 OFFCURVE",
"85 1012 CURVE SMOOTH",
"85 1061 OFFCURVE",
"124 1100 OFFCURVE",
"173 1100 CURVE SMOOTH",
"221 1100 OFFCURVE",
"261 1060 OFFCURVE",
"261 1012 CURVE SMOOTH",
"261 964 OFFCURVE",
"221 924 OFFCURVE",
"173 924 CURVE SMOOTH",
"148 924 OFFCURVE",
"128 933 OFFCURVE",
"111 950 CURVE SMOOTH"
);
},
{
closed = 1;
nodes = (
"497 1164 LINE SMOOTH",
"497 1171 OFFCURVE",
"500 1174 OFFCURVE",
"507 1174 CURVE SMOOTH",
"952 1174 LINE SMOOTH",
"979 1174 OFFCURVE",
"999 1152 OFFCURVE",
"999 1125 CURVE SMOOTH",
"999 1098 OFFCURVE",
"979 1076 OFFCURVE",
"952 1076 CURVE SMOOTH",
"595 1076 LINE",
"595 822 LINE",
"862 822 LINE SMOOTH",
"890 822 OFFCURVE",
"911 801 OFFCURVE",
"911 773 CURVE SMOOTH",
"911 746 OFFCURVE",
"889 723 OFFCURVE",
"862 723 CURVE SMOOTH",
"595 723 LINE",
"595 369 LINE SMOOTH",
"595 342 OFFCURVE",
"573 320 OFFCURVE",
"546 320 CURVE SMOOTH",
"519 320 OFFCURVE",
"497 342 OFFCURVE",
"497 369 CURVE SMOOTH"
);
}
);
width = 990;
}
);
unicode = F045;
},
{
glyphname = "fog";
lastChange = "2013-07-01 02:30:14 -0700";
layers = (
{
layerId = "1E718338-5C3C-490C-A197-65E7F37A33B6";
name = "Regular";
paths = (
{
closed = 1;
nodes = (
"-257 31 OFFCURVE",
"-221 -1 OFFCURVE",
"-175 -1 CURVE SMOOTH",
"1567 -1 LINE SMOOTH",
"1611 -1 OFFCURVE",
"1647 31 OFFCURVE",
"1647 75 CURVE SMOOTH",
"1647 121 OFFCURVE",
"1613 155 OFFCURVE",
"1567 155 CURVE SMOOTH",
"-175 155 LINE SMOOTH",
"-221 155 OFFCURVE",
"-257 121 OFFCURVE",
"-257 75 CURVE SMOOTH"
);
},
{
closed = 1;
nodes = (
"-5 409 OFFCURVE",
"-13 389 OFFCURVE",
"-13 368 CURVE SMOOTH",
"-13 324 OFFCURVE",
"23 289 OFFCURVE",
"67 289 CURVE SMOOTH",
"1810 289 LINE SMOOTH",
"1853 289 OFFCURVE",
"1886 324 OFFCURVE",
"1886 368 CURVE SMOOTH",
"1886 412 OFFCURVE",
"1853 445 OFFCURVE",
"1810 445 CURVE SMOOTH",
"67 445 LINE SMOOTH",
"46 445 OFFCURVE",
"26 438 OFFCURVE",
"12 424 CURVE"
);
},
{
closed = 1;
nodes = (
"0 596 LINE",
"47 754 OFFCURVE",
"176 874 OFFCURVE",
"334 912 CURVE",
"391 1166 OFFCURVE",
"615 1348 OFFCURVE",
"877 1348 CURVE SMOOTH",
"1133 1348 OFFCURVE",
"1352 1172 OFFCURVE",
"1413 925 CURVE",
"1443 925 LINE SMOOTH",
"1652 925 OFFCURVE",
"1829 788 OFFCURVE",
"1883 599 CURVE",
"1886 585 OFFCURVE",
"1881 578 OFFCURVE",
"1870 578 CURVE SMOOTH",
"1736 578 LINE SMOOTH",
"1730 578 OFFCURVE",
"1723 583 OFFCURVE",
"1717 593 CURVE",
"1670 697 OFFCURVE",
"1565 769 OFFCURVE",
"1443 769 CURVE SMOOTH",
"1294 769 LINE SMOOTH",
"1282 769 OFFCURVE",
"1276 773 OFFCURVE",
"1276 785 CURVE",
"1269 838 LINE SMOOTH",
"1248 1039 OFFCURVE",
"1077 1188 OFFCURVE",
"877 1188 CURVE SMOOTH",
"674 1188 OFFCURVE",
"503 1037 OFFCURVE",
"483 835 CURVE",
"477 788 LINE",
"477 777 OFFCURVE",
"472 772 OFFCURVE",
"461 772 CURVE",
"410 765 LINE",
"305 757 OFFCURVE",
"210 689 OFFCURVE",
"166 593 CURVE",
"160 583 OFFCURVE",
"153 578 OFFCURVE",
"147 578 CURVE SMOOTH",
"13 578 LINE SMOOTH",
"3 578 OFFCURVE",
"-1 583 OFFCURVE",
"-1 591 CURVE SMOOTH",
"-1 593 OFFCURVE",
"-1 596 OFFCURVE",
"0 599 CURVE"
);
},
{
closed = 1;
nodes = (
"158 -170 OFFCURVE",
"150 -190 OFFCURVE",
"150 -211 CURVE SMOOTH",
"150 -255 OFFCURVE",
"186 -291 OFFCURVE",
"230 -291 CURVE SMOOTH",
"1974 -291 LINE SMOOTH",
"2018 -291 OFFCURVE",
"2054 -255 OFFCURVE",
"2054 -211 CURVE SMOOTH",
"2054 -167 OFFCURVE",
"2018 -135 OFFCURVE",
"1974 -135 CURVE SMOOTH",
"230 -135 LINE SMOOTH",
"209 -135 OFFCURVE",
"189 -141 OFFCURVE",
"174 -156 CURVE"
);
}
);
width = 1900;
}
);
unicode = F014;
},
{
glyphname = "hail";
lastChange = "2013-07-01 02:31:41 -0700";
layers = (
{
layerId = "1E718338-5C3C-490C-A197-65E7F37A33B6";
name = "Regular";
paths = (
{
closed = 1;
nodes = (
"2 678 OFFCURVE",
"152 863 OFFCURVE",
"357 910 CURVE",
"414 1164 OFFCURVE",
"640 1345 OFFCURVE",
"903 1345 CURVE SMOOTH",
"1160 1345 OFFCURVE",
"1383 1169 OFFCURVE",
"1443 920 CURVE",
"1473 920 LINE SMOOTH",
"1728 920 OFFCURVE",
"1936 717 OFFCURVE",
"1936 462 CURVE SMOOTH",
"1936 213 OFFCURVE",
"1739 7 OFFCURVE",
"1491 -1 CURVE SMOOTH",
"1479 -1 OFFCURVE",
"1473 4 OFFCURVE",
"1473 15 CURVE SMOOTH",
"1473 140 LINE SMOOTH",
"1473 151 OFFCURVE",
"1479 156 OFFCURVE",
"1491 156 CURVE",
"1649 164 OFFCURVE",
"1779 300 OFFCURVE",
"1779 462 CURVE SMOOTH",
"1779 626 OFFCURVE",
"1638 763 OFFCURVE",
"1473 763 CURVE SMOOTH",
"1322 763 LINE SMOOTH",
"1311 763 OFFCURVE",
"1306 768 OFFCURVE",
"1306 779 CURVE",
"1299 833 LINE SMOOTH",
"1278 1035 OFFCURVE",
"1105 1188 OFFCURVE",
"903 1188 CURVE SMOOTH",
"699 1188 OFFCURVE",
"529 1035 OFFCURVE",
"509 833 CURVE SMOOTH",
"503 783 LINE",
"503 771 OFFCURVE",
"496 766 OFFCURVE",
"485 766 CURVE",
"435 763 LINE",
"280 745 OFFCURVE",
"161 617 OFFCURVE",
"161 462 CURVE SMOOTH",
"161 300 OFFCURVE",
"290 164 OFFCURVE",
"449 156 CURVE",
"460 156 OFFCURVE",
"465 151 OFFCURVE",
"465 140 CURVE SMOOTH",
"465 15 LINE SMOOTH",
"465 4 OFFCURVE",
"460 -1 OFFCURVE",
"449 -1 CURVE",
"200 10 OFFCURVE",
"2 213 OFFCURVE",
"2 462 CURVE SMOOTH"
);
},
{
closed = 1;
nodes = (
"470 -312 OFFCURVE",
"467 -292 OFFCURVE",
"478 -273 CURVE",
"496 -232 OFFCURVE",
"542 -212 OFFCURVE",
"579 -232 CURVE",
"619 -247 OFFCURVE",
"637 -292 OFFCURVE",
"619 -333 CURVE",
"604 -373 OFFCURVE",
"557 -391 OFFCURVE",
"519 -373 CURVE",
"499 -364 OFFCURVE",
"485 -350 OFFCURVE",
"476 -330 CURVE"
);
},
{
closed = 1;
nodes = (
"656 395 LINE",
"669 434 OFFCURVE",
"704 450 OFFCURVE",
"730 450 CURVE SMOOTH",
"738 450 OFFCURVE",
"745 449 OFFCURVE",
"753 447 CURVE SMOOTH",
"797 439 OFFCURVE",
"822 396 OFFCURVE",
"810 351 CURVE SMOOTH",
"692 -85 LINE SMOOTH",
"678 -142 OFFCURVE",
"630 -157 OFFCURVE",
"593 -139 CURVE",
"552 -125 OFFCURVE",
"535 -93 OFFCURVE",
"535 -67 CURVE SMOOTH",
"535 -58 OFFCURVE",
"537 -50 OFFCURVE",
"539 -42 CURVE"
);
},
{
closed = 1;
nodes = (
"710 -606 OFFCURVE",
"709 -597 OFFCURVE",
"709 -588 CURVE SMOOTH",
"709 -567 OFFCURVE",
"720 -530 OFFCURVE",
"759 -513 CURVE SMOOTH",
"799 -497 OFFCURVE",
"841 -515 OFFCURVE",
"859 -556 CURVE SMOOTH",
"877 -597 OFFCURVE",
"856 -644 OFFCURVE",
"815 -659 CURVE SMOOTH",
"805 -662 OFFCURVE",
"795 -664 OFFCURVE",
"787 -664 CURVE SMOOTH",
"776 -664 OFFCURVE",
"766 -662 OFFCURVE",
"756 -657 CURVE",
"735 -649 OFFCURVE",
"722 -634 OFFCURVE",
"714 -615 CURVE SMOOTH"
);
},
{
closed = 1;
nodes = (
"974 395 LINE",
"982 434 OFFCURVE",
"1021 450 OFFCURVE",
"1047 450 CURVE SMOOTH",
"1056 450 OFFCURVE",
"1064 449 OFFCURVE",
"1072 447 CURVE",
"1113 436 OFFCURVE",
"1137 395 OFFCURVE",
"1124 351 CURVE SMOOTH",
"934 -356 LINE SMOOTH",
"928 -384 OFFCURVE",
"915 -402 OFFCURVE",
"895 -410 CURVE SMOOTH",
"884 -415 OFFCURVE",
"872 -417 OFFCURVE",
"859 -417 CURVE SMOOTH",
"851 -417 OFFCURVE",
"844 -415 OFFCURVE",
"836 -413 CURVE",
"797 -402 OFFCURVE",
"777 -379 OFFCURVE",
"777 -345 CURVE SMOOTH",
"777 -337 OFFCURVE",
"779 -327 OFFCURVE",
"781 -317 CURVE"
);
},
{
closed = 1;
nodes = (
"1100 -322 OFFCURVE",
"1098 -312 OFFCURVE",
"1098 -302 CURVE SMOOTH",
"1098 -292 OFFCURVE",
"1100 -283 OFFCURVE",
"1105 -273 CURVE",
"1123 -232 OFFCURVE",
"1168 -212 OFFCURVE",
"1209 -232 CURVE SMOOTH",
"1247 -250 OFFCURVE",
"1263 -292 OFFCURVE",
"1249 -333 CURVE",
"1240 -353 OFFCURVE",
"1226 -366 OFFCURVE",
"1206 -374 CURVE",
"1196 -377 OFFCURVE",
"1186 -379 OFFCURVE",
"1178 -379 CURVE SMOOTH",
"1167 -379 OFFCURVE",
"1157 -377 OFFCURVE",
"1146 -373 CURVE SMOOTH",
"1128 -364 OFFCURVE",
"1113 -351 OFFCURVE",
"1105 -332 CURVE"
);
},
{
closed = 1;
nodes = (
"1286 395 LINE SMOOTH",
"1298 434 OFFCURVE",
"1332 450 OFFCURVE",
"1358 450 CURVE SMOOTH",
"1366 450 OFFCURVE",
"1375 449 OFFCURVE",
"1383 447 CURVE",
"1424 436 OFFCURVE",
"1440 400 OFFCURVE",
"1440 375 CURVE SMOOTH",
"1440 367 OFFCURVE",
"1438 359 OFFCURVE",
"1437 351 CURVE",
"1319 -81 LINE SMOOTH",
"1312 -104 OFFCURVE",
"1299 -121 OFFCURVE",
"1281 -130 CURVE",
"1270 -135 OFFCURVE",
"1258 -139 OFFCURVE",
"1247 -139 CURVE SMOOTH",
"1239 -139 OFFCURVE",
"1231 -137 OFFCURVE",
"1222 -135 CURVE",
"1183 -122 OFFCURVE",
"1165 -86 OFFCURVE",
"1165 -62 CURVE SMOOTH",
"1165 -53 OFFCURVE",
"1167 -47 OFFCURVE",
"1168 -39 CURVE"
);
}
);
width = 1935;
}
);
unicode = F015;
},
{
glyphname = "horizon";
lastChange = "2013-07-01 23:34:59 -0700";
layers = (
{
layerId = "1E718338-5C3C-490C-A197-65E7F37A33B6";
name = "Regular";
paths = (
{
closed = 1;
nodes = (
"72 125 OFFCURVE",
"64 105 OFFCURVE",
"64 82 CURVE SMOOTH",
"64 37 OFFCURVE",
"103 -1 OFFCURVE",
"149 -1 CURVE SMOOTH",
"1860 -1 LINE SMOOTH",
"1906 -1 OFFCURVE",
"1944 37 OFFCURVE",
"1944 82 CURVE SMOOTH",
"1944 128 OFFCURVE",
"1906 162 OFFCURVE",
"1860 162 CURVE SMOOTH",
"149 162 LINE SMOOTH",
"125 162 OFFCURVE",
"104 156 OFFCURVE",
"90 140 CURVE"
);
},
{
closed = 1;
nodes = (
"254 898 OFFCURVE",
"248 880 OFFCURVE",
"248 856 CURVE SMOOTH",
"248 832 OFFCURVE",
"254 813 OFFCURVE",
"270 798 CURVE SMOOTH",
"410 658 LINE SMOOTH",
"442 626 OFFCURVE",
"498 624 OFFCURVE",
"526 658 CURVE",
"542 674 OFFCURVE",
"551 692 OFFCURVE",
"551 716 CURVE SMOOTH",
"551 740 OFFCURVE",
"542 758 OFFCURVE",
"526 774 CURVE",
"386 914 LINE",
"370 931 OFFCURVE",
"352 939 OFFCURVE",
"330 939 CURVE SMOOTH",
"306 939 OFFCURVE",
"286 931 OFFCURVE",
"270 914 CURVE"
);
},
{
closed = 1;
nodes = (
"585 544 OFFCURVE",
"777 690 OFFCURVE",
"1003 690 CURVE SMOOTH",
"1229 690 OFFCURVE",
"1425 544 OFFCURVE",
"1488 334 CURVE",
"1491 319 OFFCURVE",
"1486 312 OFFCURVE",
"1474 312 CURVE SMOOTH",
"1335 312 LINE SMOOTH",
"1327 312 OFFCURVE",
"1321 318 OFFCURVE",
"1314 328 CURVE",
"1258 446 OFFCURVE",
"1139 522 OFFCURVE",
"1003 522 CURVE SMOOTH",
"867 522 OFFCURVE",
"752 446 OFFCURVE",
"696 328 CURVE",
"689 318 OFFCURVE",
"682 312 OFFCURVE",
"675 312 CURVE SMOOTH",
"536 312 LINE SMOOTH",
"524 312 OFFCURVE",
"518 319 OFFCURVE",
"522 334 CURVE"
);
},
{
closed = 1;
nodes = (
"923 937 LINE SMOOTH",
"923 891 OFFCURVE",
"957 854 OFFCURVE",
"1003 854 CURVE SMOOTH",
"1050 854 OFFCURVE",
"1085 890 OFFCURVE",
"1085 937 CURVE SMOOTH",
"1085 1137 LINE SMOOTH",
"1085 1185 OFFCURVE",
"1050 1221 OFFCURVE",
"1003 1221 CURVE SMOOTH",
"957 1221 OFFCURVE",
"923 1183 OFFCURVE",
"923 1137 CURVE SMOOTH"
);
},
{
closed = 1;
nodes = (
"1481 774 LINE SMOOTH",
"1466 758 OFFCURVE",
"1457 740 OFFCURVE",
"1457 716 CURVE SMOOTH",
"1457 668 OFFCURVE",
"1506 628 OFFCURVE",
"1547 632 CURVE",
"1568 634 OFFCURVE",
"1585 643 OFFCURVE",
"1600 658 CURVE SMOOTH",
"1738 798 LINE SMOOTH",
"1754 813 OFFCURVE",
"1760 832 OFFCURVE",
"1760 856 CURVE SMOOTH",
"1760 903 OFFCURVE",
"1728 939 OFFCURVE",
"1682 939 CURVE SMOOTH",
"1660 939 OFFCURVE",
"1639 931 OFFCURVE",
"1624 914 CURVE"
);
}
);
width = 2000;
}
);
unicode = F047;
},
{
glyphname = "horizon-alt";
lastChange = "2013-07-01 23:34:14 -0700";
layers = (
{
layerId = "1E718338-5C3C-490C-A197-65E7F37A33B6";
name = "Regular";
paths = (
{
closed = 1;
nodes = (
"-3 599 OFFCURVE",
"-11 578 OFFCURVE",
"-11 556 CURVE SMOOTH",
"-11 511 OFFCURVE",
"27 475 OFFCURVE",
"72 475 CURVE SMOOTH",
"266 475 LINE SMOOTH",
"311 475 OFFCURVE",
"345 511 OFFCURVE",
"345 556 CURVE SMOOTH",
"345 602 OFFCURVE",
"311 634 OFFCURVE",
"266 634 CURVE SMOOTH",
"72 634 LINE SMOOTH",
"50 634 OFFCURVE",
"29 629 OFFCURVE",
"14 613 CURVE"
);
},
{
closed = 1;
nodes = (
"84 122 OFFCURVE",
"76 104 OFFCURVE",
"76 81 CURVE SMOOTH",
"76 37 OFFCURVE",
"112 0 OFFCURVE",
"157 0 CURVE SMOOTH",
"1856 0 LINE SMOOTH",
"1901 0 OFFCURVE",
"1938 37 OFFCURVE",
"1938 81 CURVE SMOOTH",
"1938 126 OFFCURVE",
"1901 160 OFFCURVE",
"1856 160 CURVE SMOOTH",
"157 160 LINE SMOOTH",
"136 160 OFFCURVE",
"116 153 OFFCURVE",
"100 138 CURVE"
);
},
{
closed = 1;
nodes = (
"272 1258 OFFCURVE",
"266 1237 OFFCURVE",
"266 1217 CURVE SMOOTH",
"266 1195 OFFCURVE",
"272 1174 OFFCURVE",
"288 1160 CURVE SMOOTH",
"427 1023 LINE SMOOTH",
"443 1009 OFFCURVE",
"460 1000 OFFCURVE",
"483 1000 CURVE SMOOTH",
"528 1000 OFFCURVE",
"562 1034 OFFCURVE",
"562 1080 CURVE SMOOTH",
"562 1100 OFFCURVE",
"554 1121 OFFCURVE",
"538 1136 CURVE SMOOTH",
"403 1272 LINE",
"387 1289 OFFCURVE",
"367 1298 OFFCURVE",
"346 1298 CURVE SMOOTH",
"324 1298 OFFCURVE",
"304 1289 OFFCURVE",
"288 1272 CURVE SMOOTH"
);
},
{
closed = 1;
nodes = (
"509 829 OFFCURVE",
"734 1054 OFFCURVE",
"1007 1054 CURVE SMOOTH",
"1280 1054 OFFCURVE",
"1505 829 OFFCURVE",
"1505 556 CURVE SMOOTH",
"1505 478 OFFCURVE",
"1488 404 OFFCURVE",
"1453 338 CURVE",
"1449 330 OFFCURVE",
"1443 325 OFFCURVE",
"1434 325 CURVE SMOOTH",
"1275 325 LINE SMOOTH",
"1266 325 OFFCURVE",
"1262 329 OFFCURVE",
"1263 334 CURVE",
"1263 338 OFFCURVE",
"1265 342 OFFCURVE",
"1268 346 CURVE",
"1319 407 OFFCURVE",
"1343 476 OFFCURVE",
"1343 556 CURVE SMOOTH",
"1343 742 OFFCURVE",
"1192 891 OFFCURVE",
"1007 891 CURVE SMOOTH",
"823 891 OFFCURVE",
"669 742 OFFCURVE",
"669 556 CURVE SMOOTH",
"669 476 OFFCURVE",
"693 407 OFFCURVE",
"743 346 CURVE",
"755 333 OFFCURVE",
"750 325 OFFCURVE",
"737 325 CURVE SMOOTH",
"581 325 LINE SMOOTH",
"569 325 OFFCURVE",
"562 330 OFFCURVE",
"559 338 CURVE",
"525 404 OFFCURVE",
"509 476 OFFCURVE",
"509 556 CURVE SMOOTH"
);
},
{
closed = 1;
nodes = (
"926 1296 LINE SMOOTH",
"926 1251 OFFCURVE",
"962 1214 OFFCURVE",
"1007 1214 CURVE SMOOTH",
"1052 1214 OFFCURVE",
"1089 1251 OFFCURVE",
"1089 1296 CURVE SMOOTH",
"1089 1491 LINE SMOOTH",
"1089 1536 OFFCURVE",
"1052 1573 OFFCURVE",
"1007 1573 CURVE SMOOTH",
"962 1573 OFFCURVE",
"926 1536 OFFCURVE",
"926 1491 CURVE SMOOTH"
);
},
{
closed = 1;
nodes = (
"1474 1136 LINE SMOOTH",
"1458 1121 OFFCURVE",
"1451 1100 OFFCURVE",
"1451 1080 CURVE SMOOTH",
"1451 1034 OFFCURVE",
"1485 1001 OFFCURVE",
"1531 1002 CURVE",
"1551 1002 OFFCURVE",
"1572 1010 OFFCURVE",
"1586 1023 CURVE",
"1727 1160 LINE SMOOTH",
"1741 1174 OFFCURVE",
"1748 1195 OFFCURVE",
"1748 1217 CURVE SMOOTH",
"1748 1262 OFFCURVE",
"1713 1298 OFFCURVE",
"1666 1298 CURVE SMOOTH",
"1643 1298 OFFCURVE",
"1625 1289 OFFCURVE",
"1609 1272 CURVE"
);
},
{
closed = 1;
nodes = (
"1675 599 OFFCURVE",
"1668 578 OFFCURVE",
"1668 556 CURVE SMOOTH",
"1668 511 OFFCURVE",
"1702 475 OFFCURVE",
"1746 475 CURVE SMOOTH",
"1941 475 LINE SMOOTH",
"1986 475 OFFCURVE",
"2023 511 OFFCURVE",
"2023 556 CURVE SMOOTH",
"2023 602 OFFCURVE",
"1986 634 OFFCURVE",
"1941 634 CURVE SMOOTH",
"1746 634 LINE SMOOTH",
"1724 634 OFFCURVE",
"1706 629 OFFCURVE",
"1691 613 CURVE SMOOTH"
);
}
);
width = 2000;
}
);
unicode = F046;
},
{
glyphname = "left";
lastChange = "2013-07-01 23:36:19 -0700";
layers = (
{
layerId = "1E718338-5C3C-490C-A197-65E7F37A33B6";
name = "Regular";
paths = (
{
closed = 1;
nodes = (
"256 920 LINE",
"270 936 OFFCURVE",
"287 944 OFFCURVE",
"307 944 CURVE SMOOTH",
"349 944 OFFCURVE",
"382 911 OFFCURVE",
"382 869 CURVE SMOOTH",
"382 849 OFFCURVE",
"374 831 OFFCURVE",
"360 817 CURVE SMOOTH",
"262 718 LINE",
"877 717 LINE SMOOTH",
"919 717 OFFCURVE",
"950 682 OFFCURVE",
"950 641 CURVE SMOOTH",
"950 599 OFFCURVE",
"919 565 OFFCURVE",
"877 565 CURVE SMOOTH",
"262 566 LINE",
"360 467 LINE SMOOTH",
"374 453 OFFCURVE",
"382 434 OFFCURVE",
"382 414 CURVE SMOOTH",
"382 372 OFFCURVE",
"349 340 OFFCURVE",
"307 340 CURVE SMOOTH",
"287 340 OFFCURVE",
"270 347 OFFCURVE",
"256 363 CURVE",
"27 587 LINE SMOOTH",
"13 601 OFFCURVE",
"5 620 OFFCURVE",
"5 642 CURVE SMOOTH",
"5 663 OFFCURVE",
"13 682 OFFCURVE",
"27 696 CURVE SMOOTH"
);
}
);
width = 950;
}
);
unicode = F048;
},
{
glyphname = "lightning-wi";
lastChange = "2013-07-01 02:34:47 -0700";
layers = (
{
layerId = "1E718338-5C3C-490C-A197-65E7F37A33B6";
name = "Regular";
paths = (
{
closed = 1;
nodes = (
"-54 -248 LINE",
"239 529 LINE",
"-17 529 LINE SMOOTH",
"-31 529 OFFCURVE",
"-38 537 OFFCURVE",
"-35 555 CURVE",
"224 1245 LINE",
"231 1255 OFFCURVE",
"241 1262 OFFCURVE",
"251 1262 CURVE SMOOTH",
"607 1262 LINE SMOOTH",
"626 1262 OFFCURVE",
"633 1253 OFFCURVE",
"625 1236 CURVE",
"346 728 LINE",
"611 728 LINE SMOOTH",
"629 728 OFFCURVE",
"633 718 OFFCURVE",
"625 703 CURVE",
"-17 -248 LINE"
);
},
{
closed = 1;
nodes = (
"740 343 LINE",
"963 933 LINE",
"772 933 LINE SMOOTH",
"755 933 OFFCURVE",
"749 943 OFFCURVE",
"754 959 CURVE",
"948 1471 LINE",
"954 1482 OFFCURVE",
"966 1488 OFFCURVE",
"976 1488 CURVE SMOOTH",
"1231 1488 LINE SMOOTH",
"1252 1488 OFFCURVE",
"1259 1479 OFFCURVE",
"1248 1460 CURVE SMOOTH",
"1044 1084 LINE",
"1240 1084 LINE SMOOTH",
"1257 1084 OFFCURVE",
"1261 1074 OFFCURVE",
"1252 1059 CURVE",
"765 343 LINE"
);
}
);
width = 1200;
}
);
unicode = F016;
},
{
glyphname = "night-alt-cloud-gusts";
lastChange = "2013-07-01 02:56:05 -0700";
layers = (
{
layerId = "1E718338-5C3C-490C-A197-65E7F37A33B6";
name = "Regular";
paths = (
{
closed = 1;
nodes = (
"-214 37 OFFCURVE",
"-223 57 OFFCURVE",
"-223 78 CURVE SMOOTH",
"-223 122 OFFCURVE",
"-185 158 OFFCURVE",
"-141 158 CURVE SMOOTH",
"609 158 LINE SMOOTH",
"747 158 OFFCURVE",
"858 45 OFFCURVE",
"858 -92 CURVE SMOOTH",
"858 -230 OFFCURVE",
"747 -341 OFFCURVE",
"609 -341 CURVE SMOOTH",
"540 -341 OFFCURVE",
"481 -317 OFFCURVE",
"432 -268 CURVE SMOOTH",
"418 -253 OFFCURVE",
"409 -233 OFFCURVE",
"409 -212 CURVE SMOOTH",
"409 -168 OFFCURVE",
"444 -133 OFFCURVE",
"488 -133 CURVE SMOOTH",
"509 -133 OFFCURVE",
"529 -142 OFFCURVE",
"545 -156 CURVE",
"563 -174 OFFCURVE",
"585 -184 OFFCURVE",
"609 -184 CURVE SMOOTH",
"657 -184 OFFCURVE",
"701 -143 OFFCURVE",
"701 -92 CURVE SMOOTH",
"701 -42 OFFCURVE",
"657 -2 OFFCURVE",
"609 -2 CURVE SMOOTH",
"-141 -2 LINE SMOOTH",
"-162 -2 OFFCURVE",
"-182 6 OFFCURVE",
"-198 22 CURVE"
);
},
{
closed = 1;
nodes = (
"-214 320 OFFCURVE",
"-223 338 OFFCURVE",
"-223 360 CURVE SMOOTH",
"-223 404 OFFCURVE",
"-185 440 OFFCURVE",
"-141 440 CURVE SMOOTH",
"1086 440 LINE SMOOTH",
"1133 440 OFFCURVE",
"1176 481 OFFCURVE",
"1176 531 CURVE SMOOTH",
"1176 582 OFFCURVE",
"1133 621 OFFCURVE",
"1086 621 CURVE SMOOTH",
"1061 621 OFFCURVE",
"1040 613 OFFCURVE",
"1022 595 CURVE",
"1005 581 OFFCURVE",
"986 574 OFFCURVE",
"964 574 CURVE SMOOTH",
"919 574 OFFCURVE",
"888 605 OFFCURVE",
"888 651 CURVE SMOOTH",
"888 672 OFFCURVE",
"894 692 OFFCURVE",
"909 708 CURVE",
"956 756 OFFCURVE",
"1015 779 OFFCURVE",
"1086 779 CURVE SMOOTH",
"1223 779 OFFCURVE",
"1335 669 OFFCURVE",
"1335 531 CURVE SMOOTH",
"1335 394 OFFCURVE",
"1223 283 OFFCURVE",
"1086 283 CURVE SMOOTH",
"-141 283 LINE SMOOTH",
"-164 283 OFFCURVE",
"-183 291 OFFCURVE",
"-198 305 CURVE"
);
},
{
closed = 1;
nodes = (
"228 590 LINE",
"275 748 OFFCURVE",
"408 872 OFFCURVE",
"567 910 CURVE",
"621 1163 OFFCURVE",
"845 1345 OFFCURVE",
"1109 1345 CURVE SMOOTH",
"1189 1345 OFFCURVE",
"1261 1330 OFFCURVE",
"1325 1303 CURVE",
"1436 1486 OFFCURVE",
"1615 1542 OFFCURVE",
"1744 1542 CURVE SMOOTH",
"1782 1542 OFFCURVE",
"1821 1537 OFFCURVE",
"1860 1527 CURVE",
"1934 1504 LINE",
"1945 1499 OFFCURVE",
"1950 1493 OFFCURVE",
"1947 1483 CURVE",
"1934 1425 LINE SMOOTH",
"1929 1401 OFFCURVE",
"1926 1376 OFFCURVE",
"1926 1352 CURVE SMOOTH",
"1926 1236 OFFCURVE",
"1998 1088 OFFCURVE",
"2166 1037 CURVE",
"2222 1018 LINE",
"2230 1013 OFFCURVE",
"2235 1008 OFFCURVE",
"2235 1003 CURVE SMOOTH",
"2235 1001 OFFCURVE",
"2235 998 OFFCURVE",
"2233 996 CURVE",
"2219 933 LINE SMOOTH",
"2194 839 OFFCURVE",
"2148 759 OFFCURVE",
"2078 692 CURVE",
"2120 621 OFFCURVE",
"2142 545 OFFCURVE",
"2142 461 CURVE SMOOTH",
"2142 206 OFFCURVE",
"1935 -2 OFFCURVE",
"1680 -2 CURVE SMOOTH",
"1035 -2 LINE SMOOTH",
"1023 -2 OFFCURVE",
"1019 3 OFFCURVE",
"1019 14 CURVE SMOOTH",
"1019 142 LINE SMOOTH",
"1019 153 OFFCURVE",
"1023 158 OFFCURVE",
"1035 158 CURVE SMOOTH",
"1680 158 LINE SMOOTH",
"1849 158 OFFCURVE",
"1985 296 OFFCURVE",
"1985 461 CURVE SMOOTH",
"1985 626 OFFCURVE",
"1849 762 OFFCURVE",
"1680 762 CURVE SMOOTH",
"1528 762 LINE SMOOTH",
"1516 762 OFFCURVE",
"1511 767 OFFCURVE",
"1511 779 CURVE",
"1505 833 LINE SMOOTH",
"1484 1037 OFFCURVE",
"1313 1188 OFFCURVE",
"1109 1188 CURVE SMOOTH",
"904 1188 OFFCURVE",
"734 1034 OFFCURVE",
"714 833 CURVE",
"707 785 LINE",
"707 774 OFFCURVE",
"701 769 OFFCURVE",
"689 769 CURVE",
"640 762 LINE",
"529 754 OFFCURVE",
"436 680 OFFCURVE",
"395 581 CURVE",
"390 572 OFFCURVE",
"383 567 OFFCURVE",
"375 567 CURVE SMOOTH",
"241 567 LINE SMOOTH",
"231 567 OFFCURVE",
"226 571 OFFCURVE",
"226 579 CURVE SMOOTH",
"226 581 OFFCURVE",
"226 584 OFFCURVE",
"228 587 CURVE"
);
},
{
closed = 1;
nodes = (
"1560 1141 OFFCURVE",
"1624 1041 OFFCURVE",
"1649 923 CURVE",
"1680 923 LINE SMOOTH",
"1795 923 OFFCURVE",
"1893 887 OFFCURVE",
"1975 816 CURVE",
"2006 844 OFFCURVE",
"2029 875 OFFCURVE",
"2045 913 CURVE",
"1867 996 OFFCURVE",
"1768 1177 OFFCURVE",
"1768 1347 CURVE SMOOTH",
"1768 1358 OFFCURVE",
"1768 1368 OFFCURVE",
"1770 1380 CURVE",
"1760 1381 OFFCURVE",
"1750 1381 OFFCURVE",
"1741 1381 CURVE SMOOTH",
"1637 1381 OFFCURVE",
"1521 1329 OFFCURVE",
"1461 1222 CURVE"
);
}
);
width = 2230;
}
);
unicode = F022;
},
{
glyphname = "night-alt-cloudy-windy";
lastChange = "2013-07-01 02:57:11 -0700";
layers = (
{
layerId = "1E718338-5C3C-490C-A197-65E7F37A33B6";
name = "Regular";
paths = (
{
closed = 1;
nodes = (
"-478 121 OFFCURVE",
"-442 155 OFFCURVE",
"-396 155 CURVE SMOOTH",
"832 155 LINE SMOOTH",
"876 155 OFFCURVE",
"909 122 OFFCURVE",
"909 75 CURVE SMOOTH",
"909 30 OFFCURVE",
"876 -2 OFFCURVE",
"832 -2 CURVE SMOOTH",
"-396 -2 LINE SMOOTH",
"-442 -2 OFFCURVE",
"-478 30 OFFCURVE",
"-478 75 CURVE SMOOTH"
);
},
{
closed = 1;
nodes = (
"-224 319 OFFCURVE",
"-232 339 OFFCURVE",
"-232 360 CURVE SMOOTH",
"-232 404 OFFCURVE",
"-196 437 OFFCURVE",
"-152 437 CURVE SMOOTH",
"1078 437 LINE SMOOTH",
"1122 437 OFFCURVE",
"1155 404 OFFCURVE",
"1155 360 CURVE SMOOTH",
"1155 316 OFFCURVE",
"1122 280 OFFCURVE",
"1078 280 CURVE SMOOTH",
"-152 280 LINE SMOOTH",
"-173 280 OFFCURVE",
"-193 288 OFFCURVE",
"-208 304 CURVE"
);
},
{
closed = 1;
nodes = (
"-60 -255 OFFCURVE",
"-68 -235 OFFCURVE",
"-68 -214 CURVE SMOOTH",
"-68 -170 OFFCURVE",
"-32 -137 OFFCURVE",
"12 -137 CURVE SMOOTH",
"1242 -137 LINE SMOOTH",
"1286 -137 OFFCURVE",
"1323 -170 OFFCURVE",
"1323 -214 CURVE SMOOTH",
"1323 -258 OFFCURVE",
"1286 -294 OFFCURVE",
"1242 -294 CURVE SMOOTH",
"12 -294 LINE SMOOTH",
"-9 -294 OFFCURVE",
"-29 -286 OFFCURVE",
"-44 -270 CURVE"
);
},
{
closed = 1;
nodes = (
"217 588 LINE",
"265 747 OFFCURVE",
"394 870 OFFCURVE",
"557 908 CURVE",
"611 1164 OFFCURVE",
"837 1347 OFFCURVE",
"1101 1347 CURVE SMOOTH",
"1175 1347 OFFCURVE",
"1249 1333 OFFCURVE",
"1323 1302 CURVE",
"1432 1485 OFFCURVE",
"1611 1541 OFFCURVE",
"1741 1541 CURVE SMOOTH",
"1778 1541 OFFCURVE",
"1818 1536 OFFCURVE",
"1857 1526 CURVE",
"1934 1503 LINE",
"1946 1498 OFFCURVE",
"1951 1492 OFFCURVE",
"1947 1482 CURVE",
"1934 1425 LINE SMOOTH",
"1928 1397 OFFCURVE",
"1924 1370 OFFCURVE",
"1924 1344 CURVE SMOOTH",
"1923 1233 OFFCURVE",
"1992 1087 OFFCURVE",
"2162 1036 CURVE",
"2220 1016 LINE SMOOTH",
"2230 1013 OFFCURVE",
"2234 1008 OFFCURVE",
"2234 1001 CURVE SMOOTH",
"2234 1000 OFFCURVE",
"2234 997 OFFCURVE",
"2233 995 CURVE",
"2216 931 LINE SMOOTH",
"2189 829 OFFCURVE",
"2141 749 OFFCURVE",
"2075 690 CURVE",
"2116 618 OFFCURVE",
"2136 541 OFFCURVE",
"2136 459 CURVE SMOOTH",
"2136 203 OFFCURVE",
"1928 -2 OFFCURVE",
"1672 -2 CURVE SMOOTH",
"1027 -2 LINE SMOOTH",
"1016 -2 OFFCURVE",
"1011 3 OFFCURVE",
"1011 14 CURVE SMOOTH",
"1011 139 LINE SMOOTH",
"1011 150 OFFCURVE",
"1016 155 OFFCURVE",
"1027 155 CURVE SMOOTH",
"1672 155 LINE SMOOTH",
"1838 155 OFFCURVE",
"1977 295 OFFCURVE",
"1977 459 CURVE SMOOTH",
"1977 627 OFFCURVE",
"1841 764 OFFCURVE",
"1672 764 CURVE SMOOTH",
"1521 764 LINE SMOOTH",
"1509 764 OFFCURVE",
"1505 769 OFFCURVE",
"1505 780 CURVE",
"1498 834 LINE SMOOTH",
"1473 1036 OFFCURVE",
"1306 1187 OFFCURVE",
"1101 1187 CURVE SMOOTH",
"896 1187 OFFCURVE",
"724 1034 OFFCURVE",
"704 831 CURVE",
"698 783 LINE",
"698 772 OFFCURVE",
"693 767 OFFCURVE",
"681 767 CURVE",
"630 760 LINE",
"520 752 OFFCURVE",
"427 678 OFFCURVE",
"386 578 CURVE",
"381 570 OFFCURVE",
"373 565 OFFCURVE",
"365 565 CURVE SMOOTH",
"232 565 LINE SMOOTH",
"220 565 OFFCURVE",
"215 570 OFFCURVE",
"215 578 CURVE SMOOTH",
"215 580 OFFCURVE",
"215 583 OFFCURVE",
"217 585 CURVE"
);
},
{
closed = 1;
nodes = (
"1555 1136 OFFCURVE",
"1618 1036 OFFCURVE",
"1642 921 CURVE",
"1672 921 LINE SMOOTH",
"1788 921 OFFCURVE",
"1887 885 OFFCURVE",
"1970 811 CURVE",
"2002 842 OFFCURVE",
"2026 877 OFFCURVE",
"2041 911 CURVE",
"1865 995 OFFCURVE",
"1765 1179 OFFCURVE",
"1765 1356 CURVE SMOOTH",
"1765 1364 OFFCURVE",
"1765 1370 OFFCURVE",
"1765 1379 CURVE",
"1757 1380 OFFCURVE",
"1749 1380 OFFCURVE",
"1741 1380 CURVE SMOOTH",
"1636 1382 OFFCURVE",
"1523 1326 OFFCURVE",
"1457 1220 CURVE"
);
}
);
width = 2230;
}
);
unicode = F023;
},
{
glyphname = "night-alt-hail";
lastChange = "2013-07-01 02:59:02 -0700";
layers = (
{
layerId = "1E718338-5C3C-490C-A197-65E7F37A33B6";
name = "Regular";
paths = (
{
closed = 1;
nodes = (
"-1 678 OFFCURVE",
"150 863 OFFCURVE",
"355 910 CURVE",
"412 1164 OFFCURVE",
"638 1346 OFFCURVE",
"902 1346 CURVE SMOOTH",
"979 1346 OFFCURVE",
"1052 1331 OFFCURVE",
"1123 1300 CURVE",
"1234 1484 OFFCURVE",
"1415 1538 OFFCURVE",
"1537 1538 CURVE SMOOTH",
"1578 1538 OFFCURVE",
"1619 1533 OFFCURVE",
"1660 1521 CURVE",
"1734 1497 LINE",
"1745 1492 OFFCURVE",
"1750 1485 OFFCURVE",
"1747 1477 CURVE",
"1734 1423 LINE",
"1729 1398 OFFCURVE",
"1726 1374 OFFCURVE",
"1727 1349 CURVE",
"1727 1233 OFFCURVE",
"1798 1082 OFFCURVE",
"1967 1031 CURVE SMOOTH",
"2019 1015 LINE SMOOTH",
"2029 1012 OFFCURVE",
"2034 1007 OFFCURVE",
"2034 1000 CURVE SMOOTH",
"2034 999 OFFCURVE",
"2034 995 OFFCURVE",
"2032 994 CURVE",
"2019 930 LINE",
"1996 836 OFFCURVE",
"1949 756 OFFCURVE",
"1875 686 CURVE",
"1916 614 OFFCURVE",
"1935 538 OFFCURVE",
"1935 461 CURVE SMOOTH",
"1935 212 OFFCURVE",
"1739 6 OFFCURVE",
"1490 -2 CURVE SMOOTH",
"1478 -2 OFFCURVE",
"1472 3 OFFCURVE",
"1472 14 CURVE SMOOTH",
"1472 139 LINE SMOOTH",
"1472 150 OFFCURVE",
"1478 155 OFFCURVE",
"1490 155 CURVE",
"1649 163 OFFCURVE",
"1778 299 OFFCURVE",
"1778 461 CURVE SMOOTH",
"1778 625 OFFCURVE",
"1637 763 OFFCURVE",
"1472 763 CURVE SMOOTH",
"1321 763 LINE SMOOTH",
"1310 763 OFFCURVE",
"1305 768 OFFCURVE",
"1305 779 CURVE",
"1298 833 LINE SMOOTH",
"1277 1035 OFFCURVE",
"1103 1189 OFFCURVE",
"902 1189 CURVE SMOOTH",
"697 1189 OFFCURVE",
"527 1035 OFFCURVE",
"507 833 CURVE SMOOTH",
"500 782 LINE",
"500 771 OFFCURVE",
"494 766 OFFCURVE",
"482 766 CURVE",
"433 763 LINE",
"278 745 OFFCURVE",
"158 617 OFFCURVE",
"158 461 CURVE SMOOTH",
"158 299 OFFCURVE",
"287 163 OFFCURVE",
"446 155 CURVE",
"458 155 OFFCURVE",
"463 150 OFFCURVE",
"463 139 CURVE SMOOTH",
"463 14 LINE SMOOTH",
"463 3 OFFCURVE",
"458 -2 OFFCURVE",
"446 -2 CURVE",
"197 9 OFFCURVE",
"-1 212 OFFCURVE",
"-1 461 CURVE SMOOTH"
);
},
{
closed = 1;
nodes = (
"468 -314 OFFCURVE",
"464 -294 OFFCURVE",
"476 -274 CURVE",
"494 -233 OFFCURVE",
"540 -214 OFFCURVE",
"577 -233 CURVE",
"617 -248 OFFCURVE",
"635 -294 OFFCURVE",
"617 -335 CURVE",
"602 -374 OFFCURVE",
"554 -392 OFFCURVE",
"517 -374 CURVE",
"497 -366 OFFCURVE",
"482 -351 OFFCURVE",
"474 -332 CURVE"
);
},
{
closed = 1;
nodes = (
"654 394 LINE",
"667 435 OFFCURVE",
"710 460 OFFCURVE",
"751 447 CURVE",
"795 438 OFFCURVE",
"820 396 OFFCURVE",
"808 350 CURVE SMOOTH",
"690 -86 LINE SMOOTH",
"677 -137 OFFCURVE",
"638 -158 OFFCURVE",
"590 -140 CURVE",
"549 -128 OFFCURVE",
"533 -92 OFFCURVE",
"533 -68 CURVE SMOOTH",
"533 -60 OFFCURVE",
"535 -51 OFFCURVE",
"536 -43 CURVE"
);
},
{
closed = 1;
nodes = (
"708 -609 OFFCURVE",
"707 -599 OFFCURVE",
"707 -590 CURVE SMOOTH",
"707 -569 OFFCURVE",
"718 -532 OFFCURVE",
"758 -515 CURVE SMOOTH",
"797 -499 OFFCURVE",
"839 -517 OFFCURVE",
"857 -558 CURVE SMOOTH",
"876 -599 OFFCURVE",
"854 -646 OFFCURVE",
"813 -661 CURVE SMOOTH",
"803 -664 OFFCURVE",
"794 -666 OFFCURVE",
"785 -666 CURVE SMOOTH",
"774 -666 OFFCURVE",
"764 -664 OFFCURVE",
"754 -659 CURVE",
"733 -651 OFFCURVE",
"720 -636 OFFCURVE",
"712 -617 CURVE SMOOTH"
);
},
{
closed = 1;
nodes = (
"972 394 LINE SMOOTH",
"984 435 OFFCURVE",
"1026 460 OFFCURVE",
"1070 447 CURVE SMOOTH",
"1111 435 OFFCURVE",
"1136 394 OFFCURVE",
"1123 350 CURVE SMOOTH",
"933 -358 LINE SMOOTH",
"925 -386 OFFCURVE",
"912 -404 OFFCURVE",
"890 -412 CURVE",
"879 -417 OFFCURVE",
"867 -420 OFFCURVE",
"857 -420 CURVE SMOOTH",
"849 -420 OFFCURVE",
"843 -418 OFFCURVE",
"835 -415 CURVE",
"795 -402 OFFCURVE",
"776 -378 OFFCURVE",
"776 -343 CURVE SMOOTH",
"776 -335 OFFCURVE",
"777 -327 OFFCURVE",
"779 -319 CURVE"
);
},
{
closed = 1;
nodes = (
"1098 -323 OFFCURVE",
"1097 -314 OFFCURVE",
"1097 -304 CURVE SMOOTH",
"1097 -294 OFFCURVE",
"1098 -284 OFFCURVE",
"1103 -274 CURVE",
"1121 -233 OFFCURVE",
"1167 -214 OFFCURVE",
"1208 -233 CURVE SMOOTH",
"1246 -251 OFFCURVE",
"1262 -294 OFFCURVE",
"1247 -335 CURVE",
"1239 -355 OFFCURVE",
"1224 -368 OFFCURVE",
"1205 -376 CURVE",
"1195 -379 OFFCURVE",
"1185 -381 OFFCURVE",
"1177 -381 CURVE SMOOTH",
"1165 -381 OFFCURVE",
"1156 -379 OFFCURVE",
"1144 -374 CURVE SMOOTH",
"1126 -366 OFFCURVE",
"1111 -353 OFFCURVE",
"1103 -333 CURVE"
);
},
{
closed = 1;
nodes = (
"1285 394 LINE SMOOTH",
"1297 435 OFFCURVE",
"1338 460 OFFCURVE",
"1382 447 CURVE SMOOTH",
"1423 435 OFFCURVE",
"1449 394 OFFCURVE",
"1436 350 CURVE SMOOTH",
"1318 -83 LINE SMOOTH",
"1306 -120 OFFCURVE",
"1283 -140 OFFCURVE",
"1247 -140 CURVE SMOOTH",
"1239 -140 OFFCURVE",
"1229 -138 OFFCURVE",
"1221 -137 CURVE",
"1182 -125 OFFCURVE",
"1164 -92 OFFCURVE",
"1164 -65 CURVE SMOOTH",
"1164 -56 OFFCURVE",
"1165 -48 OFFCURVE",
"1167 -40 CURVE"
);
},
{
closed = 1;
nodes = (
"1357 1135 OFFCURVE",
"1418 1036 OFFCURVE",
"1442 920 CURVE",
"1472 920 LINE SMOOTH",
"1591 920 OFFCURVE",
"1691 884 OFFCURVE",
"1775 810 CURVE",
"1804 836 OFFCURVE",
"1827 869 OFFCURVE",
"1845 910 CURVE",
"1668 994 OFFCURVE",
"1570 1171 OFFCURVE",
"1570 1348 CURVE SMOOTH",
"1570 1357 OFFCURVE",
"1570 1367 OFFCURVE",
"1570 1377 CURVE",
"1562 1379 OFFCURVE",
"1554 1379 OFFCURVE",
"1546 1379 CURVE SMOOTH",
"1436 1380 OFFCURVE",
"1321 1326 OFFCURVE",
"1261 1215 CURVE"
);
}
);
width = 2040;
}
);
unicode = F024;
},
{
glyphname = "night-alt-lightning";
lastChange = "2013-07-01 03:00:15 -0700";
layers = (
{
layerId = "1E718338-5C3C-490C-A197-65E7F37A33B6";
name = "Regular";
paths = (
{
closed = 1;
nodes = (
"-1 677 OFFCURVE",
"150 862 OFFCURVE",
"354 910 CURVE",
"412 1165 OFFCURVE",
"638 1345 OFFCURVE",
"901 1345 CURVE SMOOTH",
"981 1345 OFFCURVE",
"1055 1330 OFFCURVE",
"1119 1303 CURVE",
"1230 1486 OFFCURVE",
"1414 1542 OFFCURVE",
"1540 1542 CURVE SMOOTH",
"1577 1542 OFFCURVE",
"1617 1537 OFFCURVE",
"1656 1527 CURVE",
"1730 1504 LINE",
"1741 1499 OFFCURVE",
"1746 1492 OFFCURVE",
"1743 1483 CURVE",
"1730 1425 LINE SMOOTH",
"1725 1401 OFFCURVE",
"1721 1376 OFFCURVE",
"1721 1352 CURVE SMOOTH",
"1721 1235 OFFCURVE",
"1792 1085 OFFCURVE",
"1960 1037 CURVE SMOOTH",
"2014 1021 LINE SMOOTH",
"2024 1018 OFFCURVE",
"2029 1013 OFFCURVE",
"2029 1006 CURVE SMOOTH",
"2029 1005 OFFCURVE",
"2029 1001 OFFCURVE",
"2028 1000 CURVE",
"2014 933 LINE",
"1992 839 OFFCURVE",
"1944 759 OFFCURVE",
"1870 692 CURVE",
"1913 621 OFFCURVE",
"1934 544 OFFCURVE",
"1934 461 CURVE SMOOTH",
"1934 212 OFFCURVE",
"1738 6 OFFCURVE",
"1489 -2 CURVE SMOOTH",
"1477 -2 OFFCURVE",
"1471 3 OFFCURVE",
"1471 14 CURVE SMOOTH",
"1471 142 LINE SMOOTH",
"1471 153 OFFCURVE",
"1477 158 OFFCURVE",
"1489 158 CURVE",
"1651 170 OFFCURVE",
"1777 302 OFFCURVE",
"1777 461 CURVE SMOOTH",
"1777 626 OFFCURVE",
"1640 762 OFFCURVE",
"1471 762 CURVE SMOOTH",
"1320 762 LINE SMOOTH",
"1309 762 OFFCURVE",
"1304 767 OFFCURVE",
"1304 779 CURVE",
"1297 833 LINE SMOOTH",
"1276 1036 OFFCURVE",
"1104 1188 OFFCURVE",
"901 1188 CURVE SMOOTH",
"696 1188 OFFCURVE",
"526 1034 OFFCURVE",
"507 833 CURVE",
"500 785 LINE",
"500 774 OFFCURVE",
"493 769 OFFCURVE",
"482 769 CURVE",
"433 762 LINE",
"277 749 OFFCURVE",
"158 618 OFFCURVE",
"158 461 CURVE SMOOTH",
"158 302 OFFCURVE",
"284 170 OFFCURVE",
"446 158 CURVE",
"457 158 OFFCURVE",
"462 153 OFFCURVE",
"462 142 CURVE SMOOTH",
"462 14 LINE SMOOTH",
"462 3 OFFCURVE",
"457 -2 OFFCURVE",
"446 -2 CURVE",
"197 9 OFFCURVE",
"-1 212 OFFCURVE",
"-1 461 CURVE SMOOTH"
);
},
{
closed = 1;
nodes = (
"700 -592 LINE",
"929 7 LINE",
"728 7 LINE SMOOTH",
"716 7 OFFCURVE",
"711 14 OFFCURVE",
"715 27 CURVE",
"916 561 LINE",
"921 569 OFFCURVE",
"927 574 OFFCURVE",
"936 574 CURVE SMOOTH",
"1211 574 LINE SMOOTH",
"1225 574 OFFCURVE",
"1230 567 OFFCURVE",
"1224 554 CURVE",
"1009 161 LINE",
"1214 161 LINE SMOOTH",
"1227 161 OFFCURVE",
"1230 150 OFFCURVE",
"1224 142 CURVE",
"728 -592 LINE"
);
},
{
closed = 1;
nodes = (
"1353 1137 OFFCURVE",
"1415 1039 OFFCURVE",
"1441 923 CURVE",
"1471 923 LINE SMOOTH",
"1584 923 OFFCURVE",
"1684 887 OFFCURVE",
"1771 813 CURVE",
"1802 844 OFFCURVE",
"1826 878 OFFCURVE",
"1841 913 CURVE",
"1664 1000 OFFCURVE",
"1566 1175 OFFCURVE",
"1566 1350 CURVE SMOOTH",
"1566 1360 OFFCURVE",
"1566 1370 OFFCURVE",
"1566 1379 CURVE",
"1558 1381 OFFCURVE",
"1549 1381 OFFCURVE",
"1541 1381 CURVE SMOOTH",
"1435 1381 OFFCURVE",
"1320 1327 OFFCURVE",
"1256 1217 CURVE"
);
}
);
width = 2040;
}
);
unicode = F025;
},
{
glyphname = "night-alt-rain";
lastChange = "2013-07-01 03:04:07 -0700";
layers = (
{
layerId = "1E718338-5C3C-490C-A197-65E7F37A33B6";
name = "Regular";
paths = (
{
closed = 1;
nodes = (
"-1 679 OFFCURVE",
"150 865 OFFCURVE",
"355 912 CURVE",
"413 1167 OFFCURVE",
"640 1349 OFFCURVE",
"904 1349 CURVE SMOOTH",
"976 1349 OFFCURVE",
"1048 1334 OFFCURVE",
"1122 1307 CURVE",
"1232 1490 OFFCURVE",
"1416 1546 OFFCURVE",
"1546 1546 CURVE SMOOTH",
"1585 1546 OFFCURVE",
"1625 1541 OFFCURVE",
"1664 1532 CURVE",
"1738 1509 LINE",
"1750 1504 OFFCURVE",
"1755 1497 OFFCURVE",
"1751 1487 CURVE",
"1738 1430 LINE SMOOTH",
"1732 1403 OFFCURVE",
"1728 1377 OFFCURVE",
"1730 1353 CURVE",
"1730 1241 OFFCURVE",
"1802 1088 OFFCURVE",
"1971 1040 CURVE SMOOTH",
"2024 1024 LINE SMOOTH",
"2034 1021 OFFCURVE",
"2039 1016 OFFCURVE",
"2039 1009 CURVE SMOOTH",
"2039 1008 OFFCURVE",
"2039 1004 OFFCURVE",
"2037 1003 CURVE",
"2024 935 LINE",
"2001 842 OFFCURVE",
"1952 760 OFFCURVE",
"1876 691 CURVE",
"1919 620 OFFCURVE",
"1940 545 OFFCURVE",
"1940 462 CURVE SMOOTH",
"1940 213 OFFCURVE",
"1743 6 OFFCURVE",
"1494 -2 CURVE SMOOTH",
"1482 -2 OFFCURVE",
"1475 3 OFFCURVE",
"1475 14 CURVE SMOOTH",
"1475 139 LINE SMOOTH",
"1475 150 OFFCURVE",
"1482 155 OFFCURVE",
"1494 155 CURVE",
"1653 164 OFFCURVE",
"1783 300 OFFCURVE",
"1783 462 CURVE SMOOTH",
"1783 627 OFFCURVE",
"1641 765 OFFCURVE",
"1475 765 CURVE SMOOTH",
"1324 765 LINE SMOOTH",
"1313 765 OFFCURVE",
"1308 770 OFFCURVE",
"1308 781 CURVE",
"1301 835 LINE SMOOTH",
"1280 1037 OFFCURVE",
"1106 1192 OFFCURVE",
"904 1192 CURVE SMOOTH",
"699 1192 OFFCURVE",
"528 1037 OFFCURVE",
"508 835 CURVE SMOOTH",
"502 784 LINE",
"502 773 OFFCURVE",
"495 768 OFFCURVE",
"484 768 CURVE",
"434 765 LINE",
"278 747 OFFCURVE",
"158 618 OFFCURVE",
"158 462 CURVE SMOOTH",
"158 300 OFFCURVE",
"288 164 OFFCURVE",
"447 155 CURVE",
"459 155 OFFCURVE",
"464 150 OFFCURVE",
"464 139 CURVE SMOOTH",
"464 14 LINE SMOOTH",
"464 3 OFFCURVE",
"459 -2 OFFCURVE",
"447 -2 CURVE",
"198 9 OFFCURVE",
"-1 213 OFFCURVE",
"-1 462 CURVE SMOOTH"
);
},
{
closed = 1;
nodes = (
"656 395 LINE",
"669 436 OFFCURVE",
"712 461 OFFCURVE",
"753 448 CURVE",
"797 439 OFFCURVE",
"822 397 OFFCURVE",
"810 351 CURVE SMOOTH",
"625 -326 LINE SMOOTH",
"610 -380 OFFCURVE",
"567 -393 OFFCURVE",
"528 -382 CURVE SMOOTH",
"484 -369 OFFCURVE",
"467 -332 OFFCURVE",
"467 -305 CURVE SMOOTH",
"467 -298 OFFCURVE",
"469 -291 OFFCURVE",
"470 -285 CURVE SMOOTH"
);
},
{
closed = 1;
nodes = (
"975 395 LINE SMOOTH",
"986 436 OFFCURVE",
"1029 461 OFFCURVE",
"1073 448 CURVE SMOOTH",
"1114 436 OFFCURVE",
"1139 395 OFFCURVE",
"1126 351 CURVE SMOOTH",
"865 -612 LINE SMOOTH",
"853 -658 OFFCURVE",
"814 -667 OFFCURVE",
"789 -667 CURVE SMOOTH",
"781 -667 OFFCURVE",
"774 -666 OFFCURVE",
"766 -664 CURVE",
"727 -653 OFFCURVE",
"710 -617 OFFCURVE",
"710 -592 CURVE SMOOTH",
"710 -584 OFFCURVE",
"712 -576 OFFCURVE",
"713 -567 CURVE"
);
},
{
closed = 1;
nodes = (
"1288 395 LINE SMOOTH",
"1300 436 OFFCURVE",
"1341 461 OFFCURVE",
"1385 448 CURVE SMOOTH",
"1426 436 OFFCURVE",
"1452 395 OFFCURVE",
"1439 351 CURVE SMOOTH",
"1254 -326 LINE",
"1249 -354 OFFCURVE",
"1237 -372 OFFCURVE",
"1218 -380 CURVE SMOOTH",
"1206 -385 OFFCURVE",
"1196 -387 OFFCURVE",
"1185 -387 CURVE SMOOTH",
"1177 -387 OFFCURVE",
"1167 -385 OFFCURVE",
"1157 -382 CURVE SMOOTH",
"1119 -370 OFFCURVE",
"1099 -347 OFFCURVE",
"1099 -313 CURVE SMOOTH",
"1099 -305 OFFCURVE",
"1101 -295 OFFCURVE",
"1103 -285 CURVE"
);
},
{
closed = 1;
nodes = (
"1357 1141 OFFCURVE",
"1420 1042 OFFCURVE",
"1446 922 CURVE",
"1475 922 LINE SMOOTH",
"1590 922 OFFCURVE",
"1691 886 OFFCURVE",
"1776 816 CURVE",
"1804 840 OFFCURVE",
"1829 873 OFFCURVE",
"1850 916 CURVE",
"1668 1003 OFFCURVE",
"1569 1180 OFFCURVE",
"1571 1356 CURVE SMOOTH",
"1571 1366 OFFCURVE",
"1571 1376 OFFCURVE",
"1571 1384 CURVE",
"1562 1385 OFFCURVE",
"1554 1385 OFFCURVE",
"1546 1385 CURVE SMOOTH",
"1436 1387 OFFCURVE",
"1321 1333 OFFCURVE",
"1260 1221 CURVE"
);
}
);
width = 2040;
}
);
unicode = F028;
},
{
glyphname = "night-alt-rain-mix";
lastChange = "2013-07-01 03:01:51 -0700";
layers = (
{
layerId = "1E718338-5C3C-490C-A197-65E7F37A33B6";
name = "Regular";
paths = (
{
closed = 1;
nodes = (
"-4 678 OFFCURVE",
"144 860 OFFCURVE",
"352 913 CURVE",
"410 1168 OFFCURVE",
"637 1350 OFFCURVE",
"901 1350 CURVE SMOOTH",
"974 1350 OFFCURVE",
"1046 1335 OFFCURVE",
"1120 1307 CURVE",
"1230 1492 OFFCURVE",
"1414 1549 OFFCURVE",
"1541 1549 CURVE SMOOTH",
"1582 1549 OFFCURVE",
"1621 1544 OFFCURVE",
"1662 1533 CURVE SMOOTH",
"1736 1510 LINE",
"1748 1505 OFFCURVE",
"1753 1498 OFFCURVE",
"1749 1488 CURVE",
"1736 1434 LINE SMOOTH",
"1730 1408 OFFCURVE",
"1726 1381 OFFCURVE",
"1728 1357 CURVE",
"1728 1245 OFFCURVE",
"1800 1092 OFFCURVE",
"1970 1041 CURVE SMOOTH",
"2022 1025 LINE SMOOTH",
"2032 1021 OFFCURVE",
"2037 1017 OFFCURVE",
"2037 1010 CURVE SMOOTH",
"2037 1008 OFFCURVE",
"2037 1005 OFFCURVE",
"2035 1003 CURVE",
"2022 939 LINE SMOOTH",
"2001 846 OFFCURVE",
"1951 763 OFFCURVE",
"1874 694 CURVE",
"1917 620 OFFCURVE",
"1938 543 OFFCURVE",
"1938 459 CURVE SMOOTH",
"1938 211 OFFCURVE",
"1741 6 OFFCURVE",
"1491 -2 CURVE SMOOTH",
"1480 -2 OFFCURVE",
"1473 3 OFFCURVE",
"1473 14 CURVE SMOOTH",
"1473 139 LINE SMOOTH",
"1473 150 OFFCURVE",
"1480 155 OFFCURVE",
"1491 155 CURVE",
"1651 164 OFFCURVE",
"1781 302 OFFCURVE",
"1781 459 CURVE SMOOTH",
"1781 625 OFFCURVE",
"1642 765 OFFCURVE",
"1473 765 CURVE SMOOTH",
"1322 765 LINE SMOOTH",
"1310 765 OFFCURVE",
"1306 770 OFFCURVE",
"1306 782 CURVE",
"1299 836 LINE SMOOTH",
"1278 1038 OFFCURVE",
"1103 1192 OFFCURVE",
"901 1192 CURVE SMOOTH",
"696 1192 OFFCURVE",
"525 1038 OFFCURVE",
"505 832 CURVE",
"499 785 LINE",
"499 773 OFFCURVE",
"492 768 OFFCURVE",
"481 768 CURVE",
"431 762 LINE",
"275 749 OFFCURVE",
"155 617 OFFCURVE",
"155 459 CURVE SMOOTH",
"155 302 OFFCURVE",
"285 164 OFFCURVE",
"444 155 CURVE",
"456 155 OFFCURVE",
"461 150 OFFCURVE",
"461 139 CURVE SMOOTH",
"461 14 LINE SMOOTH",
"461 3 OFFCURVE",
"456 -2 OFFCURVE",
"444 -2 CURVE SMOOTH",
"195 6 OFFCURVE",
"-4 211 OFFCURVE",
"-4 459 CURVE SMOOTH"
);
},
{
closed = 1;
nodes = (
"495 -198 LINE",
"509 -157 OFFCURVE",
"551 -131 OFFCURVE",
"596 -144 CURVE SMOOTH",
"637 -155 OFFCURVE",
"663 -196 OFFCURVE",
"650 -241 CURVE SMOOTH",
"605 -400 LINE SMOOTH",
"592 -446 OFFCURVE",
"543 -466 OFFCURVE",
"509 -453 CURVE",
"469 -440 OFFCURVE",
"451 -403 OFFCURVE",
"451 -379 CURVE SMOOTH",
"451 -370 OFFCURVE",
"453 -364 OFFCURVE",
"454 -356 CURVE"
);
},
{
closed = 1;
nodes = (
"559 -42 OFFCURVE",
"551 -24 OFFCURVE",
"551 -2 CURVE SMOOTH",
"551 42 OFFCURVE",
"584 75 OFFCURVE",
"628 75 CURVE SMOOTH",
"673 75 OFFCURVE",
"707 42 OFFCURVE",
"707 -2 CURVE SMOOTH",
"707 -47 OFFCURVE",
"673 -80 OFFCURVE",
"628 -80 CURVE SMOOTH",
"607 -80 OFFCURVE",
"589 -71 OFFCURVE",
"574 -57 CURVE SMOOTH"
);
},
{
closed = 1;
nodes = (
"656 395 LINE",
"665 440 OFFCURVE",
"707 463 OFFCURVE",
"753 451 CURVE",
"794 438 OFFCURVE",
"821 394 OFFCURVE",
"808 354 CURVE",
"767 196 LINE SMOOTH",
"752 142 OFFCURVE",
"709 127 OFFCURVE",
"670 139 CURVE SMOOTH",
"628 150 OFFCURVE",
"609 175 OFFCURVE",
"609 210 CURVE SMOOTH",
"609 218 OFFCURVE",
"610 226 OFFCURVE",
"612 236 CURVE"
);
},
{
closed = 1;
nodes = (
"734 -490 LINE",
"747 -449 OFFCURVE",
"790 -423 OFFCURVE",
"834 -436 CURVE SMOOTH",
"875 -448 OFFCURVE",
"901 -490 OFFCURVE",
"888 -535 CURVE SMOOTH",
"844 -693 LINE SMOOTH",
"831 -737 OFFCURVE",
"791 -750 OFFCURVE",
"767 -750 CURVE SMOOTH",
"760 -750 OFFCURVE",
"753 -748 OFFCURVE",
"747 -747 CURVE SMOOTH",
"706 -735 OFFCURVE",
"688 -698 OFFCURVE",
"689 -671 CURVE",
"689 -663 OFFCURVE",
"691 -656 OFFCURVE",
"693 -648 CURVE"
);
},
{
closed = 1;
nodes = (
"791 -251 OFFCURVE",
"824 -214 OFFCURVE",
"868 -214 CURVE SMOOTH",
"913 -214 OFFCURVE",
"946 -251 OFFCURVE",
"946 -295 CURVE SMOOTH",
"946 -336 OFFCURVE",
"913 -372 OFFCURVE",
"868 -372 CURVE SMOOTH",
"824 -372 OFFCURVE",
"791 -336 OFFCURVE",
"791 -295 CURVE SMOOTH"
);
},
{
closed = 1;
nodes = (
"895 101 LINE",
"903 146 OFFCURVE",
"947 170 OFFCURVE",
"993 159 CURVE",
"1034 146 OFFCURVE",
"1059 103 OFFCURVE",
"1046 62 CURVE",
"1006 -96 LINE SMOOTH",
"993 -147 OFFCURVE",
"949 -167 OFFCURVE",
"908 -154 CURVE SMOOTH",
"868 -140 OFFCURVE",
"849 -116 OFFCURVE",
"849 -81 CURVE SMOOTH",
"849 -73 OFFCURVE",
"850 -65 OFFCURVE",
"852 -57 CURVE"
);
},
{
closed = 1;
nodes = (
"1123 -201 LINE SMOOTH",
"1135 -160 OFFCURVE",
"1177 -134 OFFCURVE",
"1222 -147 CURVE",
"1266 -155 OFFCURVE",
"1291 -198 OFFCURVE",
"1279 -244 CURVE SMOOTH",
"1235 -403 LINE SMOOTH",
"1222 -448 OFFCURVE",
"1184 -458 OFFCURVE",
"1159 -459 CURVE",
"1153 -459 OFFCURVE",
"1146 -458 OFFCURVE",
"1138 -456 CURVE",
"1097 -443 OFFCURVE",
"1079 -408 OFFCURVE",
"1079 -377 CURVE SMOOTH",
"1079 -372 OFFCURVE",
"1079 -366 OFFCURVE",
"1080 -359 CURVE SMOOTH"
);
},
{
closed = 1;
nodes = (
"1186 -45 OFFCURVE",
"1177 -27 OFFCURVE",
"1177 -6 CURVE SMOOTH",
"1177 39 OFFCURVE",
"1214 72 OFFCURVE",
"1258 72 CURVE SMOOTH",
"1299 72 OFFCURVE",
"1337 39 OFFCURVE",
"1337 -6 CURVE SMOOTH",
"1337 -50 OFFCURVE",
"1299 -83 OFFCURVE",
"1258 -83 CURVE SMOOTH",
"1237 -83 OFFCURVE",
"1217 -75 OFFCURVE",
"1202 -60 CURVE"
);
},
{
closed = 1;
nodes = (
"1283 392 LINE SMOOTH",
"1296 436 OFFCURVE",
"1338 459 OFFCURVE",
"1380 448 CURVE SMOOTH",
"1424 435 OFFCURVE",
"1449 392 OFFCURVE",
"1437 351 CURVE SMOOTH",
"1393 193 LINE SMOOTH",
"1381 152 OFFCURVE",
"1358 132 OFFCURVE",
"1324 132 CURVE SMOOTH",
"1315 132 OFFCURVE",
"1306 134 OFFCURVE",
"1296 136 CURVE",
"1250 149 OFFCURVE",
"1235 185 OFFCURVE",
"1235 211 CURVE SMOOTH",
"1235 218 OFFCURVE",
"1237 224 OFFCURVE",
"1238 233 CURVE"
);
},
{
closed = 1;
nodes = (
"1352 1145 OFFCURVE",
"1414 1046 OFFCURVE",
"1444 923 CURVE",
"1473 923 LINE SMOOTH",
"1588 923 OFFCURVE",
"1688 887 OFFCURVE",
"1774 816 CURVE",
"1805 847 OFFCURVE",
"1830 882 OFFCURVE",
"1848 920 CURVE",
"1665 1003 OFFCURVE",
"1567 1181 OFFCURVE",
"1569 1358 CURVE SMOOTH",
"1569 1368 OFFCURVE",
"1569 1378 OFFCURVE",
"1569 1388 CURVE",
"1559 1390 OFFCURVE",
"1549 1390 OFFCURVE",
"1541 1390 CURVE SMOOTH",
"1435 1391 OFFCURVE",
"1319 1334 OFFCURVE",
"1258 1222 CURVE"
);
}
);
width = 2040;
}
);
unicode = F026;
},
{
glyphname = "night-alt-rain-wind";
lastChange = "2013-07-01 03:03:22 -0700";
layers = (
{
layerId = "1E718338-5C3C-490C-A197-65E7F37A33B6";
name = "Regular";
paths = (
{
closed = 1;
nodes = (
"-1 676 OFFCURVE",
"145 858 OFFCURVE",
"355 909 CURVE",
"413 1163 OFFCURVE",
"639 1345 OFFCURVE",
"903 1345 CURVE SMOOTH",
"979 1345 OFFCURVE",
"1051 1330 OFFCURVE",
"1122 1299 CURVE",
"1232 1485 OFFCURVE",
"1416 1540 OFFCURVE",
"1547 1542 CURVE SMOOTH",
"1585 1542 OFFCURVE",
"1624 1537 OFFCURVE",
"1663 1527 CURVE",
"1665 1526 OFFCURVE",
"1667 1526 OFFCURVE",
"1670 1524 CURVE SMOOTH",
"1673 1522 OFFCURVE",
"1675 1522 OFFCURVE",
"1676 1521 CURVE",
"1754 1499 LINE",
"1737 1426 LINE SMOOTH",
"1732 1401 OFFCURVE",
"1729 1376 OFFCURVE",
"1729 1352 CURVE SMOOTH",
"1729 1235 OFFCURVE",
"1801 1087 OFFCURVE",
"1970 1037 CURVE",
"2041 1012 LINE",
"2023 941 LINE",
"2023 932 LINE",
"2000 838 OFFCURVE",
"1951 756 OFFCURVE",
"1875 687 CURVE",
"1918 616 OFFCURVE",
"1939 541 OFFCURVE",
"1939 459 CURVE SMOOTH",
"1939 221 OFFCURVE",
"1757 22 OFFCURVE",
"1522 -2 CURVE",
"1109 -519 LINE SMOOTH",
"1091 -542 OFFCURVE",
"1071 -554 OFFCURVE",
"1049 -554 CURVE SMOOTH",
"1015 -554 OFFCURVE",
"972 -523 OFFCURVE",
"967 -477 CURVE",
"964 -455 OFFCURVE",
"969 -436 OFFCURVE",
"984 -419 CURVE",
"1425 129 LINE",
"1437 142 OFFCURVE",
"1463 150 OFFCURVE",
"1506 155 CURVE SMOOTH",
"1658 168 OFFCURVE",
"1778 301 OFFCURVE",
"1778 459 CURVE SMOOTH",
"1778 623 OFFCURVE",
"1640 761 OFFCURVE",
"1475 761 CURVE SMOOTH",
"1324 761 LINE SMOOTH",
"1312 761 OFFCURVE",
"1307 766 OFFCURVE",
"1307 777 CURVE",
"1301 831 LINE SMOOTH",
"1279 1033 OFFCURVE",
"1105 1188 OFFCURVE",
"903 1188 CURVE SMOOTH",
"698 1188 OFFCURVE",
"529 1033 OFFCURVE",
"505 831 CURVE SMOOTH",
"498 781 LINE",
"498 769 OFFCURVE",
"491 764 OFFCURVE",
"480 764 CURVE",
"434 758 LINE",
"276 744 OFFCURVE",
"158 615 OFFCURVE",
"158 459 CURVE SMOOTH",
"158 293 OFFCURVE",
"296 152 OFFCURVE",
"460 152 CURVE",
"355 21 LINE",
"347 14 OFFCURVE",
"340 12 OFFCURVE",
"332 14 CURVE",
"137 68 OFFCURVE",
"-1 249 OFFCURVE",
"-1 459 CURVE SMOOTH"
);
},
{
closed = 1;
nodes = (
"237 -372 OFFCURVE",
"285 -354 OFFCURVE",
"326 -372 CURVE",
"365 -386 OFFCURVE",
"385 -436 OFFCURVE",
"367 -477 CURVE",
"352 -516 OFFCURVE",
"303 -534 OFFCURVE",
"262 -516 CURVE SMOOTH",
"244 -508 OFFCURVE",
"230 -493 OFFCURVE",
"222 -473 CURVE",
"217 -464 OFFCURVE",
"216 -454 OFFCURVE",
"216 -444 CURVE SMOOTH",
"216 -434 OFFCURVE",
"217 -424 OFFCURVE",
"222 -413 CURVE"
);
},
{
closed = 1;
nodes = (
"340 -802 OFFCURVE",
"337 -780 OFFCURVE",
"349 -759 CURVE",
"367 -721 OFFCURVE",
"409 -703 OFFCURVE",
"450 -718 CURVE",
"491 -738 OFFCURVE",
"505 -782 OFFCURVE",
"490 -823 CURVE",
"482 -843 OFFCURVE",
"468 -856 OFFCURVE",
"449 -864 CURVE",
"439 -867 OFFCURVE",
"429 -869 OFFCURVE",
"421 -869 CURVE SMOOTH",
"411 -869 OFFCURVE",
"401 -867 OFFCURVE",
"390 -862 CURVE SMOOTH",
"370 -854 OFFCURVE",
"355 -839 OFFCURVE",
"347 -820 CURVE"
);
},
{
closed = 1;
nodes = (
"388 -222 OFFCURVE",
"388 -219 OFFCURVE",
"388 -216 CURVE SMOOTH",
"388 -198 OFFCURVE",
"395 -181 OFFCURVE",
"406 -166 CURVE SMOOTH",
"846 377 LINE",
"872 415 OFFCURVE",
"925 418 OFFCURVE",
"958 392 CURVE SMOOTH",
"990 365 OFFCURVE",
"997 313 OFFCURVE",
"971 280 CURVE SMOOTH",
"531 -268 LINE",
"490 -309 OFFCURVE",
"445 -304 OFFCURVE",
"419 -278 CURVE",
"401 -265 OFFCURVE",
"390 -247 OFFCURVE",
"388 -226 CURVE"
);
},
{
closed = 1;
nodes = (
"496 -577 OFFCURVE",
"496 -574 OFFCURVE",
"496 -572 CURVE SMOOTH",
"496 -554 OFFCURVE",
"503 -537 OFFCURVE",
"514 -523 CURVE SMOOTH",
"1136 254 LINE SMOOTH",
"1163 287 OFFCURVE",
"1212 291 OFFCURVE",
"1250 264 CURVE",
"1283 237 OFFCURVE",
"1286 185 OFFCURVE",
"1260 152 CURVE SMOOTH",
"634 -624 LINE SMOOTH",
"618 -646 OFFCURVE",
"600 -656 OFFCURVE",
"578 -656 CURVE SMOOTH",
"546 -656 OFFCURVE",
"501 -624 OFFCURVE",
"496 -580 CURVE"
);
},
{
closed = 1;
nodes = (
"849 -606 OFFCURVE",
"894 -590 OFFCURVE",
"935 -605 CURVE",
"976 -624 OFFCURVE",
"992 -667 OFFCURVE",
"974 -708 CURVE SMOOTH",
"966 -728 OFFCURVE",
"951 -743 OFFCURVE",
"931 -751 CURVE SMOOTH",
"912 -759 OFFCURVE",
"894 -757 OFFCURVE",
"874 -749 CURVE SMOOTH",
"853 -741 OFFCURVE",
"838 -728 OFFCURVE",
"830 -706 CURVE",
"825 -695 OFFCURVE",
"823 -685 OFFCURVE",
"823 -675 CURVE SMOOTH",
"823 -665 OFFCURVE",
"825 -656 OFFCURVE",
"830 -644 CURVE"
);
},
{
closed = 1;
nodes = (
"1355 1137 OFFCURVE",
"1417 1037 OFFCURVE",
"1445 918 CURVE",
"1475 918 LINE SMOOTH",
"1591 918 OFFCURVE",
"1691 882 OFFCURVE",
"1775 808 CURVE",
"1803 836 OFFCURVE",
"1827 871 OFFCURVE",
"1849 912 CURVE",
"1672 997 OFFCURVE",
"1570 1176 OFFCURVE",
"1570 1352 CURVE SMOOTH",
"1570 1362 OFFCURVE",
"1570 1371 OFFCURVE",
"1570 1380 CURVE",
"1562 1381 OFFCURVE",
"1553 1381 OFFCURVE",
"1545 1381 CURVE SMOOTH",
"1435 1383 OFFCURVE",
"1320 1329 OFFCURVE",
"1260 1217 CURVE"
);
}
);
width = 2040;
}
);
unicode = F027;
},
{
glyphname = "night-alt-showers";
lastChange = "2013-07-01 03:04:41 -0700";
layers = (
{
layerId = "1E718338-5C3C-490C-A197-65E7F37A33B6";
name = "Regular";
paths = (
{
closed = 1;
nodes = (
"-1 677 OFFCURVE",
"150 862 OFFCURVE",
"359 909 CURVE",
"413 1163 OFFCURVE",
"637 1345 OFFCURVE",
"901 1345 CURVE SMOOTH",
"978 1345 OFFCURVE",
"1052 1330 OFFCURVE",
"1122 1299 CURVE",
"1232 1484 OFFCURVE",
"1415 1540 OFFCURVE",
"1546 1540 CURVE SMOOTH",
"1584 1540 OFFCURVE",
"1623 1535 OFFCURVE",
"1662 1527 CURVE",
"1675 1523 LINE",
"1754 1500 LINE",
"1736 1425 LINE",
"1731 1401 OFFCURVE",
"1728 1378 OFFCURVE",
"1728 1353 CURVE SMOOTH",
"1728 1237 OFFCURVE",
"1805 1085 OFFCURVE",
"1968 1037 CURVE SMOOTH",
"2039 1018 LINE",
"2021 944 LINE",
"2021 932 LINE",
"1998 837 OFFCURVE",
"1949 756 OFFCURVE",
"1873 688 CURVE",
"1914 616 OFFCURVE",
"1934 541 OFFCURVE",
"1934 461 CURVE SMOOTH",
"1934 212 OFFCURVE",
"1738 6 OFFCURVE",
"1489 -2 CURVE SMOOTH",
"1477 -2 OFFCURVE",
"1471 3 OFFCURVE",
"1471 14 CURVE SMOOTH",
"1471 142 LINE SMOOTH",
"1471 153 OFFCURVE",
"1477 158 OFFCURVE",
"1489 158 CURVE",
"1651 170 OFFCURVE",
"1777 302 OFFCURVE",
"1777 461 CURVE SMOOTH",
"1777 626 OFFCURVE",
"1639 762 OFFCURVE",
"1471 762 CURVE SMOOTH",
"1320 762 LINE SMOOTH",
"1309 762 OFFCURVE",
"1304 767 OFFCURVE",
"1304 779 CURVE",
"1297 833 LINE SMOOTH",
"1276 1036 OFFCURVE",
"1104 1188 OFFCURVE",
"901 1188 CURVE SMOOTH",
"696 1188 OFFCURVE",
"526 1034 OFFCURVE",
"507 833 CURVE",
"500 785 LINE",
"500 774 OFFCURVE",
"493 769 OFFCURVE",
"482 769 CURVE",
"433 762 LINE SMOOTH",
"277 744 OFFCURVE",
"158 616 OFFCURVE",
"158 461 CURVE SMOOTH",
"158 302 OFFCURVE",
"284 170 OFFCURVE",
"446 158 CURVE",
"457 158 OFFCURVE",
"462 153 OFFCURVE",
"462 142 CURVE SMOOTH",
"462 14 LINE SMOOTH",
"462 3 OFFCURVE",
"457 -2 OFFCURVE",
"446 -2 CURVE",
"197 9 OFFCURVE",
"-1 212 OFFCURVE",
"-1 461 CURVE SMOOTH"
);
},
{
closed = 1;
nodes = (
"529 -53 LINE",
"543 -9 OFFCURVE",
"585 16 OFFCURVE",
"629 4 CURVE",
"670 -9 OFFCURVE",
"696 -53 OFFCURVE",
"683 -92 CURVE",
"657 -191 LINE SMOOTH",
"644 -236 OFFCURVE",
"598 -256 OFFCURVE",
"559 -243 CURVE",
"520 -228 OFFCURVE",
"503 -196 OFFCURVE",
"503 -171 CURVE SMOOTH",
"503 -163 OFFCURVE",
"505 -155 OFFCURVE",
"507 -146 CURVE"
);
},
{
closed = 1;
nodes = (
"654 394 LINE",
"667 438 OFFCURVE",
"708 461 OFFCURVE",
"754 449 CURVE SMOOTH",
"795 438 OFFCURVE",
"821 397 OFFCURVE",
"808 353 CURVE SMOOTH",
"782 256 LINE SMOOTH",
"768 210 OFFCURVE",
"728 191 OFFCURVE",
"683 202 CURVE SMOOTH",
"659 209 OFFCURVE",
"641 220 OFFCURVE",
"633 238 CURVE",
"628 248 OFFCURVE",
"624 260 OFFCURVE",
"624 271 CURVE SMOOTH",
"624 279 OFFCURVE",
"626 289 OFFCURVE",
"629 299 CURVE"
);
},
{
closed = 1;
nodes = (
"767 -344 LINE",
"780 -300 OFFCURVE",
"822 -276 OFFCURVE",
"868 -287 CURVE",
"909 -300 OFFCURVE",
"935 -344 OFFCURVE",
"922 -384 CURVE",
"894 -482 LINE SMOOTH",
"886 -508 OFFCURVE",
"873 -526 OFFCURVE",
"854 -534 CURVE SMOOTH",
"842 -539 OFFCURVE",
"831 -543 OFFCURVE",
"819 -543 CURVE SMOOTH",
"811 -543 OFFCURVE",
"804 -541 OFFCURVE",
"798 -539 CURVE",
"757 -526 OFFCURVE",
"741 -489 OFFCURVE",
"741 -462 CURVE SMOOTH",
"741 -454 OFFCURVE",
"742 -446 OFFCURVE",
"744 -438 CURVE"
);
},
{
closed = 1;
nodes = (
"891 101 LINE",
"904 145 OFFCURVE",
"947 170 OFFCURVE",
"993 158 CURVE",
"1034 145 OFFCURVE",
"1058 102 OFFCURVE",
"1045 62 CURVE",
"1019 -35 LINE SMOOTH",
"1006 -81 OFFCURVE",
"963 -102 OFFCURVE",
"922 -89 CURVE",
"881 -74 OFFCURVE",
"865 -42 OFFCURVE",
"865 -17 CURVE SMOOTH",
"865 -9 OFFCURVE",
"867 -1 OFFCURVE",
"868 7 CURVE"
);
},
{
closed = 1;
nodes = (
"1156 -56 LINE SMOOTH",
"1168 -15 OFFCURVE",
"1209 11 OFFCURVE",
"1253 -2 CURVE",
"1297 -11 OFFCURVE",
"1322 -53 OFFCURVE",
"1310 -99 CURVE SMOOTH",
"1284 -194 LINE SMOOTH",
"1276 -222 OFFCURVE",
"1263 -240 OFFCURVE",
"1243 -248 CURVE SMOOTH",
"1232 -253 OFFCURVE",
"1220 -254 OFFCURVE",
"1209 -254 CURVE SMOOTH",
"1201 -254 OFFCURVE",
"1194 -253 OFFCURVE",
"1186 -251 CURVE",
"1147 -240 OFFCURVE",
"1127 -217 OFFCURVE",
"1127 -181 CURVE SMOOTH",
"1127 -173 OFFCURVE",
"1129 -163 OFFCURVE",
"1130 -153 CURVE"
);
},
{
closed = 1;
nodes = (
"1284 391 LINE",
"1297 435 OFFCURVE",
"1340 458 OFFCURVE",
"1381 446 CURVE SMOOTH",
"1425 433 OFFCURVE",
"1449 391 OFFCURVE",
"1438 350 CURVE SMOOTH",
"1412 253 LINE",
"1404 227 OFFCURVE",
"1391 209 OFFCURVE",
"1371 201 CURVE SMOOTH",
"1359 196 OFFCURVE",
"1348 192 OFFCURVE",
"1336 192 CURVE SMOOTH",
"1328 192 OFFCURVE",
"1322 194 OFFCURVE",
"1314 196 CURVE",
"1273 209 OFFCURVE",
"1256 243 OFFCURVE",
"1256 269 CURVE SMOOTH",
"1256 278 OFFCURVE",
"1258 284 OFFCURVE",
"1260 292 CURVE"
);
},
{
closed = 1;
nodes = (
"1356 1132 OFFCURVE",
"1417 1034 OFFCURVE",
"1441 923 CURVE",
"1471 923 LINE SMOOTH",
"1587 923 OFFCURVE",
"1687 885 OFFCURVE",
"1774 810 CURVE",
"1801 837 OFFCURVE",
"1826 872 OFFCURVE",
"1847 913 CURVE",
"1669 1000 OFFCURVE",
"1571 1176 OFFCURVE",
"1571 1348 CURVE SMOOTH",
"1571 1360 OFFCURVE",
"1571 1371 OFFCURVE",
"1572 1383 CURVE",
"1566 1383 OFFCURVE",
"1559 1383 OFFCURVE",
"1553 1383 CURVE SMOOTH",
"1436 1383 OFFCURVE",
"1320 1324 OFFCURVE",
"1260 1217 CURVE"
);
}
);
width = 2040;
}
);
unicode = F029;
},
{
glyphname = "night-alt-snow";
lastChange = "2013-07-01 03:05:21 -0700";
layers = (
{
layerId = "1E718338-5C3C-490C-A197-65E7F37A33B6";
name = "Regular";
paths = (
{
closed = 1;
nodes = (
"-1 678 OFFCURVE",
"147 860 OFFCURVE",
"355 912 CURVE",
"413 1167 OFFCURVE",
"640 1349 OFFCURVE",
"904 1349 CURVE SMOOTH",
"978 1349 OFFCURVE",
"1052 1334 OFFCURVE",
"1126 1303 CURVE",
"1236 1487 OFFCURVE",
"1415 1543 OFFCURVE",
"1544 1543 CURVE SMOOTH",
"1582 1543 OFFCURVE",
"1622 1538 OFFCURVE",
"1661 1528 CURVE",
"1735 1505 LINE",
"1746 1500 OFFCURVE",
"1751 1494 OFFCURVE",
"1748 1484 CURVE",
"1738 1426 LINE",
"1732 1399 OFFCURVE",
"1728 1372 OFFCURVE",
"1728 1346 CURVE SMOOTH",
"1727 1234 OFFCURVE",
"1796 1088 OFFCURVE",
"1967 1037 CURVE SMOOTH",
"2024 1021 LINE",
"2034 1018 OFFCURVE",
"2039 1013 OFFCURVE",
"2039 1006 CURVE SMOOTH",
"2039 1004 OFFCURVE",
"2039 1001 OFFCURVE",
"2037 999 CURVE",
"2021 932 LINE SMOOTH",
"1996 835 OFFCURVE",
"1950 755 OFFCURVE",
"1879 691 CURVE",
"1921 618 OFFCURVE",
"1940 541 OFFCURVE",
"1940 459 CURVE SMOOTH",
"1940 211 OFFCURVE",
"1743 6 OFFCURVE",
"1494 -2 CURVE SMOOTH",
"1482 -2 OFFCURVE",
"1475 3 OFFCURVE",
"1475 14 CURVE SMOOTH",
"1475 139 LINE SMOOTH",
"1475 150 OFFCURVE",
"1482 155 OFFCURVE",
"1494 155 CURVE",
"1653 164 OFFCURVE",
"1783 301 OFFCURVE",
"1783 459 CURVE SMOOTH",
"1783 625 OFFCURVE",
"1645 765 OFFCURVE",
"1475 765 CURVE SMOOTH",
"1324 765 LINE SMOOTH",
"1313 765 OFFCURVE",
"1308 770 OFFCURVE",
"1308 781 CURVE",
"1301 835 LINE SMOOTH",
"1280 1037 OFFCURVE",
"1106 1192 OFFCURVE",
"904 1192 CURVE SMOOTH",
"699 1192 OFFCURVE",
"528 1037 OFFCURVE",
"508 832 CURVE",
"502 784 LINE",
"502 773 OFFCURVE",
"495 768 OFFCURVE",
"484 768 CURVE",
"434 761 LINE",
"278 748 OFFCURVE",
"158 617 OFFCURVE",
"158 459 CURVE SMOOTH",
"158 301 OFFCURVE",
"288 164 OFFCURVE",
"447 155 CURVE",
"459 155 OFFCURVE",
"464 150 OFFCURVE",
"464 139 CURVE SMOOTH",
"464 14 LINE SMOOTH",
"464 3 OFFCURVE",
"459 -2 OFFCURVE",
"447 -2 CURVE SMOOTH",
"198 6 OFFCURVE",
"-1 211 OFFCURVE",
"-1 459 CURVE SMOOTH"
);
},
{
closed = 1;
nodes = (
"595 119 OFFCURVE",
"628 155 OFFCURVE",
"672 155 CURVE SMOOTH",
"717 155 OFFCURVE",
"750 119 OFFCURVE",
"750 78 CURVE SMOOTH",
"750 34 OFFCURVE",
"717 -2 OFFCURVE",
"672 -2 CURVE SMOOTH",
"628 -2 OFFCURVE",
"595 34 OFFCURVE",
"595 78 CURVE SMOOTH"
);
},
{
closed = 1;
nodes = (
"603 -301 OFFCURVE",
"595 -283 OFFCURVE",
"595 -262 CURVE SMOOTH",
"595 -217 OFFCURVE",
"628 -185 OFFCURVE",
"672 -185 CURVE SMOOTH",
"717 -185 OFFCURVE",
"750 -217 OFFCURVE",
"750 -262 CURVE SMOOTH",
"750 -306 OFFCURVE",
"717 -339 OFFCURVE",
"672 -339 CURVE SMOOTH",
"651 -339 OFFCURVE",
"633 -331 OFFCURVE",
"618 -316 CURVE SMOOTH"
);
},
{
closed = 1;
nodes = (
"902 -144 OFFCURVE",
"894 -124 OFFCURVE",
"894 -103 CURVE SMOOTH",
"894 -58 OFFCURVE",
"930 -22 OFFCURVE",
"971 -22 CURVE SMOOTH",
"1016 -22 OFFCURVE",
"1052 -58 OFFCURVE",
"1052 -103 CURVE SMOOTH",
"1052 -147 OFFCURVE",
"1016 -181 OFFCURVE",
"971 -181 CURVE SMOOTH",
"950 -181 OFFCURVE",
"932 -173 OFFCURVE",
"917 -158 CURVE SMOOTH"
);
},
{
closed = 1;
nodes = (
"902 196 OFFCURVE",
"894 214 OFFCURVE",
"894 236 CURVE SMOOTH",
"894 280 OFFCURVE",
"930 315 OFFCURVE",
"971 315 CURVE SMOOTH",
"1016 315 OFFCURVE",
"1052 280 OFFCURVE",
"1052 236 CURVE SMOOTH",
"1052 191 OFFCURVE",
"1016 159 OFFCURVE",
"971 159 CURVE SMOOTH",
"950 159 OFFCURVE",
"932 167 OFFCURVE",
"917 182 CURVE SMOOTH"
);
},
{
closed = 1;
nodes = (
"902 -485 OFFCURVE",
"894 -467 OFFCURVE",
"894 -446 CURVE SMOOTH",
"894 -401 OFFCURVE",
"930 -365 OFFCURVE",
"971 -365 CURVE SMOOTH",
"1016 -365 OFFCURVE",
"1052 -401 OFFCURVE",
"1052 -446 CURVE SMOOTH",
"1052 -490 OFFCURVE",
"1016 -523 OFFCURVE",
"971 -523 CURVE SMOOTH",
"950 -523 OFFCURVE",
"932 -515 OFFCURVE",
"917 -500 CURVE SMOOTH"
);
},
{
closed = 1;
nodes = (
"1196 119 OFFCURVE",
"1231 155 OFFCURVE",
"1275 155 CURVE SMOOTH",
"1319 155 OFFCURVE",
"1352 119 OFFCURVE",
"1352 78 CURVE SMOOTH",
"1352 34 OFFCURVE",
"1319 -2 OFFCURVE",
"1275 -2 CURVE SMOOTH",
"1231 -2 OFFCURVE",
"1196 34 OFFCURVE",
"1196 78 CURVE SMOOTH"
);
},
{
closed = 1;
nodes = (
"1204 -301 OFFCURVE",
"1196 -283 OFFCURVE",
"1196 -262 CURVE SMOOTH",
"1196 -217 OFFCURVE",
"1231 -185 OFFCURVE",
"1275 -185 CURVE SMOOTH",
"1319 -185 OFFCURVE",
"1352 -217 OFFCURVE",
"1352 -262 CURVE SMOOTH",
"1352 -306 OFFCURVE",
"1319 -339 OFFCURVE",
"1275 -339 CURVE SMOOTH",
"1254 -339 OFFCURVE",
"1234 -331 OFFCURVE",
"1219 -316 CURVE SMOOTH"
);
},
{
closed = 1;
nodes = (
"1359 1137 OFFCURVE",
"1421 1037 OFFCURVE",
"1446 922 CURVE",
"1475 922 LINE SMOOTH",
"1592 922 OFFCURVE",
"1692 886 OFFCURVE",
"1776 812 CURVE",
"1807 843 OFFCURVE",
"1832 878 OFFCURVE",
"1847 912 CURVE",
"1669 998 OFFCURVE",
"1571 1175 OFFCURVE",
"1571 1351 CURVE SMOOTH",
"1571 1361 OFFCURVE",
"1571 1371 OFFCURVE",
"1571 1380 CURVE",
"1561 1382 OFFCURVE",
"1551 1382 OFFCURVE",
"1541 1382 CURVE SMOOTH",
"1438 1380 OFFCURVE",
"1321 1328 OFFCURVE",
"1260 1221 CURVE"
);
}
);
width = 2040;
}
);
unicode = F02A;
},
{
glyphname = "night-alt-sprinkle";
lastChange = "2013-07-01 03:06:01 -0700";
layers = (
{
layerId = "1E718338-5C3C-490C-A197-65E7F37A33B6";
name = "Regular";
paths = (
{
closed = 1;
nodes = (
"2 680 OFFCURVE",
"152 865 OFFCURVE",
"357 913 CURVE",
"415 1167 OFFCURVE",
"641 1349 OFFCURVE",
"905 1349 CURVE SMOOTH",
"977 1349 OFFCURVE",
"1049 1334 OFFCURVE",
"1123 1306 CURVE",
"1233 1485 OFFCURVE",
"1417 1542 OFFCURVE",
"1543 1542 CURVE SMOOTH",
"1582 1542 OFFCURVE",
"1622 1537 OFFCURVE",
"1661 1528 CURVE",
"1735 1505 LINE",
"1746 1500 OFFCURVE",
"1751 1493 OFFCURVE",
"1748 1483 CURVE",
"1735 1426 LINE SMOOTH",
"1728 1400 OFFCURVE",
"1725 1373 OFFCURVE",
"1725 1347 CURVE SMOOTH",
"1725 1234 OFFCURVE",
"1797 1085 OFFCURVE",
"1966 1037 CURVE SMOOTH",
"2020 1021 LINE SMOOTH",
"2030 1018 OFFCURVE",
"2035 1013 OFFCURVE",
"2035 1006 CURVE SMOOTH",
"2035 1005 OFFCURVE",
"2035 1001 OFFCURVE",
"2033 1000 CURVE",
"2020 932 LINE",
"1997 842 OFFCURVE",
"1950 762 OFFCURVE",
"1876 691 CURVE",
"1918 621 OFFCURVE",
"1940 545 OFFCURVE",
"1940 463 CURVE SMOOTH",
"1940 214 OFFCURVE",
"1743 8 OFFCURVE",
"1494 -1 CURVE SMOOTH",
"1482 -1 OFFCURVE",
"1476 4 OFFCURVE",
"1476 16 CURVE SMOOTH",
"1476 140 LINE SMOOTH",
"1476 152 OFFCURVE",
"1482 157 OFFCURVE",
"1494 157 CURVE",
"1653 165 OFFCURVE",
"1782 301 OFFCURVE",
"1782 463 CURVE SMOOTH",
"1782 627 OFFCURVE",
"1641 765 OFFCURVE",
"1476 765 CURVE SMOOTH",
"1325 765 LINE SMOOTH",
"1313 765 OFFCURVE",
"1308 770 OFFCURVE",
"1308 782 CURVE",
"1302 836 LINE SMOOTH",
"1281 1037 OFFCURVE",
"1107 1191 OFFCURVE",
"905 1191 CURVE SMOOTH",
"700 1191 OFFCURVE",
"530 1037 OFFCURVE",
"510 836 CURVE SMOOTH",
"503 785 LINE",
"503 773 OFFCURVE",
"497 768 OFFCURVE",
"485 768 CURVE",
"436 765 LINE",
"280 747 OFFCURVE",
"161 619 OFFCURVE",
"161 463 CURVE SMOOTH",
"161 301 OFFCURVE",
"290 165 OFFCURVE",
"449 157 CURVE",
"461 157 OFFCURVE",
"466 152 OFFCURVE",
"466 140 CURVE SMOOTH",
"466 16 LINE SMOOTH",
"466 4 OFFCURVE",
"461 -1 OFFCURVE",
"449 -1 CURVE",
"200 11 OFFCURVE",
"2 214 OFFCURVE",
"2 463 CURVE SMOOTH"
);
},
{
closed = 1;
nodes = (
"556 434 OFFCURVE",
"612 522 OFFCURVE",
"657 570 CURVE",
"690 608 LINE",
"700 598 OFFCURVE",
"713 585 OFFCURVE",
"728 568 CURVE SMOOTH",
"758 534 OFFCURVE",
"821 434 OFFCURVE",
"821 381 CURVE SMOOTH",
"821 308 OFFCURVE",
"764 252 OFFCURVE",
"690 252 CURVE SMOOTH",
"616 252 OFFCURVE",
"556 309 OFFCURVE",
"556 381 CURVE SMOOTH"
);
},
{
closed = 1;
nodes = (
"835 63 OFFCURVE",
"869 137 OFFCURVE",
"912 196 CURVE SMOOTH",
"954 254 OFFCURVE",
"1000 306 OFFCURVE",
"1031 334 CURVE",
"1053 355 LINE",
"1058 350 OFFCURVE",
"1066 342 OFFCURVE",
"1077 334 CURVE",
"1097 314 OFFCURVE",
"1158 247 OFFCURVE",
"1197 195 CURVE SMOOTH",
"1235 140 OFFCURVE",
"1272 63 OFFCURVE",
"1272 9 CURVE SMOOTH",
"1272 -110 OFFCURVE",
"1176 -209 OFFCURVE",
"1053 -209 CURVE SMOOTH",
"933 -209 OFFCURVE",
"835 -114 OFFCURVE",
"835 9 CURVE SMOOTH"
);
},
{
closed = 1;
nodes = (
"972 665 OFFCURVE",
"1010 724 OFFCURVE",
"1041 757 CURVE SMOOTH",
"1064 782 LINE",
"1122 721 OFFCURVE",
"1151 672 OFFCURVE",
"1151 631 CURVE SMOOTH",
"1151 583 OFFCURVE",
"1112 544 OFFCURVE",
"1064 544 CURVE SMOOTH",
"1013 544 OFFCURVE",
"972 583 OFFCURVE",
"972 631 CURVE SMOOTH"
);
},
{
closed = 1;
nodes = (
"1354 1146 OFFCURVE",
"1417 1046 OFFCURVE",
"1446 923 CURVE",
"1476 923 LINE SMOOTH",
"1590 923 OFFCURVE",
"1690 887 OFFCURVE",
"1776 816 CURVE",
"1807 844 OFFCURVE",
"1830 875 OFFCURVE",
"1846 913 CURVE",
"1668 1000 OFFCURVE",
"1568 1177 OFFCURVE",
"1568 1352 CURVE SMOOTH",
"1568 1360 OFFCURVE",
"1568 1370 OFFCURVE",
"1568 1380 CURVE",
"1559 1382 OFFCURVE",
"1551 1382 OFFCURVE",
"1543 1382 CURVE SMOOTH",
"1436 1382 OFFCURVE",
"1325 1331 OFFCURVE",
"1258 1221 CURVE"
);
}
);
width = 2040;
}
);
unicode = F02B;
},
{
glyphname = "night-alt-storm-showers";
lastChange = "2013-07-01 03:06:44 -0700";
layers = (
{
layerId = "1E718338-5C3C-490C-A197-65E7F37A33B6";
name = "Regular";
paths = (
{
closed = 1;
nodes = (
"1 680 OFFCURVE",
"152 865 OFFCURVE",
"357 913 CURVE",
"415 1167 OFFCURVE",
"641 1349 OFFCURVE",
"905 1349 CURVE SMOOTH",
"976 1349 OFFCURVE",
"1049 1334 OFFCURVE",
"1127 1306 CURVE",
"1236 1485 OFFCURVE",
"1415 1543 OFFCURVE",
"1545 1541 CURVE SMOOTH",
"1582 1541 OFFCURVE",
"1622 1536 OFFCURVE",
"1661 1528 CURVE",
"1735 1505 LINE",
"1746 1500 OFFCURVE",
"1751 1493 OFFCURVE",
"1748 1483 CURVE",
"1738 1426 LINE",
"1732 1400 OFFCURVE",
"1728 1374 OFFCURVE",
"1728 1347 CURVE SMOOTH",
"1727 1237 OFFCURVE",
"1796 1088 OFFCURVE",
"1966 1037 CURVE SMOOTH",
"2024 1021 LINE",
"2034 1018 OFFCURVE",
"2038 1013 OFFCURVE",
"2038 1006 CURVE SMOOTH",
"2038 1005 OFFCURVE",
"2038 1001 OFFCURVE",
"2037 1000 CURVE",
"2020 936 LINE SMOOTH",
"1997 841 OFFCURVE",
"1950 759 OFFCURVE",
"1879 691 CURVE",
"1920 619 OFFCURVE",
"1940 544 OFFCURVE",
"1940 463 CURVE SMOOTH",
"1940 214 OFFCURVE",
"1743 7 OFFCURVE",
"1494 -1 CURVE SMOOTH",
"1482 -1 OFFCURVE",
"1476 4 OFFCURVE",
"1476 16 CURVE SMOOTH",
"1476 143 LINE SMOOTH",
"1476 155 OFFCURVE",
"1482 160 OFFCURVE",
"1494 160 CURVE",
"1656 171 OFFCURVE",
"1783 304 OFFCURVE",
"1783 463 CURVE SMOOTH",
"1783 629 OFFCURVE",
"1645 765 OFFCURVE",
"1476 765 CURVE SMOOTH",
"1325 765 LINE SMOOTH",
"1313 765 OFFCURVE",
"1309 770 OFFCURVE",
"1309 782 CURVE",
"1302 836 LINE SMOOTH",
"1281 1037 OFFCURVE",
"1107 1192 OFFCURVE",
"905 1192 CURVE SMOOTH",
"700 1192 OFFCURVE",
"530 1037 OFFCURVE",
"510 836 CURVE",
"503 788 LINE",
"503 777 OFFCURVE",
"497 772 OFFCURVE",
"485 772 CURVE",
"436 765 LINE SMOOTH",
"280 747 OFFCURVE",
"160 619 OFFCURVE",
"160 463 CURVE SMOOTH",
"160 324 OFFCURVE",
"259 199 OFFCURVE",
"392 166 CURVE",
"492 435 LINE",
"497 444 OFFCURVE",
"505 449 OFFCURVE",
"513 449 CURVE SMOOTH",
"789 449 LINE SMOOTH",
"803 449 OFFCURVE",
"808 442 OFFCURVE",
"802 429 CURVE SMOOTH",
"571 -4 LINE",
"774 -4 LINE SMOOTH",
"787 -4 OFFCURVE",
"792 -16 OFFCURVE",
"785 -24 CURVE",
"287 -760 LINE",
"261 -760 LINE",
"485 -158 LINE",
"287 -158 LINE SMOOTH",
"275 -158 OFFCURVE",
"270 -152 OFFCURVE",
"274 -139 CURVE",
"334 19 LINE",
"139 78 OFFCURVE",
"1 255 OFFCURVE",
"1 463 CURVE SMOOTH"
);
},
{
closed = 1;
nodes = (
"792 -340 LINE SMOOTH",
"805 -296 OFFCURVE",
"848 -271 OFFCURVE",
"889 -283 CURVE SMOOTH",
"933 -296 OFFCURVE",
"958 -339 OFFCURVE",
"946 -380 CURVE SMOOTH",
"920 -478 LINE SMOOTH",
"913 -501 OFFCURVE",
"900 -517 OFFCURVE",
"880 -527 CURVE",
"869 -532 OFFCURVE",
"858 -536 OFFCURVE",
"846 -536 CURVE SMOOTH",
"838 -536 OFFCURVE",
"830 -534 OFFCURVE",
"821 -532 CURVE",
"780 -519 OFFCURVE",
"764 -483 OFFCURVE",
"764 -458 CURVE SMOOTH",
"764 -450 OFFCURVE",
"766 -442 OFFCURVE",
"767 -434 CURVE"
);
},
{
closed = 1;
nodes = (
"915 107 LINE",
"928 152 OFFCURVE",
"972 175 OFFCURVE",
"1013 163 CURVE SMOOTH",
"1058 150 OFFCURVE",
"1082 107 OFFCURVE",
"1071 66 CURVE SMOOTH",
"1043 -30 LINE SMOOTH",
"1031 -68 OFFCURVE",
"1008 -88 OFFCURVE",
"971 -88 CURVE SMOOTH",
"963 -88 OFFCURVE",
"954 -86 OFFCURVE",
"946 -84 CURVE SMOOTH",
"900 -76 OFFCURVE",
"889 -40 OFFCURVE",
"889 -14 CURVE SMOOTH",
"889 -6 OFFCURVE",
"890 4 OFFCURVE",
"892 12 CURVE"
);
},
{
closed = 1;
nodes = (
"1181 -52 LINE",
"1189 -7 OFFCURVE",
"1233 17 OFFCURVE",
"1279 6 CURVE",
"1320 -7 OFFCURVE",
"1345 -50 OFFCURVE",
"1332 -94 CURVE",
"1309 -189 LINE",
"1297 -230 OFFCURVE",
"1276 -252 OFFCURVE",
"1243 -252 CURVE SMOOTH",
"1233 -252 OFFCURVE",
"1223 -250 OFFCURVE",
"1212 -247 CURVE",
"1168 -232 OFFCURVE",
"1153 -196 OFFCURVE",
"1151 -170 CURVE",
"1151 -163 OFFCURVE",
"1153 -157 OFFCURVE",
"1154 -148 CURVE"
);
},
{
closed = 1;
nodes = (
"1358 1141 OFFCURVE",
"1420 1042 OFFCURVE",
"1446 926 CURVE",
"1476 926 LINE SMOOTH",
"1589 926 OFFCURVE",
"1689 890 OFFCURVE",
"1776 816 CURVE",
"1807 844 OFFCURVE",
"1830 875 OFFCURVE",
"1847 913 CURVE",
"1669 1000 OFFCURVE",
"1571 1177 OFFCURVE",
"1571 1354 CURVE SMOOTH",
"1571 1364 OFFCURVE",
"1571 1374 OFFCURVE",
"1571 1383 CURVE",
"1564 1383 OFFCURVE",
"1558 1383 OFFCURVE",
"1551 1383 CURVE SMOOTH",
"1440 1383 OFFCURVE",
"1325 1328 OFFCURVE",
"1261 1221 CURVE"
);
},
{
closed = 1;
nodes = (
"1309 396 LINE SMOOTH",
"1322 440 OFFCURVE",
"1358 455 OFFCURVE",
"1384 455 CURVE SMOOTH",
"1391 455 OFFCURVE",
"1397 453 OFFCURVE",
"1405 452 CURVE",
"1450 439 OFFCURVE",
"1466 403 OFFCURVE",
"1464 375 CURVE",
"1464 368 OFFCURVE",
"1464 362 OFFCURVE",
"1463 355 CURVE SMOOTH",
"1437 258 LINE SMOOTH",
"1425 217 OFFCURVE",
"1402 198 OFFCURVE",
"1368 198 CURVE SMOOTH",
"1359 198 OFFCURVE",
"1350 199 OFFCURVE",
"1340 201 CURVE",
"1292 214 OFFCURVE",
"1279 250 OFFCURVE",
"1279 278 CURVE SMOOTH",
"1279 285 OFFCURVE",
"1281 293 OFFCURVE",
"1282 301 CURVE"
);
}
);
width = 2040;
}
);
unicode = F02C;
},
{
glyphname = "night-alt-thunderstorm";
lastChange = "2013-07-01 03:07:39 -0700";
layers = (
{
layerId = "1E718338-5C3C-490C-A197-65E7F37A33B6";
name = "Regular";
paths = (
{
closed = 1;
nodes = (
"-3 682 OFFCURVE",
"148 867 OFFCURVE",
"353 915 CURVE",
"411 1169 OFFCURVE",
"637 1351 OFFCURVE",
"901 1351 CURVE SMOOTH",
"972 1351 OFFCURVE",
"1046 1337 OFFCURVE",
"1123 1309 CURVE",
"1233 1492 OFFCURVE",
"1417 1548 OFFCURVE",
"1543 1548 CURVE SMOOTH",
"1622 1548 OFFCURVE",
"1704 1524 OFFCURVE",
"1735 1511 CURVE SMOOTH",
"1747 1506 OFFCURVE",
"1752 1499 OFFCURVE",
"1748 1489 CURVE",
"1735 1432 LINE SMOOTH",
"1730 1407 OFFCURVE",
"1727 1382 OFFCURVE",
"1727 1358 CURVE SMOOTH",
"1727 1241 OFFCURVE",
"1799 1090 OFFCURVE",
"1968 1043 CURVE SMOOTH",
"2021 1026 LINE SMOOTH",
"2031 1023 OFFCURVE",
"2036 1018 OFFCURVE",
"2036 1012 CURVE SMOOTH",
"2036 1010 OFFCURVE",
"2036 1007 OFFCURVE",
"2034 1005 CURVE",
"2021 938 LINE",
"1998 844 OFFCURVE",
"1950 764 OFFCURVE",
"1876 693 CURVE",
"1917 621 OFFCURVE",
"1937 545 OFFCURVE",
"1937 465 CURVE SMOOTH",
"1937 215 OFFCURVE",
"1740 9 OFFCURVE",
"1491 0 CURVE SMOOTH",
"1479 0 OFFCURVE",
"1473 5 OFFCURVE",
"1473 17 CURVE SMOOTH",
"1473 145 LINE SMOOTH",
"1473 156 OFFCURVE",
"1479 161 OFFCURVE",
"1491 161 CURVE",
"1653 173 OFFCURVE",
"1780 306 OFFCURVE",
"1780 465 CURVE SMOOTH",
"1780 631 OFFCURVE",
"1642 767 OFFCURVE",
"1473 767 CURVE SMOOTH",
"1322 767 LINE SMOOTH",
"1310 767 OFFCURVE",
"1305 772 OFFCURVE",
"1305 783 CURVE",
"1299 838 LINE SMOOTH",
"1277 1039 OFFCURVE",
"1103 1194 OFFCURVE",
"901 1194 CURVE SMOOTH",
"696 1194 OFFCURVE",
"525 1039 OFFCURVE",
"506 838 CURVE",
"499 790 LINE",
"499 778 OFFCURVE",
"493 774 OFFCURVE",
"481 774 CURVE",
"432 767 LINE SMOOTH",
"276 749 OFFCURVE",
"156 621 OFFCURVE",
"156 465 CURVE SMOOTH",
"156 325 OFFCURVE",
"255 201 OFFCURVE",
"388 168 CURVE",
"488 437 LINE",
"493 445 OFFCURVE",
"501 450 OFFCURVE",
"509 450 CURVE SMOOTH",
"785 450 LINE SMOOTH",
"800 450 OFFCURVE",
"805 444 OFFCURVE",
"798 430 CURVE SMOOTH",
"567 -3 LINE",
"770 -3 LINE SMOOTH",
"783 -3 OFFCURVE",
"788 -14 OFFCURVE",
"782 -23 CURVE",
"283 -760 LINE",
"256 -760 LINE",
"481 -157 LINE",
"283 -157 LINE SMOOTH",
"271 -157 OFFCURVE",
"266 -151 OFFCURVE",
"269 -137 CURVE",
"330 20 LINE",
"135 79 OFFCURVE",
"-3 256 OFFCURVE",
"-3 465 CURVE SMOOTH"
);
},
{
closed = 1;
nodes = (
"972 398 LINE SMOOTH",
"983 439 OFFCURVE",
"1026 463 OFFCURVE",
"1070 450 CURVE SMOOTH",
"1111 439 OFFCURVE",
"1136 398 OFFCURVE",
"1123 353 CURVE SMOOTH",
"862 -605 LINE SMOOTH",
"852 -645 OFFCURVE",
"829 -664 OFFCURVE",
"791 -664 CURVE SMOOTH",
"783 -664 OFFCURVE",
"773 -663 OFFCURVE",
"763 -661 CURVE",
"722 -650 OFFCURVE",
"708 -615 OFFCURVE",
"708 -589 CURVE SMOOTH",
"708 -581 OFFCURVE",
"709 -572 OFFCURVE",
"711 -564 CURVE"
);
},
{
closed = 1;
nodes = (
"1285 398 LINE SMOOTH",
"1297 439 OFFCURVE",
"1338 463 OFFCURVE",
"1382 450 CURVE SMOOTH",
"1423 439 OFFCURVE",
"1450 398 OFFCURVE",
"1436 353 CURVE SMOOTH",
"1251 -323 LINE SMOOTH",
"1239 -362 OFFCURVE",
"1218 -382 OFFCURVE",
"1184 -382 CURVE SMOOTH",
"1175 -382 OFFCURVE",
"1166 -380 OFFCURVE",
"1154 -379 CURVE",
"1110 -367 OFFCURVE",
"1097 -334 OFFCURVE",
"1097 -308 CURVE SMOOTH",
"1097 -300 OFFCURVE",
"1098 -292 OFFCURVE",
"1100 -282 CURVE"
);
},
{
closed = 1;
nodes = (
"1354 1143 OFFCURVE",
"1417 1044 OFFCURVE",
"1443 928 CURVE",
"1473 928 LINE SMOOTH",
"1586 928 OFFCURVE",
"1686 892 OFFCURVE",
"1773 818 CURVE",
"1806 847 OFFCURVE",
"1830 880 OFFCURVE",
"1847 918 CURVE",
"1670 1005 OFFCURVE",
"1571 1181 OFFCURVE",
"1571 1356 CURVE SMOOTH",
"1571 1366 OFFCURVE",
"1571 1376 OFFCURVE",
"1571 1386 CURVE",
"1563 1387 OFFCURVE",
"1555 1387 OFFCURVE",
"1546 1387 CURVE SMOOTH",
"1436 1387 OFFCURVE",
"1322 1333 OFFCURVE",
"1258 1223 CURVE"
);
}
);
width = 2040;
}
);
unicode = F02D;
},
{
glyphname = "night-clear";
lastChange = "2013-07-01 23:10:30 -0700";
layers = (
{
layerId = "1E718338-5C3C-490C-A197-65E7F37A33B6";
name = "Regular";
paths = (
{
closed = 1;
nodes = (
"13 322 OFFCURVE",
"305 25 OFFCURVE",
"675 25 CURVE SMOOTH",
"1039 25 OFFCURVE",
"1336 322 OFFCURVE",
"1333 688 CURVE",
"1333 779 LINE SMOOTH",
"1333 794 OFFCURVE",
"1327 801 OFFCURVE",
"1311 801 CURVE",
"1234 807 LINE",
"1001 816 OFFCURVE",
"815 1005 OFFCURVE",
"808 1242 CURVE SMOOTH",
"804 1324 LINE",
"804 1337 OFFCURVE",
"797 1346 OFFCURVE",
"782 1350 CURVE",
"675 1350 LINE SMOOTH",
"310 1350 OFFCURVE",
"13 1051 OFFCURVE",
"13 688 CURVE SMOOTH"
);
},
{
closed = 1;
nodes = (
"184 939 OFFCURVE",
"383 1183 OFFCURVE",
"656 1197 CURVE",
"683 937 OFFCURVE",
"869 718 OFFCURVE",
"1181 653 CURVE",
"1139 361 OFFCURVE",
"890 190 OFFCURVE",
"675 190 CURVE SMOOTH",
"429 190 OFFCURVE",
"184 394 OFFCURVE",
"184 688 CURVE SMOOTH"
);
}
);
width = 1400;
}
);
unicode = F02E;
},
{
glyphname = "night-cloudy";
lastChange = "2013-07-01 23:15:06 -0700";
layers = (
{
layerId = "1E718338-5C3C-490C-A197-65E7F37A33B6";
name = "Regular";
paths = (
{
closed = 1;
nodes = (
"3 678 OFFCURVE",
"149 863 OFFCURVE",
"358 910 CURVE",
"415 1163 OFFCURVE",
"637 1344 OFFCURVE",
"900 1344 CURVE SMOOTH",
"994 1344 OFFCURVE",
"1078 1325 OFFCURVE",
"1151 1284 CURVE",
"1252 1392 OFFCURVE",
"1373 1446 OFFCURVE",
"1512 1446 CURVE SMOOTH",
"1782 1446 OFFCURVE",
"2000 1227 OFFCURVE",
"2000 957 CURVE SMOOTH",
"2000 838 OFFCURVE",
"1964 735 OFFCURVE",
"1894 649 CURVE",
"1920 584 OFFCURVE",
"1933 522 OFFCURVE",
"1933 463 CURVE SMOOTH",
"1933 208 OFFCURVE",
"1726 1 OFFCURVE",
"1471 1 CURVE SMOOTH",
"462 1 LINE SMOOTH",
"207 1 OFFCURVE",
"3 208 OFFCURVE",
"3 463 CURVE SMOOTH"
);
},
{
closed = 1;
nodes = (
"162 298 OFFCURVE",
"299 157 OFFCURVE",
"462 157 CURVE SMOOTH",
"1471 157 LINE SMOOTH",
"1636 157 OFFCURVE",
"1773 295 OFFCURVE",
"1773 463 CURVE SMOOTH",
"1773 626 OFFCURVE",
"1636 763 OFFCURVE",
"1471 763 CURVE SMOOTH",
"1305 763 LINE",
"1295 833 LINE",
"1275 1034 OFFCURVE",
"1104 1188 OFFCURVE",
"900 1188 CURVE SMOOTH",
"699 1188 OFFCURVE",
"531 1034 OFFCURVE",
"506 833 CURVE SMOOTH",
"500 766 LINE",
"436 763 LINE",
"279 745 OFFCURVE",
"162 619 OFFCURVE",
"162 463 CURVE SMOOTH"
);
},
{
closed = 1;
nodes = (
"1365 1114 OFFCURVE",
"1417 1023 OFFCURVE",
"1442 920 CURVE",
"1471 920 LINE SMOOTH",
"1599 920 OFFCURVE",
"1706 876 OFFCURVE",
"1796 786 CURVE",
"1827 840 OFFCURVE",
"1844 897 OFFCURVE",
"1844 957 CURVE SMOOTH",
"1844 1142 OFFCURVE",
"1697 1287 OFFCURVE",
"1512 1287 CURVE SMOOTH",
"1426 1287 OFFCURVE",
"1350 1256 OFFCURVE",
"1285 1194 CURVE"
);
}
);
width = 2000;
}
);
unicode = F031;
},
{
glyphname = "night-cloudy-gusts";
lastChange = "2013-07-01 23:12:54 -0700";
layers = (
{
layerId = "1E718338-5C3C-490C-A197-65E7F37A33B6";
name = "Regular";
paths = (
{
closed = 1;
nodes = (
"-195 40 OFFCURVE",
"-203 59 OFFCURVE",
"-203 81 CURVE SMOOTH",
"-203 125 OFFCURVE",
"-165 161 OFFCURVE",
"-121 161 CURVE SMOOTH",
"628 161 LINE SMOOTH",
"766 161 OFFCURVE",
"877 48 OFFCURVE",
"877 -90 CURVE SMOOTH",
"877 -227 OFFCURVE",
"766 -338 OFFCURVE",
"628 -338 CURVE SMOOTH",
"560 -338 OFFCURVE",
"501 -314 OFFCURVE",
"452 -265 CURVE SMOOTH",
"437 -250 OFFCURVE",
"429 -230 OFFCURVE",
"429 -209 CURVE SMOOTH",
"429 -165 OFFCURVE",
"463 -129 OFFCURVE",
"507 -129 CURVE SMOOTH",
"529 -129 OFFCURVE",
"548 -137 OFFCURVE",
"565 -153 CURVE SMOOTH",
"583 -171 OFFCURVE",
"604 -181 OFFCURVE",
"628 -181 CURVE SMOOTH",
"676 -181 OFFCURVE",
"720 -137 OFFCURVE",
"720 -90 CURVE SMOOTH",
"720 -39 OFFCURVE",
"676 0 OFFCURVE",
"628 0 CURVE SMOOTH",
"-121 0 LINE SMOOTH",
"-142 0 OFFCURVE",
"-162 9 OFFCURVE",
"-178 25 CURVE"
);
},
{
closed = 1;
nodes = (
"-195 323 OFFCURVE",
"-203 341 OFFCURVE",
"-203 362 CURVE SMOOTH",
"-203 406 OFFCURVE",
"-165 442 OFFCURVE",
"-121 442 CURVE SMOOTH",
"1105 442 LINE SMOOTH",
"1152 442 OFFCURVE",
"1195 483 OFFCURVE",
"1195 534 CURVE SMOOTH",
"1195 585 OFFCURVE",
"1152 624 OFFCURVE",
"1105 624 CURVE SMOOTH",
"1080 624 OFFCURVE",
"1059 616 OFFCURVE",
"1041 598 CURVE",
"1025 583 OFFCURVE",
"1005 577 OFFCURVE",
"984 577 CURVE SMOOTH",
"938 577 OFFCURVE",
"907 608 OFFCURVE",
"907 653 CURVE SMOOTH",
"907 675 OFFCURVE",
"913 694 OFFCURVE",
"928 711 CURVE",
"975 758 OFFCURVE",
"1034 781 OFFCURVE",
"1105 781 CURVE SMOOTH",
"1242 781 OFFCURVE",
"1354 671 OFFCURVE",
"1354 534 CURVE SMOOTH",
"1354 396 OFFCURVE",
"1242 285 OFFCURVE",
"1105 285 CURVE SMOOTH",
"-121 285 LINE SMOOTH",
"-144 285 OFFCURVE",
"-164 293 OFFCURVE",
"-178 308 CURVE"
);
},
{
closed = 1;
nodes = (
"247 593 LINE",
"295 750 OFFCURVE",
"427 874 OFFCURVE",
"586 912 CURVE",
"640 1167 OFFCURVE",
"864 1347 OFFCURVE",
"1128 1347 CURVE SMOOTH",
"1219 1347 OFFCURVE",
"1303 1328 OFFCURVE",
"1376 1290 CURVE",
"1473 1398 OFFCURVE",
"1594 1452 OFFCURVE",
"1738 1452 CURVE SMOOTH",
"2007 1452 OFFCURVE",
"2227 1233 OFFCURVE",
"2227 963 CURVE SMOOTH",
"2227 848 OFFCURVE",
"2191 745 OFFCURVE",
"2121 653 CURVE",
"2147 596 OFFCURVE",
"2160 534 OFFCURVE",
"2160 464 CURVE SMOOTH",
"2160 208 OFFCURVE",
"1954 0 OFFCURVE",
"1699 0 CURVE SMOOTH",
"1054 0 LINE SMOOTH",
"1043 0 OFFCURVE",
"1038 5 OFFCURVE",
"1038 17 CURVE SMOOTH",
"1038 144 LINE SMOOTH",
"1038 156 OFFCURVE",
"1043 161 OFFCURVE",
"1054 161 CURVE SMOOTH",
"1699 161 LINE SMOOTH",
"1867 161 OFFCURVE",
"2003 298 OFFCURVE",
"2003 464 CURVE SMOOTH",
"2003 629 OFFCURVE",
"1867 765 OFFCURVE",
"1699 765 CURVE SMOOTH",
"1547 765 LINE SMOOTH",
"1535 765 OFFCURVE",
"1530 770 OFFCURVE",
"1530 781 CURVE",
"1524 835 LINE SMOOTH",
"1502 1040 OFFCURVE",
"1332 1190 OFFCURVE",
"1128 1190 CURVE SMOOTH",
"923 1190 OFFCURVE",
"753 1036 OFFCURVE",
"733 835 CURVE",
"727 788 LINE",
"727 776 OFFCURVE",
"720 771 OFFCURVE",
"709 771 CURVE",
"660 765 LINE",
"548 757 OFFCURVE",
"455 683 OFFCURVE",
"414 583 CURVE",
"409 575 OFFCURVE",
"403 570 OFFCURVE",
"394 570 CURVE SMOOTH",
"260 570 LINE SMOOTH",
"250 570 OFFCURVE",
"245 573 OFFCURVE",
"245 581 CURVE SMOOTH",
"245 583 OFFCURVE",
"245 586 OFFCURVE",
"247 590 CURVE"
);
},
{
closed = 1;
nodes = (
"1592 1118 OFFCURVE",
"1646 1027 OFFCURVE",
"1668 925 CURVE",
"1699 925 LINE SMOOTH",
"1825 925 OFFCURVE",
"1933 881 OFFCURVE",
"2023 791 CURVE",
"2054 848 OFFCURVE",
"2070 905 OFFCURVE",
"2070 963 CURVE SMOOTH",
"2070 1144 OFFCURVE",
"1920 1295 OFFCURVE",
"1738 1295 CURVE SMOOTH",
"1651 1295 OFFCURVE",
"1574 1264 OFFCURVE",
"1507 1200 CURVE"
);
}
);
width = 2230;
}
);
unicode = F02F;
},
{
glyphname = "night-cloudy-windy";
lastChange = "2013-07-01 23:14:03 -0700";
layers = (
{
layerId = "1E718338-5C3C-490C-A197-65E7F37A33B6";
name = "Regular";
paths = (
{
closed = 1;
nodes = (
"-448 38 OFFCURVE",
"-456 58 OFFCURVE",
"-456 80 CURVE SMOOTH",
"-456 124 OFFCURVE",
"-418 160 OFFCURVE",
"-374 160 CURVE SMOOTH",
"857 160 LINE SMOOTH",
"901 160 OFFCURVE",
"934 124 OFFCURVE",
"934 80 CURVE SMOOTH",
"934 35 OFFCURVE",
"901 -1 OFFCURVE",
"857 -1 CURVE SMOOTH",
"-374 -1 LINE SMOOTH",
"-395 -1 OFFCURVE",
"-415 7 OFFCURVE",
"-431 24 CURVE"
);
},
{
closed = 1;
nodes = (
"-201 322 OFFCURVE",
"-210 340 OFFCURVE",
"-210 362 CURVE SMOOTH",
"-210 406 OFFCURVE",
"-174 442 OFFCURVE",
"-129 442 CURVE SMOOTH",
"1103 442 LINE SMOOTH",
"1147 442 OFFCURVE",
"1180 406 OFFCURVE",
"1180 362 CURVE SMOOTH",
"1180 317 OFFCURVE",
"1147 285 OFFCURVE",
"1103 285 CURVE SMOOTH",
"-129 285 LINE SMOOTH",
"-151 285 OFFCURVE",
"-170 293 OFFCURVE",
"-185 308 CURVE"
);
},
{
closed = 1;
nodes = (
"-37 -249 OFFCURVE",
"-46 -231 OFFCURVE",
"-46 -209 CURVE SMOOTH",
"-46 -165 OFFCURVE",
"-9 -129 OFFCURVE",
"35 -129 CURVE SMOOTH",
"1267 -129 LINE SMOOTH",
"1311 -129 OFFCURVE",
"1347 -165 OFFCURVE",
"1347 -209 CURVE SMOOTH",
"1347 -254 OFFCURVE",
"1311 -286 OFFCURVE",
"1267 -286 CURVE SMOOTH",
"35 -286 LINE SMOOTH",
"14 -286 OFFCURVE",
"-6 -278 OFFCURVE",
"-21 -263 CURVE"
);
},
{
closed = 1;
nodes = (
"240 598 LINE",
"288 755 OFFCURVE",
"417 875 OFFCURVE",
"581 913 CURVE",
"635 1169 OFFCURVE",
"862 1349 OFFCURVE",
"1126 1349 CURVE SMOOTH",
"1216 1349 OFFCURVE",
"1300 1330 OFFCURVE",
"1379 1292 CURVE",
"1475 1395 OFFCURVE",
"1595 1448 OFFCURVE",
"1738 1448 CURVE SMOOTH",
"2009 1448 OFFCURVE",
"2230 1228 OFFCURVE",
"2230 957 CURVE SMOOTH",
"2230 846 OFFCURVE",
"2194 744 OFFCURVE",
"2122 650 CURVE",
"2150 590 OFFCURVE",
"2163 527 OFFCURVE",
"2163 463 CURVE SMOOTH",
"2163 207 OFFCURVE",
"1954 -1 OFFCURVE",
"1697 -1 CURVE SMOOTH",
"1052 -1 LINE SMOOTH",
"1041 -1 OFFCURVE",
"1036 4 OFFCURVE",
"1036 16 CURVE SMOOTH",
"1036 144 LINE SMOOTH",
"1036 155 OFFCURVE",
"1041 160 OFFCURVE",
"1052 160 CURVE SMOOTH",
"1697 160 LINE SMOOTH",
"1868 160 OFFCURVE",
"2004 298 OFFCURVE",
"2004 463 CURVE SMOOTH",
"2004 629 OFFCURVE",
"1868 765 OFFCURVE",
"1697 765 CURVE SMOOTH",
"1546 765 LINE SMOOTH",
"1534 765 OFFCURVE",
"1530 770 OFFCURVE",
"1530 782 CURVE",
"1523 836 LINE SMOOTH",
"1502 1041 OFFCURVE",
"1331 1192 OFFCURVE",
"1126 1192 CURVE SMOOTH",
"921 1192 OFFCURVE",
"749 1038 OFFCURVE",
"729 836 CURVE",
"722 788 LINE",
"722 777 OFFCURVE",
"717 772 OFFCURVE",
"706 772 CURVE",
"655 765 LINE",
"545 757 OFFCURVE",
"450 683 OFFCURVE",
"409 583 CURVE",
"404 575 OFFCURVE",
"396 570 OFFCURVE",
"388 570 CURVE SMOOTH",
"255 570 LINE SMOOTH",
"243 570 OFFCURVE",
"237 573 OFFCURVE",
"237 580 CURVE"
);
},
{
closed = 1;
nodes = (
"1592 1118 OFFCURVE",
"1644 1028 OFFCURVE",
"1667 926 CURVE",
"1697 926 LINE SMOOTH",
"1823 926 OFFCURVE",
"1932 882 OFFCURVE",
"2025 792 CURVE",
"2056 844 OFFCURVE",
"2071 900 OFFCURVE",
"2071 957 CURVE SMOOTH",
"2071 1141 OFFCURVE",
"1923 1289 OFFCURVE",
"1738 1289 CURVE SMOOTH",
"1648 1289 OFFCURVE",
"1572 1259 OFFCURVE",
"1508 1198 CURVE"
);
}
);
width = 2230;
}
);
unicode = F030;
},
{
glyphname = "night-fog";
lastChange = "2013-07-01 23:39:56 -0700";
layers = (
{
layerId = "1E718338-5C3C-490C-A197-65E7F37A33B6";
name = "Regular";
paths = (
{
closed = 1;
nodes = (
"-252 132 OFFCURVE",
"-216 167 OFFCURVE",
"-171 167 CURVE SMOOTH",
"1566 167 LINE SMOOTH",
"1612 167 OFFCURVE",
"1646 132 OFFCURVE",
"1646 87 CURVE SMOOTH",
"1646 44 OFFCURVE",
"1610 11 OFFCURVE",
"1566 11 CURVE SMOOTH",
"-171 11 LINE SMOOTH",
"-216 11 OFFCURVE",
"-252 44 OFFCURVE",
"-252 87 CURVE SMOOTH"
);
},
{
closed = 1;
nodes = (
"0 336 OFFCURVE",
"-9 355 OFFCURVE",
"-9 377 CURVE SMOOTH",
"-9 420 OFFCURVE",
"27 453 OFFCURVE",
"71 453 CURVE SMOOTH",
"1808 453 LINE SMOOTH",
"1852 453 OFFCURVE",
"1884 420 OFFCURVE",
"1884 377 CURVE SMOOTH",
"1884 333 OFFCURVE",
"1852 297 OFFCURVE",
"1808 297 CURVE SMOOTH",
"71 297 LINE SMOOTH",
"50 297 OFFCURVE",
"30 304 OFFCURVE",
"16 322 CURVE"
);
},
{
closed = 1;
nodes = (
"5 603 LINE",
"51 761 OFFCURVE",
"179 881 OFFCURVE",
"336 919 CURVE",
"394 1172 OFFCURVE",
"618 1354 OFFCURVE",
"878 1354 CURVE SMOOTH",
"948 1354 OFFCURVE",
"1018 1339 OFFCURVE",
"1091 1311 CURVE",
"1201 1492 OFFCURVE",
"1416 1583 OFFCURVE",
"1621 1533 CURVE",
"1700 1511 LINE",
"1711 1506 OFFCURVE",
"1716 1498 OFFCURVE",
"1712 1489 CURVE",
"1700 1435 LINE SMOOTH",
"1659 1265 OFFCURVE",
"1758 1096 OFFCURVE",
"1925 1048 CURVE",
"1983 1028 LINE",
"1990 1028 OFFCURVE",
"2000 1019 OFFCURVE",
"1995 1007 CURVE",
"1979 946 LINE SMOOTH",
"1954 849 OFFCURVE",
"1909 769 OFFCURVE",
"1839 706 CURVE",
"1846 694 OFFCURVE",
"1860 662 OFFCURVE",
"1882 607 CURVE",
"1884 592 OFFCURVE",
"1879 586 OFFCURVE",
"1868 586 CURVE SMOOTH",
"1736 586 LINE SMOOTH",
"1730 586 OFFCURVE",
"1722 591 OFFCURVE",
"1716 600 CURVE",
"1669 704 OFFCURVE",
"1565 775 OFFCURVE",
"1443 775 CURVE SMOOTH",
"1295 775 LINE SMOOTH",
"1282 775 OFFCURVE",
"1276 780 OFFCURVE",
"1276 792 CURVE",
"1270 845 LINE SMOOTH",
"1249 1045 OFFCURVE",
"1078 1194 OFFCURVE",
"878 1194 CURVE SMOOTH",
"675 1194 OFFCURVE",
"506 1043 OFFCURVE",
"486 842 CURVE",
"480 795 LINE",
"480 783 OFFCURVE",
"475 779 OFFCURVE",
"463 779 CURVE",
"413 772 LINE",
"308 764 OFFCURVE",
"214 696 OFFCURVE",
"169 600 CURVE",
"163 591 OFFCURVE",
"157 586 OFFCURVE",
"151 586 CURVE SMOOTH",
"17 586 LINE SMOOTH",
"6 586 OFFCURVE",
"1 592 OFFCURVE",
"5 607 CURVE"
);
},
{
closed = 1;
nodes = (
"162 -239 OFFCURVE",
"153 -219 OFFCURVE",
"153 -198 CURVE SMOOTH",
"153 -154 OFFCURVE",
"189 -122 OFFCURVE",
"233 -122 CURVE SMOOTH",
"1973 -122 LINE SMOOTH",
"2016 -122 OFFCURVE",
"2051 -154 OFFCURVE",
"2051 -198 CURVE SMOOTH",
"2051 -242 OFFCURVE",
"2016 -278 OFFCURVE",
"1973 -278 CURVE SMOOTH",
"233 -278 LINE SMOOTH",
"212 -278 OFFCURVE",
"193 -269 OFFCURVE",
"178 -253 CURVE"
);
},
{
closed = 1;
nodes = (
"1322 1152 OFFCURVE",
"1383 1053 OFFCURVE",
"1413 931 CURVE",
"1443 931 LINE SMOOTH",
"1554 931 OFFCURVE",
"1651 895 OFFCURVE",
"1736 825 CURVE",
"1766 856 OFFCURVE",
"1791 890 OFFCURVE",
"1806 925 CURVE",
"1630 1007 OFFCURVE",
"1521 1193 OFFCURVE",
"1533 1387 CURVE",
"1409 1399 OFFCURVE",
"1291 1334 OFFCURVE",
"1227 1228 CURVE"
);
}
);
width = 2000;
}
);
unicode = F04A;
},
